<?xml version="1.0" encoding="utf-8"?>
<!-- Generator: Adobe Illustrator 24.3.0, SVG Export Plug-In . SVG Version: 6.00 Build 0)  -->
<svg version="1.2" baseProfile="tiny" id="Layer_1" xmlns="http://www.w3.org/2000/svg" xmlns:xlink="http://www.w3.org/1999/xlink"
	 x="0px" y="0px" viewBox="0 0 342.6 341.7" overflow="visible" xml:space="preserve">
<g>
	<circle fill-rule="evenodd" fill="#F1D384" cx="173.4" cy="175.5" r="166.2"/>
	<g>
		<g>
			<circle fill-rule="evenodd" fill="#FFFFFF" cx="259.2" cy="30.7" r="28.2"/>
			<path fill="#296484" d="M259.2,61.7c-17.1,0-31-13.9-31-31s13.9-31,31-31c17.1,0,31,13.9,31,31S276.3,61.7,259.2,61.7z
				 M259.2,5.3c-14,0-25.4,11.4-25.4,25.4s11.4,25.4,25.4,25.4c14,0,25.4-11.4,25.4-25.4C284.5,16.7,273.2,5.3,259.2,5.3z"/>
		</g>
		<path fill="#296484" d="M274.8,24.1c1.2,1.8,1.9,3.9,2.2,6.1c0.2,2.2,0.1,4.5-0.6,6.7c-1.3,4.4-4.4,8.2-8.5,10.4
			c-4.1,2.2-9.1,2.6-13.4,1.2c-4.3-1.4-8-4.6-9.6-8.6c2.9,3.2,6.5,5.3,10.3,6s7.8,0.2,11.1-1.6c3.4-1.8,6.1-4.7,7.6-8.3
			c0.8-1.8,1.2-3.7,1.4-5.7C275.5,28.2,275.3,26.2,274.8,24.1z"/>
	</g>
	<g>
		<path fill="#296484" d="M209.6,341.7c-8.4,0-15.2-6.8-15.2-15.2s6.8-15.2,15.2-15.2s15.2,6.8,15.2,15.2S217.9,341.7,209.6,341.7z
			 M209.6,314c-6.9,0-12.4,5.6-12.4,12.4s5.6,12.4,12.4,12.4s12.4-5.6,12.4-12.4S216.4,314,209.6,314z"/>
		<path fill="#296484" d="M217.2,323.2c1.1,1.8,1.4,4.1,0.8,6.3c-0.6,2.2-2.2,4-4.2,5.1s-4.4,1.3-6.6,0.6c-2.1-0.7-3.9-2.3-4.7-4.2
			c1.4,1.6,3.2,2.6,5.1,2.9c1.9,0.4,3.8,0.1,5.5-0.8s3-2.3,3.7-4C217.5,327.3,217.7,325.3,217.2,323.2z"/>
	</g>
	<g>
		<path fill="#296484" d="M118.8,30.7c-8.4,0-15.2-6.8-15.2-15.2s6.9-15.2,15.2-15.2S134,7.1,134,15.5S127.2,30.7,118.8,30.7z
			 M118.8,3.1c-6.9,0-12.4,5.6-12.4,12.4s5.6,12.4,12.4,12.4s12.4-5.6,12.4-12.4S125.7,3.1,118.8,3.1z"/>
		<path fill="#296484" d="M126.5,12.3c1.1,1.8,1.4,4.1,0.8,6.3c-0.6,2.2-2.2,4-4.2,5.1s-4.4,1.3-6.6,0.6c-2.1-0.7-3.9-2.3-4.7-4.2
			c1.4,1.6,3.2,2.6,5.1,2.9c1.9,0.4,3.8,0.1,5.5-0.8s3-2.3,3.7-4C126.8,16.3,127,14.3,126.5,12.3z"/>
	</g>
	<g>
		<g>
			<g>
				<path fill="#1D7E8E" d="M276.2,160.9c0.6,0.8,1.4,0.4,2,0.9c-2.7-9.7-5.6-18.6-8.9-27c-1.9-4.8-3.9-9.3-6-13.7
					c-0.8,0.4-1.6,0.9-2.4,1.6c-3.5,3-0.9,9.1-3.9,12.1c-2.7,2.6-6.1,2.2-7.4,6.5c-0.5,1.7-0.5,3.3-0.1,4.8
					c8.8,3.5,17.2,7.9,25,13.3C275.3,159.8,275.5,160.9,276.2,160.9z"/>
				<path fill="none" d="M288.9,250.8c0.2-0.2,0.3-0.4,0.5-0.6c0-0.2,0-0.4,0-0.6C289.4,250,289.2,250.4,288.9,250.8z"/>
				<path fill="#1D7E8E" d="M278.9,160.8c1-10.5,4.3-20.4,8.1-30.4l0.9,0.4c-4.7,10.2-7.6,21-8.2,32.4c0.1,0.1,0.2,0.2,0.4,0.4
					l-0.4,0.3c1.7,6.5,3.3,13.4,4.8,20.7c4.6-9.4,11.2-17.5,18.8-25.1c-0.9-2.9-3.6-4.6-5.6-6.8c-5-5.3-2.4-11.6-4.6-17.8
					c-2-5.5-6.2-4.8-10.3-4.8c-2.6,0-5.2-0.4-7-2.9c-2.9-4.1-7-7.9-11.7-6.4c2.1,4.3,4.1,8.9,6,13.7
					C273.4,142.6,276.2,151.3,278.9,160.8z"/>
				<path fill="#1D7E8E" d="M283.8,185.5c-1.6-7.8-3.3-15.1-5.1-22c-1-0.9-1.9-1.5-2.9-2.1c-0.5-0.3-1.1-0.7-1.8-1.2
					c-7.5-5.1-15.6-9.5-24.1-12.9c1.4,4,4.7,7.7,6.1,11.4c1.7,4.6-2.1,6.4-3.9,10c-0.7,1.6-0.8,3.2-0.5,4.8v-0.2
					C262.9,175.2,274,179.4,283.8,185.5z"/>
				<path fill="#1D7E8E" d="M289.6,215.9l-0.1-0.7c-8.5-7.4-19.9-13.5-30.8-16.4c0.2,2.2,1,4.3,3.3,6.2c3.1,2.6,8.7,5,8.3,9.9
					c-0.2,1.7-1.3,3.2-1.7,4.9c-0.5,2.7,1.2,5.3,3.2,7.1c4.6,4.2,8.6,8.2,12.1,13.4c1.3,1.9,5.8,6,5.5,9
					C290,238.1,290.9,228,289.6,215.9z"/>
				<path fill="#1D7E8E" d="M302.9,210.6c-0.9-3.7,2.7-7.2,4.1-10.3c2.1-5,0.6-10.7-3.2-14.4c-1.8-1.8-3.7-3.7-4-6.2
					c-0.3-2.7,1.4-5.2,2.2-7.7c0.7-2.3,1.2-4.8,1.4-7.2c0.2-1.4,0.2-2.9,0-4.3c-7.7,7.1-14.1,15.9-18.6,25.4l-0.2-0.1
					c0,0.1,0,0.2,0.1,0.3l0,0l0,0c0.5,2.3,0.9,4.7,1.4,7.2c1.2,6.6,2.2,13,2.9,19.4c0.7-2.5,1.9-4.5,3.2-6.8
					c1.9-3.3,4.5-6.5,6.9-9.2c1.8-2,3.2-4.2,5-6.2l0.7,0.7c-1.8,1.9-3.6,3.9-5.4,6c-2.4,2.7-4.8,5.6-6.7,8.8
					c-1.6,2.8-2.7,5.7-3.3,8.8l-0.3-0.1c1.2,11.7,1.6,23,1.1,33.9c3.8-4.9,7.7-9.7,11.1-14.9c3.2-4.8,8-11.9,4.7-17.9
					C305.3,214,303.4,212.7,302.9,210.6z"/>
				<path fill="#1D7E8E" d="M285.5,194.1c-0.4-2.3-0.9-5.5-1.3-7.7c-9.7-6.2-20.9-9.6-32.3-11.5c0.3,0.9,0.6,1.8,1.1,2.7
					c2.6,4.7,8.2,8.5,6.9,14.5c-0.5,2.2-0.9,4.2-0.9,6.2c10.8,2.8,20.9,8.1,29.5,15.3C287.7,207.2,286.7,200.7,285.5,194.1z"/>
				<path fill="#00A09D" d="M289.3,214.8l0.3,0.1c0.6-3.1,1.8-6.1,3.3-8.8c1.9-3.3,4.3-6.2,6.7-8.8c1.8-2,3.6-4,5.4-6l-0.7-0.7
					c-1.8,1.9-3.6,4-5.4,6c-2.4,2.7-4.9,5.6-6.8,9c-1.3,2.3-2.3,4.7-3,7.2c-0.7-6.4-1.7-12.8-2.9-19.4c-0.5-2.4-0.9-4.8-1.4-7.2l0,0
					l0,0c0-0.1,0-0.2-0.1-0.3l0.2,0.1c4.4-9.5,10.9-18.2,18.6-25.4c0-0.3-0.1-0.5-0.1-0.8c0-0.1-0.1-0.2-0.1-0.3
					c-7.7,7.1-14.2,15.7-18.8,25.1c-1.5-7.3-3.1-14.2-4.8-20.7l0.4-0.3c-0.1-0.1-0.3-0.3-0.4-0.4c0.7-11.2,3.5-22.1,8.2-32.4
					l-0.9-0.4c-4.4,9.7-7.1,19.9-8.1,30.4c-2.6-9.5-5.5-18.2-8.7-26.4c-1.9-4.8-3.9-9.3-6-13.7c-0.3,0.1-0.6,0.2-0.9,0.4
					c2.1,4.3,4.1,8.9,6,13.7c3.3,8.4,6.2,17.3,8.9,27c-0.6-0.5-1.2-0.9-1.9-1.3c-0.5-0.3-1.1-0.7-1.8-1.1c-7.8-5.3-16.2-9.8-25-13.3
					c0.1,0.4,0.2,0.8,0.4,1.2c8.4,3.4,16.5,7.7,24.1,12.9c0.7,0.5,1.2,0.8,1.8,1.2c1.1,0.7,1.9,1.2,2.9,2.1c1.8,6.9,3.5,14.2,5.1,22
					c-9.8-6.1-20.9-10.3-32.2-12.1v0.2c0.1,0.3,0.1,0.6,0.2,0.9c11.4,1.9,22.6,6.2,32.3,12.4c0.4,2.2,0.9,4.5,1.3,6.8
					c1.2,6.6,2.2,13.1,2.9,19.5c-8.5-7.2-18.7-12.5-29.5-15.3c0,0.4,0,0.7,0,1.1c10.9,2.9,21,8.2,29.5,15.6l0.1-0.1
					c1.3,12.1,1.7,23.9,1.2,35.1c0,0.1,0,0.1,0,0.2c0,0.2,0,0.4,0,0.6c0.4-0.5,0.7-0.9,1.1-1.4C291,237.9,290.6,226.5,289.3,214.8z"
					/>
			</g>
			<g>
				<path fill="#00A09D" d="M298.4,229.4c0-2.3-0.4-4.6-1.2-6.8c-0.9-2.6-2.3-5-3.6-7.3c-1-1.7-2.1-3.4-3.1-5.1l0.9-0.5
					c1,1.7,2.1,3.4,3.1,5.1c1.4,2.3,2.8,4.8,3.7,7.5c0.6,1.6,0.9,3.3,1.1,5c1.4-4.3,2.9-8.7,4.6-13.1c0.7-1.8,1.4-3.5,2.1-5.2h-0.1
					c-1.9-7.5-5.3-14.6-9.9-20.9c-0.3,0.9-0.5,2-0.5,3c-0.1,1.8-0.2,3.6,0,5.4c0.2,1.9,1.1,4,0.5,5.9c-0.5,1.8-2.2,2.9-3.7,3.9
					c-3.2,2.2-5.2,6.1-4.3,10c0.5,2.5,2.7,5.5,1.5,8c-0.7,1.4-2.2,2.2-3.2,3.4c-3.2,3.9-0.7,9.7,1,13.7c1.7,4.2,3.9,8.1,5.9,12.2
					c1.2-7.9,3-16,5.5-24.2L298.4,229.4z"/>
				<path fill="#00A09D" d="M312.8,193.6l-0.2-0.3c0.1-0.1,0.2-0.1,0.3-0.2c1.3-8.2,0.5-16.5-1.4-24.5l1-0.2
					c1.8,7.4,2.4,15,1.7,22.5c3.1-6.3,6.3-12,9.7-17.3c2-3.2,4.1-6.2,6.2-9.1c-3.2-1.6-6.6,0.5-9.3,3.1c-1.7,1.6-3.6,1.5-5.5,1.2
					c-3-0.5-5.9-1.7-8.1,2.1c-2.4,4.2-1.4,9.1-5.8,12.2c-1.7,1.3-3.8,2.1-4.9,4c4.6,6.1,8,13.7,10,21
					C308.5,203.1,310.7,198,312.8,193.6z"/>
				<path fill="none" d="M294,255.5c-0.1-0.1-0.1-0.3-0.1-0.4v0.1C293.9,255.3,294,255.4,294,255.5z"/>
				<path fill="#00A09D" d="M314.5,192.4c0.4-0.2,0.8-0.3,1.3-0.5c0.4-0.2,0.9-0.3,1.4-0.6c6.4-2.8,13.2-4.9,20.1-6.2
					c0.4-1,0.7-2.1,0.5-3.4c-0.4-3.3-2.9-3.5-4.5-5.8c-1.8-2.6,1-6.6-1.1-9.3c-0.5-0.6-0.9-1-1.4-1.4c-2.1,2.8-4.2,5.9-6.2,9.1
					C321,179.9,317.7,185.9,314.5,192.4z"/>
				<path fill="#00A09D" d="M299.7,229.3c-2.5,8.2-4.4,16.3-5.6,24.2c0.9-1.9,4-3.8,5-4.9c3.2-3.4,6.7-5.7,10.6-8.1
					c1.7-1.1,3.3-2.7,3.3-4.7c0-1.3-0.7-2.5-0.5-3.8c0.4-3.6,4.8-4.5,7.4-6c1.8-1,2.7-2.4,3.2-3.9
					C314.9,222.7,306.8,225.2,299.7,229.3L299.7,229.3z"/>
				<path fill="#00A09D" d="M330.5,193.5c1.5-2.4,4.8-5,6.4-7.6c-6.6,1.3-13.4,3.3-19.5,6c-0.5,0.2-0.9,0.4-1.4,0.6
					c-0.9,0.3-1.6,0.6-2.5,1.1c-2.2,4.6-4.4,9.9-6.6,15.2c7.9-3,16.4-4.5,24.8-4.3v0.3c0.4-1.1,0.6-2.3,0.3-3.6
					C331.1,198.5,328.6,196.7,330.5,193.5z"/>
				<path fill="#00A09D" d="M304.5,214.7c-1.8,4.5-3.3,9-4.7,13.4c7.5-3.4,15.2-6.2,23.4-6.8c0.2-1.4,0.1-3,0.1-4.6
					c-0.1-4.6,4.5-6.5,7-9.6c0.4-0.5,0.8-1.1,1.1-1.7c-8.5-0.2-17.1,1.4-25,4.5C305.7,211.5,305.1,213.1,304.5,214.7z"/>
				<path fill="#1D7E8E" d="M307.4,208.6c2.2-5.3,4.4-10.3,6.6-14.9c0.8-0.5,1.5-0.8,2.4-1.1c0.4-0.2,0.9-0.4,1.5-0.6
					c6.1-2.7,12.5-4.7,19.1-6c0.2-0.4,0.4-0.8,0.6-1.2c-6.9,1.3-13.7,3.4-20.1,6.2c-0.5,0.2-1,0.4-1.4,0.6c-0.4,0.2-0.8,0.3-1.3,0.5
					c3.2-6.6,6.5-12.5,10-18c2-3.2,4.1-6.2,6.2-9.1c-0.3-0.2-0.6-0.4-0.9-0.5c-2.1,2.9-4.2,5.9-6.2,9.1c-3.4,5.3-6.6,11-9.7,17.3
					c0.7-7.6,0.1-15.1-1.7-22.5l-1,0.2c2,8,2.5,16.3,1.4,24.5c-0.1,0.1-0.2,0.1-0.3,0.2l0.2,0.3c-2.1,4.4-4.2,9.1-6.3,14.1
					c-2-7.4-5.5-14.4-10.1-20.5c-0.1,0.1-0.1,0.2-0.2,0.4s-0.2,0.5-0.3,0.7c4.6,6.2,8,13.4,9.9,20.9h0.1c-0.7,1.7-1.4,3.4-2.1,5.2
					c-1.7,4.4-3.3,8.8-4.6,13.1c-0.2-1.7-0.6-3.4-1.1-5c-0.9-2.7-2.3-5.2-3.7-7.5c-1-1.7-2.1-3.4-3.1-5.1l-0.9,0.5
					c1,1.6,2.1,3.4,3.1,5.1c1.3,2.3,2.7,4.7,3.6,7.3c0.8,2.2,1.2,4.5,1.2,6.8h0.2c-2.5,8.3-4.3,16.4-5.5,24.2c0.3,0.5,0.5,1,0.8,1.6
					v-0.1c-0.1-0.5,0-1,0.2-1.6c1.2-7.9,3.7-15.8,5.6-24.2l0,0c7.1-4.1,15.2-6.6,23.4-7.2c0.1-0.3,0.2-0.7,0.2-1
					c-8.1,0.5-16.1,2.9-23.3,6.9c1.4-4.4,2.9-8.9,4.7-13.4c0.6-1.6,1.3-3.2,1.9-4.7c7.9-3.1,16.5-4.7,25-4.5
					c0.1-0.2,0.2-0.5,0.3-0.8v-0.3C323.8,204.1,315.3,205.6,307.4,208.6z"/>
			</g>
			<polygon fill="#9D786A" points="274.1,254.6 313.3,254.6 306.4,293.8 281,293.8 			"/>
			<rect x="269.3" y="243.5" fill="#94624F" width="48.8" height="11"/>
			<polygon fill="#8B6858" points="312.4,259.8 275,259.8 274.1,254.6 313.3,254.6 			"/>
		</g>
		<g>
			<g>
				<rect x="25.8" y="270" fill="#94624F" width="54.4" height="5"/>
				<rect x="29.9" y="190.5" fill="#94624F" width="46.9" height="8"/>
				<rect x="16.3" y="185" fill="#9D786A" width="74.2" height="5.5"/>
				<polygon fill="#94624F" points="88.4,294 82.4,294 70.9,198.6 76.9,198.6 				"/>
				<polygon fill="#94624F" points="18.4,294 24.3,294 35.8,198.6 29.9,198.6 				"/>
				<rect x="51.3" y="190.5" fill="#9D786A" width="4.2" height="103.4"/>
			</g>
			<g>
				<g>
					<g>
						<path fill="#00A09D" d="M55.3,185h-9.8c-2.9,0-5.3-2.4-5.3-5.3v-23.9h20.3v23.9C60.5,182.7,58.2,185,55.3,185z"/>
						<path fill="#00A09D" d="M61.9,162.5c-4.9,0-8.8,4-8.8,9c0,4.9,4,9,8.8,9c4.9,0,8.8-4,8.8-9C70.8,166.5,66.8,162.5,61.9,162.5z
							 M61.9,177.2c-3.1,0-5.7-2.6-5.7-5.8s2.5-5.8,5.7-5.8c3.1,0,5.7,2.6,5.7,5.8S65.1,177.2,61.9,177.2z"/>
						<path fill="#67B7B4" d="M43.2,174L43.2,174c-0.6,0-1.1-0.5-1.1-1.1v-14.2c0-0.6,0.5-1.1,1.1-1.1l0,0c0.6,0,1.1,0.5,1.1,1.1
							v14.2C44.3,173.5,43.8,174,43.2,174z"/>
						<path fill="#1D7E8E" d="M55.8,155.9v24c0,2.8-2.3,5.1-5.1,5.1h4.7c2.8,0,5.1-2.3,5.1-5.1v-24H55.8z"/>
					</g>
				</g>
			</g>
		</g>
		<g>
			<path fill="#66BBC4" d="M140.5,257.6h73.4c20.4,0,36.8-16.7,36.5-37V118.5c-0.3-20-16.6-36-36.5-36h-72c-20,0-36.2,16-36.5,36
				l-1.4,102C103.7,240.9,120.1,257.6,140.5,257.6z"/>
			<path fill="#66A5AF" d="M140.5,258.1h73.4c20.4,0,36.8-16.7,36.5-37c0,0,0.3-58.2,0-71.7c-33.1,45.7-112.2,46.2-145.5,0.5
				c-0.3,17.8-1,71.2-1,71.2C103.7,241.4,120.1,258.1,140.5,258.1z"/>
			<path fill="#66BBC4" d="M123.3,196.6h108.8c0.8,0,1.5,0.7,1.5,1.5v25.3c0,0.8-0.7,1.5-1.5,1.5H123.3c-0.8,0-1.5-0.7-1.5-1.5
				v-25.3C121.8,197.2,122.5,196.6,123.3,196.6z"/>
			<path fill="#8ED2CC" d="M125.8,196.6H230c2.1,0,3.8,1.7,3.8,3.8H122C122,198.3,123.7,196.6,125.8,196.6z"/>
			<path fill="#66A5AF" d="M125.7,224.9h104.2c2.1,0,3.8-1.7,3.8-3.8H121.8C121.8,223.2,123.5,224.9,125.7,224.9z"/>
			<g>
				<rect x="97.6" y="261.2" fill="#94624F" width="161.6" height="14.3"/>
				<path fill="#94624F" d="M241.4,278.7c0,5.1,4.1,9.2,9.2,9.2c5.1,0,9.2-4.1,9.2-9.2s-4.1-9.2-9.2-9.2
					C245.5,269.6,241.4,273.7,241.4,278.7z"/>
				<circle fill="#94624F" cx="250.6" cy="287.9" r="5.6"/>
				
					<ellipse transform="matrix(0.9732 -0.2298 0.2298 0.9732 -61.2851 31.7568)" fill="#94624F" cx="105.7" cy="279" rx="9.2" ry="9.2"/>
				<path fill="#94624F" d="M100.1,288.2c0,3.1,2.5,5.6,5.6,5.6s5.6-2.5,5.6-5.6s-2.5-5.6-5.6-5.6
					C102.6,282.5,100.1,285.1,100.1,288.2z"/>
			</g>
			<g>
				<path fill="#00A09D" d="M108.4,151.3c0.4,1.9,8.5,37.5,8.9,40.3s-0.1,11.6-0.1,10.1c0-1.6-0.1,3.3,3,2.8
					c1.5-0.2,13.3-4,25.2-5.9s24.1-1.9,25.2-2.1c2.3-0.4,3.2-1.7,4-5.3s-4.5-18.3-5.3-23s-1.2-22.5-1.8-24.9c-0.7-3.1-3.7-4-6.2-3.7
					c-1.5,0.2-16.4,3.3-28,4.9c-11.5,1.6-19.7,1.6-20.9,1.7C109.8,146.6,108,149.3,108.4,151.3z"/>
				<path fill="#1D7E8E" d="M108.6,151.2c0.4,1.9,8.5,37.5,8.9,40.3s-0.1,11.6-0.1,10.1c0-1.6-0.1,3.3,3,2.8
					c1.5-0.2,13.3-4,25.2-5.9s24.1-1.9,25.2-2.1c2.3-0.4,3.2-1.7,4-5.3c0.4-1.6-0.5-5.6-1.7-9.8c-25,12.8-57.3,9.7-57.6-35.3
					c-1.5,0.1-2.6,0.1-2.9,0.2C110,146.5,108.2,149.3,108.6,151.2z"/>
			</g>
			<path fill="#7CCDBE" d="M94.1,170h16.6c6.1,0,11.1,5,11.1,11.1v44.3h111.8v-44.3c0-6.1,5-11.1,11.1-11.1h16.6
				c6.1,0,11.1,5,11.1,11.1v44.3l-2.6,32.2h-36.2H121.8H85.6L83,225.4v-44.3C83,175,88,170,94.1,170z"/>
			<path fill="#66A5AF" d="M95.5,267.3h164.7c5.4,0,9.7-4.3,9.7-9.7l0,0H85.8l0,0C85.8,262.9,90.2,267.3,95.5,267.3z"/>
			<path fill="#8ED2CC" d="M250.3,118.4c-0.3-20-19.8-45.7-60-45.7h-26.1c-39.2,0-58.7,25.5-58.7,45.7c38.2-10,26.9,15.6,72.3,15.6
				C223.1,134,216.1,111.4,250.3,118.4z"/>
			<ellipse fill="#66BBC4" cx="258.4" cy="182.8" rx="24.8" ry="24.8"/>
			
				<ellipse transform="matrix(0.7071 -0.7071 0.7071 0.7071 -53.5673 236.2323)" fill="#7CCDBE" cx="258.4" cy="182.8" rx="12.4" ry="12.4"/>
			<circle fill="#66BBC4" cx="97.1" cy="182.8" r="24.8"/>
			<ellipse fill="#7CCDBE" cx="97.1" cy="182.8" rx="12.4" ry="12.4"/>
			<path fill="#66A5AF" d="M173.5,103.4c0,2.4,1.9,4.3,4.3,4.3c2.4,0,4.3-1.9,4.3-4.3s-1.9-4.3-4.3-4.3
				C175.5,99,173.5,101,173.5,103.4z"/>
		</g>
		<g>
			<g>
				<path fill="#296484" d="M214.3,116.1c-6.1,2.5-13.9,1.7-19.3-2.1c-5.5-3.9-10.5-6.7-17.4-6.9c-4.3-0.1-8.3,1.7-12.4,2.7
					c-3.6,0.9-6.4,3.8-10.2,4.3c-5.1,0.7-10.4-2.4-12.7-7.1c-2.3-4.6-1.8-10.4,0.8-14.8c1.9-3.3,3.6-5.7,1.5-9.3
					c-0.5-0.8-1-1.5-1.4-2.4c-0.3-0.8-0.3-1.7-0.3-2.6c0.2-4.7,3.8-8.2,6.1-12.1c0.6-0.9,1.1-1.9,1.3-2.9c0.4-2.7-1.7-5-2.8-7.5
					c-3.7-8,2.6-17.1,8.7-21.9c3.6-2.8,7.9-4,11.8-6.3c1.8-1,3.4-2.3,5.2-3.4c3.1-1.8,6.5-1.8,10-1.4c9.9,1.4,21.1,8.6,23.4,18.9
					c1.6,7-1,15.1,5.9,20.1c2.1,1.5,4.7,2.4,6.2,4.5c3,4.5-1.4,11.2,1.3,15.9c0.6,1,1.5,1.9,2.4,2.7c4.4,4.6,6.7,11.2,6.1,17.6
					c-0.2,1.6-0.5,3.1-1.2,4.5c-1.1,1.9-2.8,3.2-4.6,4.4C220,113,217.4,114.8,214.3,116.1C214.4,116.1,214.3,116.1,214.3,116.1z"/>
				<path fill="#296484" d="M142.2,96.7c-0.6-1.7,0.4-3.2,1.4-4.6c0.4-0.6,0.8-1.2,1-1.8c0.7-1.5,0.7-3.3-0.1-4.8
					c-0.4-0.8-1-1.5-1.6-2.2s-1.2-1.4-1.6-2.2c-1-1.8-1.1-4.2-0.2-6c0.8-1.9,2.4-3.2,4-4.4c0.3-0.3,0.7-0.5,1-0.8
					c1.3-1.1,4.2-4.2,3.1-7.8c-0.4-1.4-1.2-2.7-1.9-4c-0.3-0.5-0.5-1-0.8-1.5c-1.5-2.9-2.3-5.8-2.4-8.5c-0.1-3.2,0.9-6.2,2.8-8.3
					c1.6-1.8,3.8-3,6.1-4.1c0.6-0.3,1.2-0.6,1.9-0.9c2.7-1.3,5.5-2.7,8.1-4.3c1.7-1.1,3.3-2.1,4.5-3.3c0.3-0.3,0.6-0.7,0.9-1
					c0.9-1,1.8-2,3.1-2.7c8.5-5.2,21.9-2.1,28.6,3.9c0.4,0.4,0.8,0.8,1.2,1.2c3.1,3.3,5.1,7.1,5.5,10.7s0.4,7.1,0.4,10.1
					c0,0.6,0,1.2,0,1.8c-0.1,1.9-0.1,3.5,0.6,5.3c1.1,2.9,2.4,4.6,4.2,5.5c0.8,0.4,1.7,0.6,2.7,0.8c0.7,0.2,1.4,0.3,2.1,0.6
					c3.3,1.2,5.7,4.4,5.8,7.9c0.1,1.9-0.5,3.7-1,5.5c-0.2,0.8-0.5,1.6-0.6,2.4c-0.8,3.4-0.5,8.1,2.7,10.8l-0.5,0.6
					c-3.4-3-3.8-7.9-3-11.6c0.2-0.8,0.4-1.6,0.7-2.4c0.5-1.8,1-3.4,1-5.2c-0.1-3.2-2.3-6.1-5.3-7.2c-0.7-0.2-1.4-0.4-2-0.5
					c-1-0.2-1.9-0.4-2.9-0.9c-2.7-1.3-3.9-4-4.6-6c-0.7-2-0.7-3.8-0.6-5.6c0-0.6,0-1.2,0-1.8c0-3-0.1-6.5-0.4-10
					c-0.3-3.4-2.3-7.1-5.2-10.2c-0.4-0.4-0.8-0.8-1.2-1.1c-6.5-5.8-19.5-8.8-27.6-3.8c-1.2,0.7-2,1.6-2.9,2.6c-0.3,0.3-0.6,0.7-1,1
					c-1.3,1.3-2.9,2.3-4.7,3.5c-2.6,1.6-5.4,3-8.2,4.4c-0.6,0.3-1.2,0.6-1.9,0.9c-2.2,1.1-4.3,2.2-5.8,3.9c-1.7,2-2.7,4.8-2.6,7.8
					c0.1,2.5,0.9,5.3,2.3,8.1c0.3,0.5,0.5,1,0.8,1.4c0.7,1.3,1.5,2.7,1.9,4.1c0.9,2.9-0.3,6-3.4,8.7c-0.3,0.3-0.6,0.6-1,0.8
					c-1.5,1.2-3,2.5-3.7,4.2c-0.8,1.7-0.7,3.7,0.2,5.3c0.4,0.7,0.9,1.4,1.5,2.1s1.3,1.5,1.7,2.4c0.8,1.7,0.9,3.7,0.1,5.5
					c-0.3,0.6-0.7,1.3-1.1,1.9c-0.9,1.3-1.7,2.6-1.3,3.9L142.2,96.7z"/>
				<path fill="#0B2D4E" d="M212.7,184.5c-0.9,2.3-2,4.3-3.1,5.9c-6.1,9-13.3,15.1-20.5,19.1c-6.4,3.5-13.1,3.4-19.7,2
					c-4.5-0.9-9-3.9-13.3-6.6c-4.5-2.8-8.8-6.2-13-10.6c-3.3-3.5-6.2-7.9-6.7-16.2c-0.2-3.3,0.1-6.9,1.3-9.1
					c1.4-2.7,3.6-2.6,5.5-2.3c10.8,1.8,21.3,9.5,32.3,9.7c6.1,0.1,11.8-3.3,17.6-6.3c4.5-2.3,9.5-4.9,14.2-4.4
					C211.7,166,215.9,176.1,212.7,184.5z"/>
				<path fill="#F8A17A" d="M145.9,165c-0.3-0.6-0.5-1.2-0.8-1.8c-2.8-6.3-4.9-12.9-6.1-19.7c-0.5-2.4-0.9-5.1-2.8-6.8
					c-2.6-2.3-7.6-2-10.8-1.5c-1.5,0.2-3.1,0.7-4,1.9c-1.5,2-1.3,6.5-1.4,8.9c-0.4,14.7,11.2,26.8,20.7,36.7
					c1.8,1.9,3.8,3.8,6.3,4.6s5.7,0,6.8-2.4c0.8-1.8,0.3-3.8-0.3-5.6c-1.1-3.1-2.8-6-4.6-8.7C147.6,168.8,146.7,167,145.9,165z"/>
				<path fill="#293559" d="M201.3,85.4c0.4,2.6,0.1,5.2-1,7.5c-3,6.3-10.5,7.5-16.8,7.8c-2.3,0.1-4.7,0-7-0.4c-2.1-0.3-3.9,0-6,0
					c-4.1-0.1-8.2-1.3-11.7-3.5c-1.7-1.1-3.3-2.4-4.2-4.2c-1.2-2.5-0.8-5.4-0.2-8.1c0.4-1.5,0.8-3.1,1.6-4.5
					c0.9-1.5,2.1-2.7,2.8-4.3c1.3-2.9,0.2-6.3,1.4-9.2c0.9-2.2,3.3-4.8,5.2-6.2c2.6-1.9,6-2.5,9.3-2.3c3.2,0.2,6.4,1.2,9.5,2.2
					c2.4,0.8,4.5,0.3,6.3,2.3c1.4,1.6,0.9,4.2,1.4,6.1C193.4,75.2,200.3,78.6,201.3,85.4z"/>
				<path fill="#FF7838" d="M156.6,114.2c-4.1,7.1-8.8,13.9-13.2,20.7c-2.5,3.8-5,7.7-6.3,12.1c-6.1-0.2-12.3-1.4-18.3-2.6
					c1-8.1,5.2-15.5,9.1-22.5c4-7.4,8.3-14.6,12-22.1c3.1-6.1,8.8-13.4,16.4-9.7c5.9,2.8,5,10.9,3.7,16.1
					C159.4,109,158.1,111.6,156.6,114.2z"/>
				<path fill="#F8A17A" d="M202.8,165c0.3-0.6,0.5-1.2,0.8-1.8c2.8-6.3,4.9-12.9,6.1-19.7c0.5-2.4,0.9-5.1,2.8-6.8
					c2.6-2.3,7.6-2,10.8-1.5c1.5,0.2,3.1,0.7,4,1.9c1.5,2,1.3,6.5,1.4,8.9c0.4,14.7-11.2,26.8-20.7,36.7c-1.8,1.9-3.8,3.8-6.3,4.6
					s-5.7,0-6.8-2.4c-0.8-1.8-0.3-3.8,0.3-5.6c1.1-3.1,2.8-6,4.6-8.7C201.1,168.8,202,167,202.8,165z"/>
				<path fill="#FF7838" d="M192.1,114.2c4.1,7.1,8.8,13.9,13.2,20.7c2.5,3.8,5,7.7,6.3,12.1c6.1-0.2,12.3-1.4,18.3-2.6
					c-1-8.1-5.2-15.5-9.1-22.5c-4-7.4-8.3-14.6-12-22.1c-3.1-6.1-8.8-13.4-16.4-9.7c-5.9,2.8-5,10.9-3.7,16.1
					C189.3,109,190.6,111.6,192.1,114.2z"/>
				<path fill="#EF5132" d="M204.9,171.8c-1.7-4.5-4.3-8.2-5.7-12.9c-2-6.3-3.4-15.4-1.1-21.9c2.4-7,5.4-12.5,5.6-20.2
					c0.2-6.6-1.2-13.2-2.5-19.7c-1.3-6.4-1.9-8.3-8.2-9.3c-2.2-0.3-4.4-1-6.7-1.4c-3.8-0.7-7.6-1-11.5-1l0,0c-0.1,0-0.1,0-0.2,0
					c-0.1,0-0.1,0-0.2,0l0,0c-3.8,0-7.7,0.3-11.5,1c-2.2,0.4-4.4,1-6.7,1.4c-6.3,1-6.9,2.8-8.2,9.3s-2.7,13-2.5,19.7
					c0.2,7.8,3.2,13.3,5.6,20.2c2.3,6.6,0.9,15.6-1.1,21.9c-1.5,4.7-4,8.4-5.7,12.9c-0.1,0.4-0.3,0.7-0.2,1.1c0.1,0.5,0.6,0.8,1,1
					c8.3,4.4,17.7,5.7,26.8,6.3c0.8,0.1,1.6,0.1,2.4,0.2l0,0c0.1,0,0.1,0,0.2,0c0.1,0,0.1,0,0.2,0l0,0c0.8-0.1,1.6-0.1,2.4-0.2
					c9.1-0.7,18.5-2,26.8-6.3c0.4-0.2,0.9-0.5,1-1C205.2,172.5,205,172.1,204.9,171.8z"/>
				<path fill="#F8A17A" d="M165.9,98c3.7,4.2,10.8,4.5,15.8,2.8c3.4-1.2,5.8-3.8,5.8-7.5c0.1-4.1-3.5-7-4.4-10.8
					c-0.5-2.2-0.5-4.4-0.4-6.6c0.1-2.6,0.1-5.2,0.2-7.7c-2.5-0.5-4.6-0.8-7.3-0.7c-2.2,0.1-4.5-0.1-6.7,0c-0.2,0-0.4,0-0.5,0.1
					s-0.2,0.3-0.2,0.5c-0.3,3.5,0,7-0.2,10.5c-0.2,3.2-0.9,6.4-2.8,9.1C162.8,90.8,163.4,95.2,165.9,98z"/>
				<g>
					<g>
						<path fill="#73B8D4" d="M172.7,30.9c1.9-1,4-1.4,6.1-1.5s4.2,0.2,6.3,0.6c4.1,0.9,8,3,11,6s5.1,6.9,5.7,11.1
							c0.3,2.1,0.2,4.2,0.2,6.3s0.2,4.2,1.1,6c0.9,1.8,2.4,3.3,4,4.5c1.7,1.2,3.5,2.2,5.3,3.3c0.9,0.6,1.8,1.1,2.5,2.1
							c0.7,0.9,0.8,2.1,0.8,3.1c0,1.1-0.1,2.1-0.4,3.2c-0.3,1-0.8,2-1.2,2.9s-0.7,1.9-0.6,2.9c0.1,1,0.4,2,0.9,2.9
							c0.9,1.9,2,3.7,2.9,5.6s1.6,3.9,1.8,6s-0.1,4.2-0.8,6.2c0.6-2,0.9-4.1,0.6-6.2c-0.2-2.1-0.9-4.1-1.9-5.9c-0.9-1.9-2-3.6-3-5.5
							c-0.5-1-0.8-2-0.9-3.1c-0.1-1.1,0.1-2.2,0.6-3.2c0.4-1,0.9-1.9,1.1-2.9c0.3-1,0.4-2,0.4-3s-0.2-2.1-0.7-2.8
							c-0.6-0.8-1.5-1.4-2.3-1.9c-1.8-1.1-3.6-2.1-5.4-3.3c-1.7-1.2-3.3-2.8-4.2-4.7c-0.9-2-1.1-4.2-1.1-6.3s0.1-4.2-0.2-6.2
							c-0.6-4.1-2.6-7.9-5.5-10.9s-6.6-5.1-10.7-6c-2-0.5-4.1-0.8-6.2-0.8C176.6,29.5,174.5,29.9,172.7,30.9z"/>
					</g>
				</g>
				<path fill="#E5785C" d="M182.9,81.9c-0.4-2-0.4-4.1-0.3-6.1c0.1-2.6,0.1-5.2,0.2-7.7c-2.5-0.5-4.6-0.8-7.3-0.7
					c-2.2,0.1-4.5-0.1-6.7,0c-0.2,0-0.4,0-0.5,0.1s-0.2,0.3-0.2,0.5c-0.3,3.5,0,7-0.2,10.5c-0.1,1-0.2,2-0.4,3
					c0.4,0.3,0.7,0.6,1.1,0.9c2.8,2,6.5,2.7,9.8,1.8C180,83.7,181.5,82.9,182.9,81.9z"/>
				<path fill="#F8A17A" d="M192.3,54.3c-0.1-3.4-0.6-6.6-1.5-9.3c-4-11.5-18.4-14.2-27-5.7c-9.6,9.4-5.5,31.5,4.8,39.2
					c2.8,2,6.5,2.7,9.8,1.8C188.4,77.4,192.6,65,192.3,54.3z"/>
				<path fill="#E5785C" d="M192.3,44.3c-3.1-11.8-17.4-15.5-26.5-7.7c-1.5,1.2-2.5,2.7-3.5,4.3c-0.9,1.3-2.1,2.4-2.9,3.8
					c-0.8,1.5-1.3,3.2-1.5,4.9s0.4,3.1,0.4,4.7c0-1.7,0.7-3.3,1.9-4.5c1-0.9,2.2-1.4,3.3-2s2.2-1.5,2.7-2.7
					c3.6,4.8,9.3,6.2,14.9,7.6c4.7,1.2,9.8,4.1,9.9,9.6c0,0.7,0.1,0.9,0.4,1.8c0.3-0.8,0.4-1.4,0.5-2.3c0.1-0.9,0.4-1.8,0.5-2.7
					c0.4-1.8,0.6-3.7,0.7-5.5C193.3,50.3,193,47,192.3,44.3z"/>
				<path fill="#296484" d="M195,64.5c0.9-0.7,1.6-1.7,2-2.8c1.2-3.7,1.1-7.7,1-11.6c-0.1-2.2-0.2-4.4-0.8-6.5
					c-0.7-2.3-1.9-4.3-3.4-6c-4.2-5-10.5-7.5-16.6-7c-2.4,0.2-4.2,1.4-6.4,2.4c-2.1,1-4.5,1.5-6.7,2.2c-2.5,0.8-5.1,1.7-7.2,3.5
					c-1.5,1.3-2.5,3-3.3,4.8c-0.9,2.2-1,4.5-0.7,6.8c0.2,1.9,0.5,3.9,1.3,5.7c0.8,1.7,2.5,2.7,4.1,3.6c-0.2-0.1,0-2.9,0-3.3
					c0-2.4,0.1-4.9,0.9-7.2c0.7-2.3,2.2-3.6,4.1-5c0.8-0.6,1.5-1.1,2.1-1.8c0.3-0.3,1.7-1.9,1.5-2.4c1.1,2.3,2.7,4.8,4.8,6.3
					c4,2.9,8.4,5,12.9,6.7c0.3,0.1,0.7,0.3,1,0.4c1.2,0.5,2.4,1.1,3.5,2c2.3,2.1,2.4,5.2,2.3,8.1c0,0.3,0,0.6,0.1,0.9
					C191.8,65.5,194.1,65.2,195,64.5z"/>
				<polygon fill="#B8D1CE" points="132.6,133.2 131.9,134.9 217.6,134.9 216.7,132.9 				"/>
				<path fill="#B8D1CE" d="M211.7,189h-73.9l-5.3-55c-0.1-1,0.7-1.8,1.6-1.8h81.2c1,0,1.7,0.9,1.6,1.8L211.7,189z"/>
				<path fill="#FFFFFF" d="M212.2,190.6h-75.1l-5.4-55c-0.1-1,0.7-1.8,1.7-1.8h82.5c1,0,1.8,0.9,1.7,1.8L212.2,190.6z"/>
				<rect x="137.2" y="190.6" fill="#B8D1CE" width="75" height="3.3"/>
				<ellipse fill="#B8D1CE" cx="174.7" cy="162.1" rx="5.2" ry="5.2"/>
				<path fill="#296484" d="M165.9,214.9c3.4-0.6,6.9-1.3,10.2-1.9c17-2.8,34.8-6.2,50.2-14.1c3.6-1.8,7.3-4.7,9.1-8.4
					c4.9-9.5-4.8-18.5-14.3-15.8c-15.8,4.5-29.5,14.3-44.7,20.7c-2.5,1.1-5.1,2.2-7.6,3.3c-2.2,1-4.4,1.9-6.6,2.9"/>
				<path fill="#F8A17A" d="M162.2,201.6c-2.5,1.1-5.1,2.1-7.6,3.1c-2.6,1-17.7,4.3-14.4,10c0.7,1.1,2.1,1.4,3.4,1.6
					c7.4,0.9,14.8-0.1,22.2-1.4"/>
				<path fill="#F8A17A" d="M149.1,216.7c-3.3,0.4-6.7,0.3-9.7,0.4c-1.4,0.1-2.7,0.2-4.1,0.1c-2.2,0-4.3-0.3-6.5-0.5
					c-1.6-0.2-3.1-0.4-4.7-0.5c-0.9-0.1-1.7-0.2-2.5-0.7c-0.9-0.6-1.3-1.6-1.7-2.5c-0.8-1.9-1.8-3.7-2.4-5.7
					c-0.4-1.3-0.8-2.5,0.1-3.7c0.4-0.6,1-1,1.6-1.4c0.8-0.5,1.6-1,2.4-1.3c2.9-1,5.5,0.1,8.2,1.1c2.8,1.1,5.6,2.3,8.6,2.9
					c3.2,0.7,6.5,0.9,9.7,1.1c2.6,0.2,6.6,0,8.8,1.7c0.9,0.7,2.2,2.3,2.1,3.5c0,1.5-1.8,2.8-3,3.4
					C154,215.9,151.6,216.5,149.1,216.7z"/>
				<path fill="#F8A17A" d="M164.4,270.4c1.7,2.8,3.9,5.4,5.7,7.9c0.8,1.1,1.6,2.2,2.4,3.3c1.4,1.7,2.9,3.2,4.4,4.8
					c1.1,1.1,2.2,2.2,3.3,3.4c0.6,0.6,1.2,1.2,2.1,1.5c1,0.3,2,0,3-0.2c3.7-1,7.2-1.1,7.3-5.8c0.1-3-1.1-6.4-3.6-8.1
					c-2.9-2-6.1-3.4-8.8-5.6c-2.5-2-4.7-4.5-6.9-6.9c-1.7-1.9-4.1-5.2-6.8-5.8c-1.1-0.2-3.2-0.2-4.1,0.5c-1.1,0.9-1.1,3.2-0.9,4.5
					C162,266,163,268.3,164.4,270.4z"/>
				<path fill="#D74034" d="M137.6,217.3c-2.8-0.6-6.2-1.6-7.9-3.9c-1.3-1.7-1.6-3.9-1.3-6.1c0.3-2.1,2.1-3.6,4.1-4.3
					c-4.6-3.1-9.2-3.7-13.8-2.5c-0.5,0.1-1,0.3-1.5,0.6c-6.4,3.1-3.3,11.1,1.3,14.3c2.1,1.5,4.6,2.3,7.1,2.5
					c2.1,0.2,3.4,0.1,5.5,0.1C133.4,217.9,134.7,217.5,137.6,217.3z"/>
				<path fill="#D74034" d="M170.9,279.5c2.2,1.8,5.1,3.9,8,3.8c2.2-0.1,4.1-1.2,5.6-2.7s1.5-3.9,0.8-5.9c5.3,1.7,8.6,4.9,10.5,9.3
					c0.2,0.5,0.4,1,0.5,1.5c1.5,7-6.6,9.5-12,7.8c-2.4-0.7-4.7-2.1-6.4-4c-1.4-1.5-2.2-2.6-3.5-4.3
					C172.9,283.2,172.4,281.9,170.9,279.5z"/>
				<path fill="#F8A17A" d="M166.4,244c1.3,5,2.6,10,4.2,14.9c0,0.1,0.1,0.2,0.1,0.3c0.7,2,1.6,4,2.3,6c0.4,1.3,0.8,2.6,1.1,3.9
					c0.1,0.6,0.2,1.3,0.3,1.9c0,0.3,0.1,0.6,0.1,0.9c-0.1,0.3-0.5,0.6-0.8,0.7s-0.6,0.2-1,0.2c-1.3,0.1-2.7-0.3-3.9-0.8
					c-0.8-0.3-1.5-0.6-2.3-0.9c-0.7-0.3-1.5-0.6-2.1-1c-0.3-0.2-0.5-0.6-0.7-0.9s-0.5-0.6-0.7-1c-0.5-0.7-0.9-1.3-1.4-2
					c-2.1-3.1-3.9-6.3-5.6-9.5c-1.7-3.2-3.4-6.5-5.2-9.7c-8.3-15.1-16.7-31.1-20.1-48.2c-0.8-3.9-0.8-8.6,0.9-12.3
					c4.5-9.7,17.5-7.7,21.2,1.4c6.3,15.2,7.1,32,11.5,47.9C165,238.6,165.7,241.3,166.4,244z"/>
				<path fill="#296484" d="M155.6,256.4c-1.6-3.1-3.2-6.2-4.9-9.2c-8.3-15.1-16.7-31.1-20.1-48.2c-0.8-3.9-0.8-8.6,0.9-12.3
					c4.5-9.7,17.5-7.7,21.2,1.4c6.3,15.2,7.1,32,11.5,47.9c0.7,2.6,1.4,5.3,2.1,8c0.6,2.3,1.2,4.7,1.9,7"/>
			</g>
		</g>
		<g>
			<g>
				<path fill="#0B2D4E" d="M230.2,287.2c-6.1-0.3-12.2,0.7-18.2,1.7c-1.9,0.3-3.9,1.4-2.5,3.6c0.8,1.2,2.4,1.6,3.9,1.8
					c6.3,0.7,12.8-0.1,19.1-0.1"/>
				<path fill="#061F33" d="M275.1,278.7c0.9,5.7-1.7,13.8-7.9,15.5c-2.5,0.7-5.5,0.4-8.1,0.4c-3.1,0-6.3,0-9.4-0.1
					c-6.1,0-12.3-0.1-18.4-0.1c-4.1,0-8.4-0.1-11.7-2.4c-4-2.7-6-7.6-3.3-11.8c2.3-3.6,6.6-5.9,10.7-6.7c6.9-1.5,14,0.5,20.8-0.7
					c1.1-0.2,2.2-0.5,3.3-0.9c6.2-2.2,12.3-5.3,18.6-1.7C272.6,272,274.5,275.2,275.1,278.7z"/>
				<path fill="#0B2D4E" d="M224.2,266.5c-1-1.1-1.7-1.3-2.3,0.2c-0.7,1.8-1.2,3.7-1.2,5.7c-2.6,0.5-5,1.7-7.1,3.4
					c-1.6-1.1-3.5-1.8-5.3-2.3c-1.6-0.4-1.8,0.3-1.5,1.7c0.4,1.8,1,3.5,1.6,5.3c0.4,1.1,0.7,2.2,1.1,3.3c0.3,1.1,0.8,2.2,1.5,3
					c1.8,2.2,5.4,3.5,8.1,3.9c3.1,0.4,6.1-0.4,8.2-2.8c1.9-2.1,3.2-5.1,3.7-7.9c0.3-1.6,0.1-3.3-0.4-4.8c-0.6-1.7-1.9-3-3-4.4
					C226.5,269.4,225.4,267.8,224.2,266.5z"/>
				<path fill="#0B2D4E" d="M270.5,274.2c5.9,5.6,5.3,12.1,2,17.8c-3.6,6.4-9.6,10.7-16.2,13.5c-7.8,3.3-16.8,5-25.2,3
					c-1.7-0.4-3.5-1.2-4-2.9c-1.5-4.9,6.2-4.8,8.9-5.1c5.6-0.5,11.6-0.5,17-2.4c6-2,10.3-6.3,13.3-11.8"/>
				<path fill="#0B2D4E" d="M274.8,283.2c0-2.6-0.9-5.3-2.6-7.3c-4.2-5.3-12.3-5.4-17.9-2.6c-6.4,3.3-7.4,11.9-4.9,18
					c0.1,0.3-2.2,0.2-2.4,0.2c-1.7,0.1-5.2-0.2-5.9,1.9c-0.5,1.4,0.5,3.3,1.9,3.7c0.6,0.2,1.2,0.2,1.8,0.2c4.4,0,8.8,0,13.2,0
					c3.4,0,6-0.6,8.1-3.6c1.1-1.5,1.9-3.2,3-4.7"/>
				<path fill="#061F33" d="M223.5,285.2c0.2,0.6-0.2,1.4-0.9,1.7c-0.7,0.3-1.6,0-1.8-0.6s0.2-1.4,0.9-1.7
					C222.5,284.3,223.3,284.5,223.5,285.2z"/>
			</g>
			<g>
				<path fill="#73B8D4" d="M229.7,273.4c0.2,0.4,0.5,0.7,0.7,1.1c0.1,0.2,0.2,0.4,0.3,0.6s0.2,0.4,0.2,0.6c0.1,0.4,0.2,0.9,0.2,1.3
					c0.1,0.4,0.1,0.9,0.1,1.3c0.1,0.9,0,1.8-0.2,2.7c-0.1,0.9-0.4,1.7-0.7,2.6c-0.3,0.8-0.7,1.6-1.2,2.4c-0.5,0.7-1,1.5-1.7,2.1
					c-0.6,0.6-1.3,1.2-2.1,1.7c-0.4,0.2-0.8,0.4-1.2,0.5s-0.9,0.2-1.3,0.1c0.9,0,1.7-0.4,2.3-0.9c0.3-0.3,0.7-0.5,1-0.8
					c0.2-0.1,0.3-0.3,0.5-0.5c0.1-0.2,0.3-0.3,0.4-0.5c0.6-0.6,1.1-1.3,1.5-2.1c0.4-0.7,0.8-1.5,1.1-2.3c0.6-1.6,0.9-3.3,1-5
					c0-0.4,0-0.8,0-1.3c0-0.4,0-0.9-0.1-1.3c0-0.2-0.1-0.4-0.1-0.6c-0.1-0.2-0.1-0.4-0.2-0.6C230.1,274.2,229.8,273.8,229.7,273.4z"
					/>
			</g>
		</g>
	</g>
	<g>
		<g>
			
				<ellipse transform="matrix(5.255774e-02 -0.9986 0.9986 5.255774e-02 -251.8399 298.1527)" fill-rule="evenodd" fill="#FFFFFF" cx="31.2" cy="281.8" rx="28.2" ry="28.2"/>
			<path fill="#296484" d="M31.2,312.8c-17.1,0-31-13.9-31-31s13.9-31,31-31s31,13.9,31,31S48.3,312.8,31.2,312.8z M31.2,256.4
				c-14,0-25.4,11.4-25.4,25.4s11.4,25.4,25.4,25.4s25.4-11.4,25.4-25.4S45.1,256.4,31.2,256.4z"/>
		</g>
		<path fill="#296484" d="M46.8,275.2c1.2,1.8,1.9,3.9,2.2,6.1c0.2,2.2,0.1,4.5-0.6,6.7c-1.3,4.4-4.4,8.2-8.5,10.4
			c-4.1,2.2-9.1,2.6-13.4,1.2s-8-4.6-9.6-8.6c2.9,3.2,6.5,5.3,10.3,6s7.8,0.2,11.1-1.6c3.4-1.8,6.1-4.7,7.6-8.3
			c0.8-1.8,1.2-3.7,1.4-5.7C47.5,279.3,47.3,277.3,46.8,275.2z"/>
	</g>
</g>
</svg>
