<?xml version="1.0" encoding="utf-8"?>
<!-- Generator: Adobe Illustrator 24.3.0, SVG Export Plug-In . SVG Version: 6.00 Build 0)  -->
<svg version="1.2" baseProfile="tiny" id="Layer_1" xmlns="http://www.w3.org/2000/svg" xmlns:xlink="http://www.w3.org/1999/xlink"
	 x="0px" y="0px" viewBox="0 0 342.6 341.7" overflow="visible" xml:space="preserve">
<g>
	<circle fill-rule="evenodd" fill="#F1D283" cx="166.2" cy="175.5" r="166.2"/>
	<g>
		<path fill="#2B6584" d="M270.2,62.2c-8.4,0-15.2-6.8-15.2-15.2s6.8-15.2,15.2-15.2s15.2,6.8,15.2,15.2S278.5,62.2,270.2,62.2z
			 M270.2,34.5c-6.9,0-12.4,5.6-12.4,12.4s5.6,12.4,12.4,12.4s12.4-5.6,12.4-12.4S277,34.5,270.2,34.5z"/>
		<path fill="#2B6584" d="M277.8,43.7c1.1,1.8,1.4,4.1,0.8,6.3c-0.6,2.2-2.2,4-4.2,5.1c-2,1.1-4.4,1.3-6.6,0.6
			c-2.1-0.7-3.9-2.3-4.7-4.2c1.4,1.6,3.2,2.6,5.1,2.9c1.9,0.4,3.8,0.1,5.5-0.8c1.7-0.9,3-2.3,3.7-4
			C278.1,47.8,278.3,45.8,277.8,43.7z"/>
	</g>
	<g>
		<path fill="#2B6584" d="M310.8,116c-8.4,0-15.2-6.8-15.2-15.2s6.8-15.2,15.2-15.2s15.2,6.8,15.2,15.2S319.2,116,310.8,116z
			 M310.8,88.4c-6.9,0-12.4,5.6-12.4,12.4s5.6,12.4,12.4,12.4s12.4-5.6,12.4-12.4S317.7,88.4,310.8,88.4z"/>
		<path fill="#2B6584" d="M318.5,97.6c1.1,1.8,1.4,4.1,0.8,6.3c-0.6,2.2-2.2,4-4.2,5.1c-2,1.1-4.4,1.3-6.6,0.6
			c-2.1-0.7-3.9-2.3-4.7-4.2c1.4,1.6,3.2,2.6,5.1,2.9c1.9,0.4,3.8,0.1,5.5-0.8c1.7-0.9,3-2.3,3.7-4C318.8,101.6,319,99.6,318.5,97.6
			z"/>
	</g>
	<g>
		<g>
			<circle fill-rule="evenodd" fill="#FFFFFF" cx="49.5" cy="119.7" r="18.9"/>
			<path fill="#2B6584" d="M49.5,140.4c-11.4,0-20.8-9.3-20.8-20.8S38,98.9,49.5,98.9s20.8,9.3,20.8,20.8S60.9,140.4,49.5,140.4z
				 M49.5,102.7c-9.4,0-17,7.6-17,17s7.6,17,17,17s17-7.6,17-17S58.9,102.7,49.5,102.7z"/>
		</g>
		<path fill="#2B6584" d="M60,115.2c1.6,2.4,1.9,5.6,1.1,8.6c-0.4,1.5-1.2,2.8-2.1,4c-1,1.2-2.2,2.2-3.6,2.9c-2.8,1.5-6.1,1.7-9,0.8
			c-2.9-0.9-5.3-3.1-6.4-5.7c1.9,2.1,4.3,3.5,6.9,4c1.3,0.2,2.6,0.3,3.8,0.1c1.3-0.2,2.5-0.6,3.6-1.2c2.3-1.2,4.1-3.1,5.1-5.5
			C60.4,120.8,60.6,118,60,115.2z"/>
	</g>
	<ellipse fill="#F0AF04" cx="166.5" cy="269.5" rx="116.9" ry="22"/>
	<g>
		<path fill="#2B6584" d="M99.5,106.2l-3.7-0.8c0.1-0.4,9.9-42.7,36.8-85c9.2-14.5,17.9-21.2,25.9-20.1c11.2,1.6,16.2,18.3,16.4,19
			l-3.6,1c0-0.2-4.4-15-13.3-16.3c-6.3-0.9-14,5.4-22.2,18.4C109.2,64.1,99.6,105.8,99.5,106.2z"/>
		<path fill="#2B6584" d="M63.9,164.4l-3.6-1C84.4,74.9,103.7,41.7,121,19.1c15.3-20.1,46.2-0.6,46.5-0.4l-2,3.2
			c-0.1,0-7.3-4.6-16.1-6.9C138,12,129.4,14.2,124,21.3C106.9,43.7,87.9,76.5,63.9,164.4z"/>
		<path fill="#FFFFFF" d="M287.8,188.3c0-30.4-79.6-134.3-107.7-164.1c-5.6-5.9-14.9-5.9-20.5,0C131.4,54,51.8,157.9,51.8,188.3
			c0,45.7,0,77.7,118,77.7S287.8,225.6,287.8,188.3z"/>
		<path fill="#E6E5E5" d="M150.1,53.6c0,0-58.9,97.9-63,115.6S129.5,105.3,150.1,53.6z"/>
		<path fill="#E6E5E5" d="M193.1,73.3c0,0,30.6,89.4,41.2,88.6C245,161.1,193.1,73.3,193.1,73.3z"/>
		<g>
			<path fill-rule="evenodd" fill="#2B6584" d="M166.1,233.9c-27.2,0.3-50.6-22.3-50.3-50.7c0.2-26.9,22-49.8,50.3-49.8
				c28.1,0,50.3,22.7,50.3,50.4C216.3,212.1,193,234.2,166.1,233.9z M179.4,153.8c-0.2,0-0.2,0.1-0.3,0.1c-0.2,0-0.3-0.1-0.5-0.1
				c-6.9-2.6-13.9-3.3-21.2-2.3c-5.9,0.8-11.5,2.7-16.5,6c-7.6,5.1-12.3,12.4-15.1,21c-1.7,5.4-2.2,10.9-1.9,15.9
				c0-3.4,0.5-7.3,1.8-11.1c1.8-5.4,4.8-9.8,9.6-12.9c0.3-0.2,0.6-0.3,1.1-0.5c-0.1,0.4-0.2,0.6-0.3,0.8c-1.7,3.6-2.4,7.3-2.6,11.2
				c-0.3,5.5,0.3,10.9,1.6,16.2c1.2,5.4,3.5,10.3,7.1,14.6c7.3,8.6,16.9,12.3,27.9,13.1c2.6,0.2,5.2,0,7.8,0
				c-3.1-0.2-6.2-0.4-9.2-0.9c-3.7-0.6-7.2-1.6-10.4-3.6c-2.7-1.6-4.8-3.7-5.7-6.8c-0.1-0.3-0.1-0.6-0.2-1c0.3,0.1,0.5,0.1,0.6,0.2
				c6,2.2,12.3,3.1,18.7,2.6c5.4-0.4,10.6-1.6,15.4-4.1c8.5-4.5,14.4-11.4,18.2-20.2c2.9-6.8,3.5-13.9,2.6-21.4
				c0.1,5.2-0.5,10.2-2.2,15c-1.7,4.7-4.4,8.7-8.7,11.4c-0.3,0.2-0.7,0.3-1.2,0.6c0.1-0.5,0.2-0.8,0.2-1.1c2.1-6.2,2.9-12.5,2.5-19
				c-0.4-5.7-1.8-11.1-4.3-16.2c-2.6-5.2-6.5-9.3-11.2-12.6c-5.9-4.2-12.5-6.5-19.7-7c-3.5-0.3-7,0-10.4,0c2,0.3,3.9,0.5,5.9,0.7
				c4.4,0.5,8.7,1.4,12.8,3.1c2.5,1,4.8,2.3,6.5,4.5C178.8,151.1,179.3,152.4,179.4,153.8z"/>
			<path fill-rule="evenodd" fill="#2B6584" d="M150.6,205.1c0.2-1.1,0.3-2.1,0.5-3c0.8-4.5,1.6-9.1,2.4-13.6c0.1-0.7,0-1.2-0.5-1.7
				c-3.8-3.6-7.5-7.3-11.2-10.9c-0.2-0.2-0.5-0.5-0.8-0.9c0.7-0.1,1.3-0.3,1.8-0.4c4.9-0.7,9.9-1.4,14.8-2.1
				c0.8-0.1,1.2-0.5,1.6-1.2c2.2-4.7,4.5-9.3,6.8-13.9c0.2-0.3,0.4-0.6,0.6-1.1c0.3,0.6,0.5,0.9,0.7,1.3c2.3,4.6,4.6,9.3,6.8,13.9
				c0.3,0.6,0.7,0.8,1.3,0.9c3.3,0.5,6.7,1,10,1.4c2.1,0.3,4.1,0.6,6.2,0.9c0.2,0,0.3,0.1,0.6,0.3c-0.4,0.4-0.7,0.8-1.1,1.2
				c-3.7,3.6-7.3,7.1-11,10.7c-0.4,0.4-0.6,0.8-0.5,1.4c1,5.4,1.9,10.8,2.8,16.3c0,0.1,0,0.2,0,0.5c-0.4-0.2-0.8-0.3-1.1-0.5
				c-4.6-2.4-9.2-4.8-13.8-7.3c-0.7-0.4-1.2-0.3-1.9,0c-4.7,2.5-9.4,5-14.1,7.4C151.2,204.9,151,205,150.6,205.1z"/>
		</g>
		<path fill-rule="evenodd" fill="#2B6584" d="M158.1,13.2l-3.3,5.7c-0.9,1.5-2.8,2-4.3,1.2l-0.4-0.2c-1.5-0.9-2-2.8-1.2-4.3
			l3.3-5.7c0.9-1.5,2.8-2,4.3-1.2l0.4,0.2C158.5,9.7,159,11.6,158.1,13.2z"/>
		<path fill-rule="evenodd" fill="#2B6584" d="M174.2,12.6l-6,2.6c-1.6,0.7-3.5,0-4.2-1.6l-0.2-0.4c-0.7-1.6,0-3.5,1.6-4.2l6-2.6
			c1.6-0.7,3.5,0,4.2,1.6l0.2,0.4C176.5,10,175.8,11.9,174.2,12.6z"/>
		<path fill="#E6E5E5" d="M169.8,36.3c0,0,1.1,50.8,6.8,62.7C182.4,111,178,64,169.8,36.3z"/>
	</g>
	<g>
		<g>
			<circle fill-rule="evenodd" fill="#FFFFFF" cx="32.5" cy="255.3" r="28.2"/>
			<path fill="#2B6584" d="M32.5,286.3c-17.1,0-31-13.9-31-31c0-17.1,13.9-31,31-31s31,13.9,31,31C63.5,272.4,49.6,286.3,32.5,286.3
				z M32.5,229.9c-14,0-25.4,11.4-25.4,25.4c0,14,11.4,25.4,25.4,25.4c14,0,25.4-11.4,25.4-25.4C57.9,241.3,46.5,229.9,32.5,229.9z"
				/>
		</g>
		<path fill="#2B6584" d="M48.2,248.7c1.2,1.8,1.9,3.9,2.2,6.1c0.2,2.2,0.1,4.5-0.6,6.7c-1.3,4.4-4.4,8.2-8.5,10.4
			c-4.1,2.2-9.1,2.6-13.4,1.2c-4.3-1.4-8-4.6-9.6-8.6c2.9,3.2,6.5,5.3,10.3,6c3.8,0.7,7.8,0.2,11.1-1.6c3.4-1.8,6.1-4.7,7.6-8.3
			c0.8-1.8,1.2-3.7,1.4-5.7C48.8,252.8,48.6,250.7,48.2,248.7z"/>
	</g>
	<g>
		<g>
			<circle fill-rule="evenodd" fill="#FFFFFF" cx="311.5" cy="197.3" r="28.2"/>
			<path fill="#2B6584" d="M311.5,228.4c-17.1,0-31-13.9-31-31c0-17.1,13.9-31,31-31c17.1,0,31,13.9,31,31
				C342.5,214.4,328.6,228.4,311.5,228.4z M311.5,172c-14,0-25.4,11.4-25.4,25.4s11.4,25.4,25.4,25.4s25.4-11.4,25.4-25.4
				S325.5,172,311.5,172z"/>
		</g>
		<path fill="#2B6584" d="M327.1,190.7c1.2,1.8,1.9,3.9,2.2,6.1c0.2,2.2,0.1,4.5-0.6,6.7c-1.3,4.4-4.4,8.2-8.5,10.4
			c-4.1,2.2-9.1,2.6-13.4,1.2c-4.3-1.4-8-4.6-9.6-8.6c2.9,3.2,6.5,5.3,10.3,6c3.8,0.7,7.8,0.2,11.1-1.6c3.4-1.8,6.1-4.7,7.6-8.3
			c0.8-1.8,1.2-3.7,1.4-5.7C327.8,194.9,327.6,192.8,327.1,190.7z"/>
	</g>
	<path fill="#E6E5E5" d="M57.2,169.1c0,0-1.4,43.7,31.8,56.4c33.2,12.7,45.9,10,51.9,14.6c6,4.6,42.2,14.2,56.3,3.6
		c14.1-10.6,41.7-1,52.3-1s24.6-2.6,24.6-2.6s-22,29.5-107.5,25.9c0,0-81.3,2.7-102.3-24.1C64.2,241.9,36.4,206.6,57.2,169.1z"/>
</g>
</svg>
