<?xml version="1.0" encoding="utf-8"?>
<!-- Generator: Adobe Illustrator 24.3.0, SVG Export Plug-In . SVG Version: 6.00 Build 0)  -->
<svg version="1.2" baseProfile="tiny" id="Layer_1" xmlns="http://www.w3.org/2000/svg" xmlns:xlink="http://www.w3.org/1999/xlink"
	 x="0px" y="0px" viewBox="0 0 342.6 341.7" overflow="visible" xml:space="preserve">
<path fill="#FFFFFF" d="M33.2,33.6H76c0,0-5.7-7.7-8.1-3.2c0,0-13.4-15.7-21.1-11.2c-5.3,3.1-1.3,9.9-1.3,9.9S28.8,25.4,33.2,33.6z"
	/>
<path fill="#F1D384" d="M250.2,294.4c-23.8,0.6-51.4,0.9-80.7,0.9c-1.6,0-3.2,0-4.8,0c-1.6,0-3.2,0-4.9,0c-28.7,0-55.8-0.3-79.3-0.9
	c-0.2-0.1-0.3-0.2-0.5-0.4c-9.8-0.3-18.9-0.6-27.1-1c30.1,30,71.6,48.6,117.4,48.6c45.9,0,87.4-18.6,117.5-48.7
	c-11,0.5-23.7,0.9-37.7,1.3C250.3,294.3,250.3,294.4,250.2,294.4z"/>
<path fill="#F1D384" d="M64.9,282c26.8-0.9,59.6-1.4,94.9-1.4c1.6,0,3.2,0,4.8,0c1.6,0,3.2,0,4.8,0c36,0,69.2,0.5,96.2,1.5
	c0,0,0.1-0.1,0.1-0.1c11.6,0.4,22.1,0.8,31.1,1.3c24.8-29,39.8-66.7,39.8-107.9c0-91.8-74.4-166.2-166.2-166.2S4.3,83.7,4.3,175.5
	c0,41.1,14.9,78.7,39.7,107.8c6.4-0.3,13.5-0.7,21.2-1C65.1,282.2,65,282.1,64.9,282z"/>
<path fill="#A5BECC" d="M296.9,283.4c-2.8,3.3-5.8,6.6-8.9,9.7c28.4-1.3,45.9-3.1,45.9-5.1C333.9,286.2,320.1,284.6,296.9,283.4z"/>
<path fill="#A5BECC" d="M44,283.2c-24.2,1.3-38.8,3-38.8,4.7c0,2,18.3,3.8,47.9,5.1C49.9,289.9,46.9,286.6,44,283.2z"/>
<path fill="#A5AC88" d="M296.9,283.4c-9-0.5-19.5-0.9-31.1-1.3c0,0-0.1,0.1-0.1,0.1c-27-0.9-60.2-1.5-96.2-1.5c-1.6,0-3.2,0-4.8,0
	c-1.6,0-3.2,0-4.8,0c-35.3,0-68.1,0.5-94.9,1.4c0.1,0.1,0.2,0.2,0.3,0.2c-7.7,0.3-14.8,0.6-21.2,1c2.9,3.4,5.9,6.7,9.1,9.8
	c8.2,0.4,17.3,0.7,27.1,1c0.2,0.1,0.3,0.2,0.5,0.4c23.5,0.6,50.5,0.9,79.3,0.9c1.6,0,3.3,0,4.9,0c1.6,0,3.2,0,4.8,0
	c29.3,0,56.9-0.3,80.7-0.9c0,0,0.1-0.1,0.1-0.1c14-0.3,26.6-0.8,37.7-1.3C291.1,289.9,294.1,286.7,296.9,283.4z"/>
<path fill="#DDAE8E" d="M221,163.8c-0.1-1.5,0.8-3,2.1-3.6c1.3-0.5,3.9-0.2,5.7,1.8c4.5,4.8,2.1,29.9,2.1,29.9h-7.9L221,163.8
	L221,163.8z"/>
<path fill="#C69473" d="M220.9,191.9l0.9-12.7c0.2-2.1,0.1-4.1-0.1-6.2l-0.8-9.7c0-1.5,0.9-2.9,2.4-3.3c0.7-0.2,1.4-0.1,2,0.4
	c4.2,3.7,2.1,31.4,2.1,31.4L220.9,191.9L220.9,191.9z"/>
<path fill="#4C2B27" d="M268.5,181.4c1.9,2.6,3.6,6.6,3.9,10.5h-5.6c0.4-3.5,0.1-6.3-0.5-9.1C265.9,180.8,267.4,180,268.5,181.4
	L268.5,181.4z"/>
<path fill="#D2E3F3" d="M212,266.2H9.7c-1.1,0-2.1-0.9-2.1-2.1V98.8c0-1.1,0.9-2.1,2.1-2.1H208c3.3,0,6.1,2.7,6.1,6.1v161.3
	C214.2,265.2,213.2,266.2,212,266.2z"/>
<path fill="#A0C4E6" d="M189.3,96.7c2.1,9.2,3.2,18.7,3.2,28.5c0,77.9-69.7,141.1-155.8,141.1h177.5V102.9c0-3.4-2.8-6.3-6.3-6.3
	L189.3,96.7L189.3,96.7z"/>
<path fill="#A0C4E6" d="M329.8,206.3c-1-1.3-2.3-2.6-3.9-3.6c-8.4-5.7-17.8-6.5-17.8-6.5l-43.2-50.1c-2.1-2.4-5.1-3.9-8.4-3.9h-42.4
	v123.9h120.2v-46.8C334.3,214.6,332.8,210,329.8,206.3L329.8,206.3z M286,191.9h-64.2v-41.3h29.1c3.4,0,6.7,1.5,8.9,3.9l26.2,29.2
	V191.9L286,191.9z"/>
<path fill="#4C2B27" d="M334.3,226.1c0,0-3.9,1.5-3.9,8.5c0,7.4,3.9,8.5,3.9,8.5V226.1z"/>
<path fill="#FCCF39" d="M334.3,226.1c0,0-1.2,3-1.2,8.3c0,5.4,1.2,8.7,1.2,8.7s3.7-0.7,5.1-2.8c2.1-3.4,2.1-8.6-0.3-11.3
	C336.7,226.2,334.3,226.1,334.3,226.1L334.3,226.1z"/>
<path fill="#FFFFFF" d="M338.9,229.6c0.8,1.3,0.9,2.6,0.3,3c-0.6,0.4-1.8-0.3-2.6-1.5c-0.8-1.3-0.9-2.6-0.3-3
	C336.9,227.6,338,228.3,338.9,229.6z"/>
<path fill="#FCA328" d="M337.3,238.1c-2.3-0.5-3.9-3.2-4.1-6.6c-0.1,0.9-0.2,1.9-0.2,3c0,5.4,1.2,8.7,1.2,8.7s3.7-0.7,5.1-2.8
	c0.5-0.9,0.9-1.9,1.2-2.9C339.6,238,338.5,238.3,337.3,238.1z"/>
<path fill="#184655" d="M336.1,254h-20c-0.9-2.5-2.1-5.1-3.9-7.5c-8.6-12.2-28.6-15.7-41.3-6.3c-10.3,7.7-11.8,19.9-11.8,19.9H110
	c0,0-1-7.3-5.4-13.6c-8.6-12.2-28.6-15.7-41.3-6.3c-5.7,4.2-8.8,9.3-10.5,13.9H7c-8.9,0-9.3,13.6,0.6,13.8l0,0h0.3h42.9h4h56.1
	h147.5h55.7h4.4h17.2h1.4v-0.1C344.8,266.4,344.4,254,336.1,254z"/>
<ellipse fill="#404040" cx="81.1" cy="266.3" rx="24.7" ry="23.9"/>
<ellipse fill="#FFFFFF" cx="81.1" cy="265.9" rx="16.5" ry="16"/>
<ellipse fill="#B3B3B3" cx="81.3" cy="266" rx="13.4" ry="13"/>
<ellipse fill="#FFFFFF" cx="81.1" cy="265.9" rx="6.4" ry="6.3"/>
<ellipse fill="#CCCCCC" cx="81.1" cy="265.9" rx="4.6" ry="4.5"/>
<ellipse fill="#404040" cx="287.8" cy="266.3" rx="24.7" ry="23.9"/>
<ellipse fill="#FFFFFF" cx="287.8" cy="265.9" rx="16.5" ry="16"/>
<ellipse fill="#B3B3B3" cx="288" cy="266" rx="13.4" ry="13"/>
<ellipse fill="#FFFFFF" cx="287.8" cy="265.9" rx="6.4" ry="6.3"/>
<ellipse fill="#CCCCCC" cx="287.8" cy="265.9" rx="4.6" ry="4.5"/>
<path fill="#FAE0B2" d="M311.8,199.8c-1.1,0.1-2,0.4-2.4,1c-1.4,1.7,3,5.8,8.9,12.4c6.5,7.2,9.9,10.4,12.4,10.2
	c0.3,0,0.7-0.1,0.9-0.3c2-1.1,1.3-10.3-4.8-16.9C322.2,201.3,315.3,199.5,311.8,199.8L311.8,199.8z"/>
<path fill="#FFFFFF" d="M266.6,241.6c0,0-0.9,0.1-2.1,0.3c-0.7,0.1-1.4,0.2-2.2,0.2c-0.8,0.1-1.7,0.1-2.6,0.2
	c-0.9,0.1-1.7,0.2-2.6,0.3c-0.8,0-1.5-0.1-2.2-0.2c-0.3-0.1-0.6-0.2-0.9-0.2c-0.3-0.1-0.5-0.2-0.7-0.2c-0.3-0.1-0.6-0.3-0.6-0.3
	l-0.1-0.1c0,0,0-0.1,0.1-0.1c0,0,0.3-0.1,0.6-0.3c0.2-0.1,0.4-0.2,0.7-0.2c0.3-0.1,0.6-0.2,0.9-0.2c0.7-0.1,1.4-0.2,2.2-0.2
	c0.8,0,1.7,0.2,2.6,0.3c0.9,0.1,1.7,0.1,2.6,0.2c0.8,0.1,1.5,0.2,2.2,0.2C265.7,241.4,266.6,241.6,266.6,241.6
	C266.6,241.4,266.6,241.4,266.6,241.6C266.6,241.5,266.6,241.6,266.6,241.6z"/>
<path fill="#FFFFFF" d="M289.7,233.1c0,0-3.3,0.1-8.4,0.3c-1.3,0-2.7,0.1-4.1,0.1c-1.5,0-3,0.1-4.5,0.1c-3.2,0.1-6.5,0.2-9.9,0.3
	c-1.7,0.1-3.3,0.1-5.1,0.2c-1.6,0.1-3.3,0.1-4.9,0.1c-1.5,0-3.1,0-4.5-0.1c-0.7,0-1.5-0.1-2.1-0.1s-1.4-0.1-2-0.1
	c-1.3-0.1-2.4-0.2-3.4-0.2c-1-0.1-1.9-0.2-2.7-0.3c-0.8-0.1-1.3-0.1-1.7-0.2c-0.4-0.1-0.6-0.1-0.6-0.1l-0.1-0.1c0-0.1,0-0.1,0.1-0.1
	c0,0,0.2,0,0.6-0.1c0.4-0.1,0.9-0.1,1.7-0.2c0.8-0.1,1.6-0.2,2.7-0.3c1-0.1,2.1-0.2,3.4-0.2c0.6,0,1.3-0.1,2-0.1s1.4-0.1,2.1-0.1
	c1.5-0.1,3-0.1,4.5-0.1s3.2,0.1,4.9,0.1c1.6,0.1,3.3,0.1,5.1,0.2c3.3,0.1,6.7,0.2,9.9,0.3c1.5,0,3.1,0.1,4.5,0.1s2.8,0.1,4.1,0.1
	c5.1,0.2,8.4,0.3,8.4,0.3V233.1C289.8,233.1,289.8,233.1,289.7,233.1z"/>
<path fill="#FFFFFF" d="M52.2,244.2c0,0-1.5,0.1-3.6,0.3c-1.1,0.1-2.4,0.2-3.7,0.3c-1.4,0.1-2.8,0.2-4.3,0.3
	c-1.5,0.1-2.9,0.3-4.3,0.3s-2.7-0.1-3.7-0.3c-0.5-0.1-1-0.2-1.5-0.3c-0.4-0.1-0.9-0.2-1.1-0.3c-0.6-0.2-1-0.3-1-0.3
	c-0.1,0-0.1-0.1-0.1-0.2c0,0,0-0.1,0.1-0.1c0,0,0.3-0.1,1-0.3c0.3-0.1,0.7-0.2,1.1-0.3c0.4-0.1,0.9-0.2,1.5-0.3
	c1.1-0.2,2.4-0.3,3.7-0.3c1.4,0,2.8,0.2,4.3,0.3c1.5,0.1,2.9,0.2,4.3,0.3c1.4,0.1,2.7,0.2,3.7,0.3c2.1,0.2,3.6,0.3,3.6,0.3
	c0.1,0,0.1,0.1,0.1,0.1C52.3,244.1,52.3,244.2,52.2,244.2z"/>
<path fill="#FFFFFF" d="M67.8,234.9c0,0-3.9,0.1-9.9,0.3c-1.5,0.1-3.1,0.1-4.7,0.2c-1.7,0-3.4,0.1-5.3,0.1
	c-3.7,0.1-7.6,0.2-11.6,0.3c-2,0.1-3.9,0.1-5.8,0.2c-2,0.1-3.9,0.1-5.7,0.1s-3.6,0-5.3-0.1c-0.9,0-1.6-0.1-2.5-0.1
	c-0.8,0-1.5-0.1-2.3-0.1c-1.5-0.1-2.8-0.2-4-0.3s-2.2-0.2-3.1-0.3c-0.9-0.1-1.5-0.2-2-0.2c-0.4-0.1-0.7-0.1-0.7-0.1l-0.1-0.1
	c0-0.1,0-0.1,0.1-0.1c0,0,0.3,0,0.7-0.1c0.4-0.1,1.1-0.1,2-0.2c0.9-0.1,1.9-0.2,3.1-0.3c1.2-0.1,2.6-0.2,4-0.3
	c0.8,0,1.5-0.1,2.3-0.1c0.8,0,1.6-0.1,2.5-0.1c1.7-0.1,3.4-0.1,5.3-0.1c1.8,0,3.8,0.1,5.7,0.1c2,0.1,3.9,0.1,5.8,0.2
	c3.9,0.1,7.9,0.2,11.6,0.3c1.8,0.1,3.6,0.1,5.3,0.1c1.7,0.1,3.3,0.1,4.7,0.2c5.9,0.2,9.9,0.3,9.9,0.3V234.9
	C67.9,234.9,67.8,234.9,67.8,234.9z"/>
<path fill="#B1D7DD" d="M259.8,154.6c-2.3-2.6-5.5-3.9-8.9-3.9h-29.1V161c0.4-0.4,0.9-0.7,1.5-0.9c0.1,0,0.3-0.1,0.4-0.1
	c0.3-0.1,0.5-0.1,0.8-0.1c1.4,0,3.2,0.6,4.5,2c3,3.3,2.5,22.2,2.1,29.9c3.7,0,5.7,0,9.7,0l21.2-35L259.8,154.6z"/>
<path fill="#A3B7B0" d="M224.5,159.9c-0.3,0-0.5,0-0.8,0.1c0.1,0,0.2,0,0.3,0c0.4,0,0.9,0.2,1.3,0.5c4.2,3.7,2.1,31.4,2.1,31.4h3
	c0.2-2.1,0.4-4.1,0.9-6.1c0.3-7.8,0.5-20.6-2.6-23.8C227.5,160.5,225.8,159.9,224.5,159.9L224.5,159.9z"/>
<path fill="#9AADA5" d="M223.9,160c-0.1,0-0.2,0-0.3,0c-0.2,0-0.3,0-0.4,0.1c-0.6,0.2-1,0.4-1.5,0.9v31h5.6c0,0,2.1-27.7-2.1-31.4
	C224.8,160.2,224.4,160,223.9,160L223.9,160z"/>
<g>
	<path fill="#B1D7DD" d="M264,181.4c0,0,0,0.1,0,0.2C263.9,181.5,263.9,181.5,264,181.4z"/>
	<polygon fill="#B1D7DD" points="270.9,166.9 250.8,189.9 249,191.9 255.7,191.9 273.6,169.9 	"/>
</g>
<path fill="#B1D7DD" d="M277.9,174.7l-6.8,11.9c0.6,1.7,1,3.5,1.2,5.2H286v-8.1L277.9,174.7L277.9,174.7z"/>
<path fill="#698386" d="M271.1,186.6l-3,5.2h4.2C272.2,190.1,271.8,188.3,271.1,186.6L271.1,186.6z"/>
<path fill="#AF8E89" d="M255.7,191.9H249l-0.5,0.6h6.7L255.7,191.9L255.7,191.9z M278.8,173.2l-0.9,1.5l8.1,9.1v8.1h-13.6h-4.2
	l-0.3,0.6h18.6v-10.7L278.8,173.2L278.8,173.2z M220.1,150v42.5h20.2l0.3-0.6h-10.3h-3h-5.6v-31v-10.4h29.1c3.4,0,6.7,1.5,8.9,3.9
	l2.1,2.3l0.8-1.3l8.4,11.1l-0.2,0.2l2.7,3l1-1.3l-14-15.6c-1.6-2-4.1-3.1-6.7-3.1L220.1,150L220.1,150z"/>
<polygon fill="#FC7F6C" points="248.5,192.5 240.3,192.5 239.4,194 246.8,194.4 "/>
<path fill="#C9E3E7" d="M261.9,156.9l-21.2,35c0.3,0.3,6.2,0,6.2,0h2.1l22-25L261.9,156.9z"/>
<path fill="#C7B0AD" d="M249,191.9h-2.1h-6.2l-0.3,0.6h8.1L249,191.9L249,191.9z M262.7,155.6l-0.8,1.3l9,10l0.2-0.2L262.7,155.6
	L262.7,155.6z"/>
<path fill="#FC7F6C" d="M267.9,192.5h-12.7L254,194l12.8,0.4L267.9,192.5L267.9,192.5z M275.8,167.3l-1.1,1.4l4,4.5l0.9-1.5
	L275.8,167.3L275.8,167.3z"/>
<path fill="#C9E3E7" d="M273.6,169.9l-17.9,22h11.2c0.3-2.6,3.9-6.5,4.4-5.2l6.8-11.9L273.6,169.9z"/>
<path fill="#96A8AB" d="M268.3,181.5L268.3,181.5c-0.1,0-0.2,0-0.3,0c-0.6,0-1.5,0.2-1.7,0.7c0,0.2,0,0.3,0.1,0.6
	c0.6,2.7,0.9,5.7,0.5,9.1h1.4l3-5.2c-0.7-2-1.7-3.8-2.7-5.1C268.5,181.4,268.4,181.5,268.3,181.5z"/>
<path fill="#C7B0AD" d="M268.2,191.9h-1.4h-11.2l-0.5,0.6h12.7L268.2,191.9L268.2,191.9z M274.6,168.7l-1,1.3l4.3,4.7l0.9-1.5
	L274.6,168.7L274.6,168.7z"/>
<rect x="7.6" y="109.6" fill="#296484" width="206.5" height="6.9"/>
<path fill="#184655" d="M192.1,116.5h22v-6.9h-22.6C191.8,112,192,114.2,192.1,116.5z"/>
<path fill="#184655" d="M291.1,183.2l-29.8-33.7c-1.9-2.3-4.7-3.7-7.7-3.7h-39.4v114.3h4.4v-64.3l72.6-0.3L291.1,183.2L291.1,183.2z
	 M286,191.9h-64.2v-41.3h29.1c3.4,0,6.7,1.5,8.9,3.9l26.2,29.2V191.9z"/>
<path fill="#184655" d="M287.2,201.4c0,0,2.9,0.6,5.2-0.9c1.4-0.9,2.1-2.1,2.4-2.9c0.3-0.6,0.9-0.9,1.5-0.6l3.1,1.5
	c1.6-0.3-3.3-5.5-5.7-5.6c-2.4-0.1-6.5,0-6.5,0L287.2,201.4L287.2,201.4z"/>
<path fill="#296484" d="M299.9,196.4c-0.5-1.1-2-3.3-2.6-4.1c-1.1-1.5-3.3-3.1-3.3-3.2v-1.5c0-3.8-3.1-6.9-6.9-6.8
	c-0.1,0-0.2,0-0.2,0v21.2c0,0,0,0,0.1,0c3.9-0.1,6.9-3.2,6.9-7v-0.8c1.9,0.5,3.9,2.4,4.9,3.5c0.3,0.3,0.5,0.6,0.9,1
	c0.4,0.5,1.2,0,1-0.6C300.5,197.4,300.2,196.8,299.9,196.4z"/>
<path fill="#E6E6E6" d="M288.5,180.8c-0.5-0.1-0.9-0.2-1.5-0.2c-0.1,0-0.2,0-0.2,0v21.2c0,0,0,0,0.1,0c0.5,0,1-0.1,1.5-0.2
	L288.5,180.8L288.5,180.8z"/>
<g>
	<path fill="#404040" d="M162.5,306.8c0,0,2,1.9,2,2.7c0.1,0.7,0.2,8.3-0.6,9c-0.8,0.7-3.2,1.2-2.4,2c0.6,0.6,5,0.5,7.8,0.3
		c0.9-0.1,1.9-6.9,2.2-7.9c0.5-1.5,2.2-4.6,1.8-5.7c-0.3-0.5-1.8-1.6-3.3-2.6c-1.5-1-3-3.3-3-3.3L162.5,306.8z"/>
	<path fill="#404040" d="M170,304.6c0,0-4.1,12.6-5.8,13.2c-0.4,0.2-3.1,0.9-3.5,1.8v0.1c-0.2,0.6,0.4,1.2,1,1.2h8.3
		c0,0,1.2-5.7,1.6-8.1c0,0,2.5-6.1,2.2-6.6C173.6,305.7,170,304.6,170,304.6z"/>
</g>
<g>
	<path fill="#404040" d="M136.5,311.6l1.7,5c0.2,0.8,0.6,2.7,0.6,3.4c0,2.7-12-2.3-9.3-3.5c0.3-0.1,1-0.9,1.1-1.9
		c0.1-1.5-1-3.2-1-3.2L136.5,311.6z"/>
	<path fill="#404040" d="M139.5,321l-1.4-4.4c0,0-2.9,1.2-4.4,1c-1.5-0.2-4.3-1-4.3-1c-5.7,1.9-10.5,2.8-9.6,4.4l0,0H139.5z"/>
</g>
<g>
	<path fill="#F8A492" d="M90.7,178c0.5,1.6-0.6,1.7,0.1,3.5c0.8,1.7,1.6,2,3.9,4.2c2.3,2.1,10,5.1,14.2,4.9c6.6-2.2,5.8-7.7,10.1-12
		c2.7,1.2,6,2.1,8.5,3.7c-6.1,7.5-3.5,14.8-15.4,15.6c-11.8,0.8-16.2-5.9-23.9-11.5c-1-0.9-2.3-1.5-3.5-2.4c-1.2-0.9-1.6-1.6-3-2.8
		c-0.2-0.2-1.8-1.8-2.3-2.6c-0.4-0.7,0-0.9,0.6-0.5c0.6,0.4,2,2.2,2.4,1.9c0.4-0.3-1.9-2.1-2.2-2.7c-0.1-0.2-0.6-0.9-0.8-1.1
		c-0.4-0.8-0.3-1.5,0.7-0.7c0.3,0.3,0.9,0.9,1.1,1.2s0.9,0.9,1.1,1.1c0.3,0.3,0.9,1.2,1.1,1.1c0.3,0,0.3,0-0.1-0.4
		c-0.3-0.4-1.4-1.5-1.7-2.1c-0.2-0.3-0.6-1-0.9-1.4c-0.2-0.3-0.8-1.5-0.7-1.5c0.7-0.5,1.3,0.7,1.6,1.2c0.3,0.3,0.8,1,0.9,1.3
		c0.2,0.3,1.6,2,1.8,1.3c0.2-0.6-2.7-4.2-2.2-5c0.4-0.8,1.1,0.7,1.4,0.9c0.3,0.3,0.4,0.8,0.8,1.2c0.3,0.4,0.6,0.8,1.1,1.3
		c0.5,0.5,2.2,2.9,2.8,2.9s0.5-0.9,0.5-1.2s-0.5-0.6-0.6-0.9c0-0.3-0.1-0.8,0.3-0.9s0.9,0.5,1.3,0.9C90.3,176.7,90.7,177.6,90.7,178
		z"/>
</g>
<g>
	<path fill="#184655" d="M119.8,216.7l-4.4,11.3c0,0-2.8,26.9-1.2,43.1c0.7,6.8,15.7,42.8,15.7,42.8l7.5-1l-9.9-42.7l3.7-16.4
		l5.2-32.3L119.8,216.7z"/>
	<path fill="#296484" d="M140.3,217.3l3.8,12.5l5.7,37.9l19.2,35.5c0,0-2.9,4.5-6,5.1l-27.3-35.9l-14.8-44.9l0.5-9.9L140.3,217.3z"
		/>
</g>
<path fill="#184655" d="M111.6,188.8l9.2,5.4c0,0,4.1-7.8,5.8-11.7c2.1-4.6,4.1-10.8,3.5-10.9c-1.7-0.3-3.9-0.5-5.9,0.7
	C117.2,176.5,111.6,188.8,111.6,188.8z"/>
<path fill="#296484" d="M139,171.2c0,0,5.6,0.8,7.1,1.9c1.6,1.2,6.9,6.9,6.9,6.9s-10.7,30.7-10.3,36.2c0.4,5.5,1.6,13.6,1.6,13.6
	s-20.8,1.3-28.7-1.8c0,0,2.5-12.4,2.5-15.6c0-3.3,1.4-35.8,2.4-37.5c1-1.7,3-2.7,6.8-3.5C131,170.5,139,171.2,139,171.2z"/>
<path fill="#F2F2F2" d="M134.4,223.6c0,0,1.3,38.3,5.4,46.8c4,8.6,4.4,7.5,15.2,4.5c10.8-3,9.9-2.8,14.1-3.4
	c4.2-0.6,2.7-16.6,0-21.2c-2.7-4.7-6-17.7-6.9-21.6c-0.9-3.9-16.1-9.5-16.1-9.5l-6.5,1.4L134.4,223.6z"/>
<path fill="#F7A491" d="M137.5,162.5l1.4,9.1c0,0-4.2,4.8-7.2,3.9c-2.6-0.8-1.9-4.4-1.9-4.4s1.4-5.1,0.9-7.7
	C130.4,160.8,137.5,162.5,137.5,162.5z"/>
<path fill="#FE875E" d="M130.7,163.3c-0.4-2.6,6.7-0.9,6.7-0.9l0.1,0.8c-0.2,0.5-0.4,0.9-0.8,1.3c-1.6,1.7-4.1,2.7-6.3,2.8
	C130.8,165.9,130.9,164.4,130.7,163.3z"/>
<g>
	<path fill="#F7A491" d="M138.6,149.5c0.2-0.1,1.6,10.4-1,13.2c-2.7,2.8-7.9,3.8-9.8,1.5c-2.1-2.5-2-13.7,2.2-16.6
		C134.1,144.7,138.6,149.5,138.6,149.5z"/>
	<path fill="#352E73" d="M131.6,142.1c3.3,0.7,5.3,2.6,6.1,3.4c1.5,0.2,3.4,0.9,5.5,4.4c2.5,4.2,0.7,8.7-2.3,11.1
		c-2.9,2.2-2.9,4.9-2.9,4.9l-0.4-1.4c-0.3-1-0.5-2.1-0.3-3.2c0.1-0.7,0.2-1.4,0.5-1.9c0.7-1.5-1.5-2.5-2.1-3.8
		c-0.5-0.9-0.5-3.2-1.3-4.8l-0.9-1.2c0,0-2.1-1.6-4.1-1.2C127.1,148.9,127.5,141.3,131.6,142.1z"/>
	<path fill="#F7A491" d="M135.6,157.4c0,1.3,0.6,2.3,1.3,2.3c0.8,0,1.4-1,1.4-2.3s-0.6-2.3-1.3-2.3
		C136.3,155.2,135.6,156.2,135.6,157.4z"/>
</g>
<g>
	<path fill="#F2F2F2" d="M59.2,200.6c0.2-3.2,1.2-9,6.3-11c5.1-2,17-6.6,18.8-6.9c1.8-0.3,18.6,7.7,21,9.9
		c6.8,5.7,5.7,14.9,4.5,34.2c-0.9,16-2.1,51.1-2.4,62.9c-0.1,2.1-1.9,3.9-4,3.9c-8.4-0.2-28.3-0.9-37.8-4.9c-2-0.8-3.3-2.7-3.4-4.8
		C61.4,270.9,58.3,219.4,59.2,200.6z"/>
	<path fill="#296484" d="M84.3,183.6c-0.4,0-0.7-0.3-0.7-0.7v-2.1c-1.4-0.3-3.2-1.4-3.2-3.4c0-1,0.3-1.9,0.9-2.5c1-1,2.6-1,3-1
		c1.5,0,3.8,0.9,3.8,3.2c0,0.4-0.3,0.7-0.7,0.7c-0.3,0-0.7-0.3-0.7-0.7c0-1.6-2.3-1.7-2.3-1.7c-0.6,0-1.5,0.2-2,0.6
		c-0.3,0.3-0.5,0.9-0.5,1.5c0,1.8,2.5,2.1,2.6,2.1c0.3,0.1,0.6,0.3,0.6,0.7v2.7C85.1,183.2,84.7,183.6,84.3,183.6z"/>
	<rect x="83.9" y="185.1" fill="#E6E6E6" width="0.7" height="102.4"/>
	<g>
		<path fill-rule="evenodd" fill="#296484" d="M84.2,223.6c-5.8,0.1-10.9-4.8-10.8-10.9c0.1-5.8,4.7-10.7,10.8-10.7
			c6,0,10.8,4.9,10.8,10.9S90.1,223.6,84.2,223.6z M87.1,206.3C87.1,206.3,87.1,206.3,87.1,206.3c-0.1,0-0.2,0-0.2,0
			c-1.5-0.6-3-0.7-4.5-0.5c-1.3,0.2-2.5,0.6-3.5,1.3c-1.6,1.1-2.7,2.7-3.3,4.5c-0.3,1.2-0.4,2.3-0.4,3.4c0-0.8,0.1-1.5,0.3-2.4
			c0.3-1.2,1-2.1,2.1-2.7c0.1,0,0.2-0.1,0.3-0.1c0,0.1-0.1,0.2-0.1,0.2c-0.3,0.8-0.5,1.5-0.6,2.4c-0.1,1.2,0.1,2.3,0.3,3.5
			c0.3,1.2,0.8,2.2,1.5,3.2c1.5,1.9,3.7,2.7,6,2.8c0.6,0,1.1,0,1.7,0c-0.7,0-1.3-0.1-2-0.2c-0.8-0.1-1.5-0.3-2.2-0.8
			c-0.6-0.3-1-0.8-1.2-1.5c0-0.1,0-0.1,0-0.2c0.1,0,0.1,0,0.2,0c1.3,0.5,2.7,0.7,4,0.6c1.2-0.1,2.3-0.3,3.3-0.9
			c1.8-0.9,3.1-2.5,3.9-4.4c0.6-1.5,0.8-3,0.5-4.6c0,1.1-0.1,2.2-0.5,3.3c-0.3,1-0.9,1.9-1.9,2.5c-0.1,0.1-0.2,0.1-0.3,0.2
			c0-0.1,0-0.2,0.1-0.3c0.4-1.4,0.6-2.7,0.5-4.1c-0.1-1.2-0.4-2.4-0.9-3.5c-0.5-1.1-1.4-2-2.4-2.7c-1.3-0.9-2.7-1.4-4.2-1.5
			c-0.8-0.1-1.5,0-2.2,0c0.4,0.1,0.9,0.1,1.3,0.2c0.9,0.1,1.9,0.3,2.7,0.7c0.5,0.3,1,0.5,1.4,0.9C87,205.7,87.1,206,87.1,206.3z"/>
		<path fill-rule="evenodd" fill="#296484" d="M80.9,217.3c0-0.3,0.1-0.4,0.1-0.7c0.2-0.9,0.3-2,0.5-2.9c0-0.2,0-0.3-0.1-0.3
			c-0.8-0.8-1.6-1.5-2.4-2.4c-0.1-0.1-0.1-0.1-0.2-0.2c0.2,0,0.3-0.1,0.4-0.1c1-0.2,2.1-0.3,3.2-0.4c0.2,0,0.3-0.1,0.3-0.3
			c0.5-1,0.9-2,1.5-3c0-0.1,0.1-0.2,0.2-0.3c0.1,0.1,0.1,0.2,0.2,0.3c0.5,1,0.9,2,1.5,3c0.1,0.2,0.2,0.2,0.3,0.2
			c0.7,0.1,1.5,0.2,2.1,0.3c0.4,0.1,0.9,0.1,1.3,0.2c0,0,0.1,0,0.1,0.1c-0.1,0.1-0.2,0.2-0.3,0.3c-0.8,0.8-1.5,1.5-2.4,2.3
			c-0.1,0.1-0.1,0.2-0.1,0.3c0.2,1.2,0.4,2.3,0.6,3.5v0.1c-0.1,0-0.2-0.1-0.3-0.1c-1-0.5-2-1-3-1.5c-0.2-0.1-0.3-0.1-0.4,0
			C82.9,216.2,81.9,216.7,80.9,217.3C81.1,217.3,81,217.3,80.9,217.3z"/>
	</g>
	<path fill-rule="evenodd" fill="#E6E6E6" d="M96.3,190.5c0,0,9.8,4.8,9.9,13.5c0.2,8.7-4.9,72.3-5.8,77
		c-0.9,4.7-24.5,10.2-35.1,5.3c0,0-3.4,3.6,38.7,5.5c0,0,2.8,3.4,2.2-9.4s2.8-76.2,2.8-76.2S108.4,196,96.3,190.5z"/>
</g>
<path fill="#E6E6E6" d="M165.2,240.5c0,0-14.8,4.4-22.2-4.2c0,0-3.3-2-2.5,4.2c0.8,6.2,0.3,26.8,2.5,31.6c0,0-1.1,2.1-2.7-2.7
	c-1.5-4.8-4.3-26.1-4.4-32.3c-0.2-6.3-0.3-11.3-0.3-11.3l4.7-3l13.2,0.8l5.7,2.1l4.5,9L165.2,240.5z"/>
<g>
	<path fill="#F8A492" d="M140.6,225c1.3-0.9,2.5-1.9,3.9-2.8c7.5-3,16-7.6,18.2-16.3c2.2-8.7-6.3-14.1-9.6-21
		c-2.1,2.6-3.9,5.3-5.8,8c4.3,4.5,7.4,7.4,7.4,14c-1.5,5.7-9.1,10.6-13.2,11.2c-4,0.6-1.9-0.9-4.6-0.7c-0.8,0.1-1.4,0.1-2,0.3
		c-0.6,0.3-1.3,0.4-1.4,0.9c-0.1,0.4,0.4,0.6,0.7,0.6c0.3,0.1,0.9-0.3,1.1-0.3c0.3,0.1,1.3,0.3,1.1,0.9c-0.2,0.6-2.6,1.2-3.3,1.5
		c-0.3,0.2-1,1.2-0.7,1.8c0.2,0.3,0.3,0.4,0.3,0.9c0,0.4,0.5,1,0.7,1.5c0.3,0.6,0.3,1.3,0.8,1.7c0.1,0.1,0.1,0.1,0.2,0.2
		c0.3,0.4,0.9,0.4,1.2,0.3c0.4-0.2,1.2-0.6,1.4-0.7C138.3,226.4,139.3,226,140.6,225z"/>
</g>
<path fill="#F2F2F2" d="M135.2,220.7c0,0,5.1,5,6.8,10c1.6,5.1,14.7,6.8,22.9,4.1c8.2-2.7,5.7-13,4.1-15.4
	c-1.5-2.4-9.2-13.8-14.4-14.2c0,0-2.6-0.7-4.7,1.6s-4.2,5.8-7.7,7.1C138.5,215.1,132.3,217.5,135.2,220.7z"/>
<path fill="#296484" d="M159.9,191l-9.3,7.3c0,0-4.1-3.9-6.3-8.4s-1.5-18,0.8-17.4C150.1,173.9,159.9,191,159.9,191z"/>
<path fill="#296484" d="M167.2,242.5c-1,0-2.1-0.4-2.7-1.5c-0.2-0.3-0.1-0.8,0.3-1c0.3-0.2,0.8-0.1,1,0.3c0.8,1.5,2.8,0.4,2.8,0.4
	c0.5-0.3,1.2-0.8,1.4-1.5c0.2-0.5,0.1-1-0.3-1.5c-0.9-1.5-3.2-0.7-3.3-0.6c-0.3,0.2-0.7,0-0.9-0.3l-1.3-2.3c-0.2-0.3-0.1-0.8,0.3-1
	c0.3-0.2,0.8-0.1,1,0.3l1,1.8c1.4-0.3,3.5-0.3,4.5,1.5c0.5,0.9,0.6,1.8,0.3,2.7c-0.4,1.4-1.7,2.1-2.1,2.4
	C168.8,242.3,168,242.5,167.2,242.5z"/>
<g>
	<path fill-rule="evenodd" fill="#296484" d="M157.7,262c-4.4,1.1-8.8-2.5-9.3-8.1c-0.3-5.2,3-9.8,7.5-10.1c4.1-0.3,7.6,3.3,8.1,8
		C164.6,256.6,161.8,261.1,157.7,262z M158.4,247.3C158.3,247.3,158.3,247.3,158.4,247.3C158.3,247.3,158.3,247.3,158.4,247.3
		c-1.2-0.3-2.2-0.4-3.3-0.1c-0.9,0.3-1.8,0.7-2.6,1.4c-1.2,1.1-1.9,2.6-2.2,4.3c-0.3,1.1-0.2,2.1-0.1,3.1c-0.1-0.7,0-1.5,0.2-2.2
		c0.3-1.1,0.7-2,1.5-2.7c0.1,0,0.1-0.1,0.2-0.1c0,0.1,0,0.1,0,0.2c-0.3,0.7-0.3,1.5-0.3,2.1c0,1,0.3,2.1,0.5,3
		c0.3,1,0.8,1.9,1.5,2.6c1.4,1.4,2.9,1.7,4.6,1.5c0.4-0.1,0.8-0.2,1.2-0.3c-0.4,0.1-0.9,0.1-1.4,0.2c-0.6,0-1.1-0.1-1.7-0.3
		c-0.4-0.2-0.9-0.5-1-1.1c0-0.1,0-0.1,0-0.2c0.1,0,0.1,0,0.1,0c1,0.3,2,0.2,3-0.1c0.8-0.3,1.5-0.6,2.2-1.2c1.1-1,1.9-2.4,2.2-3.9
		c0.3-1.2,0.3-2.4,0-3.7c0.1,0.9,0.1,1.7-0.1,2.6c-0.2,0.9-0.4,1.5-1,2.1c0,0-0.1,0.1-0.2,0.2c0-0.1,0-0.2,0-0.2
		c0.2-1.1,0.2-2.2,0-3.3c-0.2-0.9-0.4-1.9-0.9-2.7c-0.4-0.9-1.1-1.5-1.8-2.1c-0.9-0.7-2-0.9-3.1-1c-0.5,0-1.1,0.1-1.6,0.1
		c0.3,0,0.6,0,0.9,0.1c0.7,0.1,1.4,0.2,2.1,0.4c0.4,0.2,0.8,0.3,1,0.7C158.2,246.8,158.3,247.1,158.4,247.3z"/>
	<path fill-rule="evenodd" fill="#296484" d="M154.7,257.2c0-0.2,0-0.4,0-0.6c0.1-0.9,0.1-1.7,0.2-2.6c0-0.2,0-0.3-0.1-0.3
		c-0.7-0.6-1.4-1.2-2-1.8c-0.1,0-0.1-0.1-0.2-0.2c0.1,0,0.2-0.1,0.3-0.1c0.8-0.3,1.6-0.4,2.4-0.7c0.1,0,0.2-0.1,0.3-0.3
		c0.3-0.9,0.6-1.7,0.9-2.7c0-0.1,0.1-0.1,0.1-0.2c0.1,0.1,0.1,0.2,0.2,0.3c0.4,0.8,0.9,1.5,1.3,2.3c0.1,0.1,0.1,0.2,0.2,0.2
		c0.5,0,1,0.1,1.5,0.1c0.3,0,0.6,0,0.9,0h0.1c-0.1,0.1-0.1,0.2-0.2,0.3c-0.4,0.7-0.9,1.4-1.5,2.1c-0.1,0.1-0.1,0.2-0.1,0.3
		c0.3,0.9,0.4,1.9,0.7,2.8c0,0,0,0,0,0.1c-0.1,0-0.1,0-0.2-0.1c-0.7-0.3-1.5-0.6-2.2-0.9c-0.1-0.1-0.2,0-0.3,0.1
		c-0.7,0.6-1.4,1.2-2.1,1.7C154.8,257.1,154.8,257.1,154.7,257.2z"/>
</g>
<g>
	<g>
		
			<ellipse transform="matrix(0.9985 -5.530039e-02 5.530039e-02 0.9985 -16.8278 13.0614)" fill-rule="evenodd" fill="#FFFFFF" cx="227.6" cy="310.6" rx="28.2" ry="28.2"/>
		<path fill="#296484" d="M227.6,341.7c-17.1,0-31-13.9-31-31s13.9-31,31-31s31,13.9,31,31S244.7,341.7,227.6,341.7z M227.6,285.3
			c-14,0-25.4,11.4-25.4,25.4s11.4,25.4,25.4,25.4s25.4-11.4,25.4-25.4S241.6,285.3,227.6,285.3z"/>
	</g>
	<path fill="#296484" d="M243.2,304c1.2,1.8,1.9,3.9,2.2,6.1c0.2,2.2,0.1,4.5-0.6,6.7c-1.3,4.4-4.4,8.2-8.5,10.4
		c-4.1,2.2-9.1,2.6-13.4,1.2s-8-4.6-9.6-8.6c2.9,3.2,6.5,5.3,10.3,6s7.8,0.2,11.1-1.6c3.4-1.8,6.1-4.7,7.6-8.3
		c0.8-1.8,1.2-3.7,1.4-5.7C243.9,308.2,243.7,306.1,243.2,304z"/>
</g>
<g>
	<g>
		<circle fill-rule="evenodd" fill="#FFFFFF" cx="311.6" cy="63.4" r="28.2"/>
		<path fill="#296484" d="M311.6,94.4c-17.1,0-31-13.9-31-31s13.9-31,31-31s31,13.9,31,31S328.7,94.4,311.6,94.4z M311.6,38
			c-14,0-25.4,11.4-25.4,25.4s11.4,25.4,25.4,25.4S337,77.4,337,63.4C336.9,49.4,325.5,38,311.6,38z"/>
	</g>
	<path fill="#296484" d="M327.2,56.7c1.2,1.8,1.9,3.9,2.2,6.1c0.2,2.2,0.1,4.5-0.6,6.7c-1.3,4.4-4.4,8.2-8.5,10.4
		c-4.1,2.2-9.1,2.6-13.4,1.2s-8-4.6-9.6-8.6c2.9,3.2,6.5,5.3,10.3,6s7.8,0.2,11.1-1.6c3.4-1.8,6.1-4.7,7.6-8.3
		c0.8-1.8,1.2-3.7,1.4-5.7C327.9,60.9,327.7,58.8,327.2,56.7z"/>
</g>
<g>
	<path fill="#296484" d="M209.7,30.4c-8.4,0-15.2-6.8-15.2-15.2S201.3,0,209.7,0s15.2,6.8,15.2,15.2S218.1,30.4,209.7,30.4z
		 M209.7,2.8c-6.9,0-12.4,5.6-12.4,12.4s5.6,12.4,12.4,12.4c6.9,0,12.4-5.6,12.4-12.4S216.6,2.8,209.7,2.8z"/>
	<path fill="#296484" d="M217.4,11.9c1.1,1.8,1.4,4.1,0.8,6.3s-2.2,4-4.2,5.1c-2,1.1-4.4,1.3-6.6,0.6c-2.1-0.7-3.9-2.3-4.7-4.2
		c1.4,1.6,3.2,2.6,5.1,2.9c1.9,0.4,3.8,0.1,5.5-0.8s3-2.3,3.7-4C217.7,16,217.9,14,217.4,11.9z"/>
</g>
<path fill="#E6EDFF" d="M138.7,66h34.8c0,0-4.6-6.3-6.6-2.6c0,0-10.9-12.8-17.2-9.1c-4.4,2.5-1.1,8.1-1.1,8.1S135.1,59.3,138.7,66z"
	/>
<g>
	<path fill="#296484" d="M34.3,90.2c-8.4,0-15.2-6.8-15.2-15.2s6.8-15.2,15.2-15.2S49.5,66.6,49.5,75S42.7,90.2,34.3,90.2z
		 M34.3,62.5c-6.9,0-12.4,5.6-12.4,12.4s5.6,12.4,12.4,12.4s12.4-5.6,12.4-12.4S41.2,62.5,34.3,62.5z"/>
	<path fill="#296484" d="M42,71.7c1.1,1.8,1.4,4.1,0.8,6.3c-0.6,2.2-2.2,4-4.2,5.1s-4.4,1.3-6.6,0.6c-2.1-0.7-3.9-2.3-4.7-4.2
		c1.4,1.6,3.2,2.6,5.1,2.9c1.9,0.4,3.8,0.1,5.5-0.8c1.7-0.9,3-2.3,3.7-4C42.3,75.8,42.5,73.8,42,71.7z"/>
</g>
</svg>
