<?xml version="1.0" encoding="UTF-8" standalone="no"?>
<!-- Created with Inkscape (http://www.inkscape.org/) -->

<svg
   xmlns:dc="http://purl.org/dc/elements/1.1/"
   xmlns:cc="http://creativecommons.org/ns#"
   xmlns:rdf="http://www.w3.org/1999/02/22-rdf-syntax-ns#"
   xmlns:svg="http://www.w3.org/2000/svg"
   xmlns="http://www.w3.org/2000/svg"
   xmlns:sodipodi="http://sodipodi.sourceforge.net/DTD/sodipodi-0.dtd"
   xmlns:inkscape="http://www.inkscape.org/namespaces/inkscape"
   width="512"
   height="512"
   viewBox="0 0 135.46666 135.46667"
   version="1.1"
   id="svg11245"
   inkscape:version="0.92.4 (5da689c313, 2019-01-14)"
   sodipodi:docname="Push Laundry Pickup and Delivery.svg">
  <defs
     id="defs11239">
	
</defs>
  <sodipodi:namedview
     id="base"
     pagecolor="#ffffff"
     bordercolor="#666666"
     borderopacity="1.0"
     inkscape:pageopacity="0.0"
     inkscape:pageshadow="2"
     inkscape:zoom="1.4"
     inkscape:cx="310.72584"
     inkscape:cy="240.9532"
     inkscape:document-units="mm"
     inkscape:current-layer="layer1"
     showgrid="true"
     units="px"
     inkscape:window-width="1920"
     inkscape:window-height="1001"
     inkscape:window-x="-9"
     inkscape:window-y="-9"
     inkscape:window-maximized="1"
     showguides="true"
     inkscape:guide-bbox="true"
     inkscape:snap-grids="false"
     inkscape:snap-to-guides="false"
     inkscape:snap-others="true"
     inkscape:object-nodes="false"
     inkscape:snap-nodes="true"
     inkscape:snap-global="true"
     inkscape:snap-bbox="true"
     inkscape:bbox-nodes="true">
    <inkscape:grid
       type="xygrid"
       id="grid11790"
       empcolor="#3f3fff"
       empopacity="0.07058824"
       empspacing="8" />
    <sodipodi:guide
       position="67.733332,67.733332"
       orientation="0,1"
       id="guide27178"
       inkscape:locked="false"
       inkscape:label=""
       inkscape:color="rgb(0,0,255)" />
    <sodipodi:guide
       position="67.733332,67.733332"
       orientation="1,0"
       id="guide27180"
       inkscape:locked="false"
       inkscape:label=""
       inkscape:color="rgb(0,0,255)" />
  </sodipodi:namedview>
  <metadata
     id="metadata11242">
    <rdf:RDF>
      <cc:Work
         rdf:about="">
        <dc:format>image/svg+xml</dc:format>
        <dc:type
           rdf:resource="http://purl.org/dc/dcmitype/StillImage" />
        <dc:title></dc:title>
      </cc:Work>
    </rdf:RDF>
  </metadata>
  <g
     inkscape:label="Layer 1"
     inkscape:groupmode="layer"
     id="layer1"
     transform="translate(0,-161.53332)">
    <g
       id="g2384"
       transform="matrix(0.11028709,0,0,0.07370032,39.028818,170.16362)"
       style="stroke-width:2.93471265" />
    <g
       id="g2958"
       transform="matrix(0.06614597,0,0,0.06614597,2.1295451,182.69999)"
       style="stroke-width:3.99999189">
      <g
         id="g2956"
         transform="translate(1,1)"
         style="stroke-width:3.99999189">
	<g
   id="g2954"
   style="stroke-width:3.99999189">
		<g
   id="g2952"
   style="stroke-width:3.99999189">
			
			
			
			
			
			
			
		</g>

	</g>

</g>
    </g>
    <rect
       style="opacity:1;fill:#e8f0f7;fill-opacity:1;stroke:none;stroke-width:2.66499996;stroke-linecap:round;stroke-miterlimit:4;stroke-dasharray:none;stroke-opacity:1;paint-order:stroke markers fill"
       id="rect3952"
       width="112.63689"
       height="54.995533"
       x="1.474107"
       y="161.34433" />
    <path
       style="fill:none;stroke:#032659;stroke-width:1.36500001;stroke-linecap:round;stroke-linejoin:miter;stroke-miterlimit:4;stroke-dasharray:none;stroke-opacity:1"
       d="M 32.506334,217.21289 H 2.1943995"
       id="path3950"
       inkscape:connector-curvature="0" />
    <path
       style="opacity:1;fill:#186dbd;fill-opacity:1;stroke:#032659;stroke-width:2.66499996;stroke-linecap:round;stroke-miterlimit:4;stroke-dasharray:none;stroke-opacity:1;paint-order:stroke markers fill"
       d="m 40.701255,219.18692 33.476037,-0.10205 12.241238,47.24702 H 28.210194 Z"
       id="rect3884"
       inkscape:connector-curvature="0"
       sodipodi:nodetypes="ccccc" />
    <path
       style="fill:#e8f0f7;fill-opacity:1;stroke:none;stroke-width:0.26458332px;stroke-linecap:butt;stroke-linejoin:miter;stroke-opacity:1"
       d="m 36.761688,269.65367 -0.28886,-5.05505 2.888602,-0.57773 0.57772,-38.27395 2.31088,-1.58873 h 65.71567 l 2.74416,2.02202 8.08808,18.19818 4.3329,2.8886 3.3219,1.73316 2.45531,6.21049 0.14443,8.37694 2.31088,0.86659 0.72215,5.34391 -10.11011,0.72215 -6.35492,-6.2105 -5.05505,0.57772 -5.7772,4.04405 -2.45531,1.29986 -34.518776,0.14444 -4.62176,-4.62177 -6.499352,-1.73316 -3.89961,2.02203 -4.3329,4.62176 z"
       id="path2804"
       inkscape:connector-curvature="0" />
    <rect
       style="opacity:1;fill:#1d6ebd;fill-opacity:1;stroke:none;stroke-width:1.26499999;stroke-linecap:round;stroke-miterlimit:4;stroke-dasharray:none;stroke-opacity:1;paint-order:stroke markers fill"
       id="rect2667"
       width="48.469051"
       height="5.3434806"
       x="33.602749"
       y="213.74138" />
    <path
       style="opacity:1;fill:#1d6ebd;fill-opacity:1;stroke:none;stroke-width:1.26499963;stroke-linecap:round;stroke-miterlimit:4;stroke-dasharray:none;stroke-opacity:1;paint-order:stroke markers fill"
       d="m 36.81505,181.50128 c 0.30428,-5.57568 10.772941,-18.6 20.692561,-18.68087 10.143022,-0.0827 20.718249,12.28137 21.107321,18.58211 1.04407,16.90793 -0.575567,34.35175 -0.575567,34.35175 H 37.644363 c 0,0 -1.938777,-13.92291 -0.829313,-34.25299 z"
       id="rect2664"
       inkscape:connector-curvature="0"
       sodipodi:nodetypes="sssccs" />
    <rect
       style="opacity:1;fill:#83cffd;fill-opacity:1;stroke:none;stroke-width:1.26499999;stroke-linecap:round;stroke-miterlimit:4;stroke-dasharray:none;stroke-opacity:1;paint-order:stroke markers fill"
       id="rect2659"
       width="6.6718898"
       height="13.419674"
       x="62.372822"
       y="199.12494" />
    <rect
       y="199.12494"
       x="46.497807"
       height="13.419674"
       width="6.6718898"
       id="rect2657"
       style="opacity:1;fill:#83cffd;fill-opacity:1;stroke:none;stroke-width:1.26499999;stroke-linecap:round;stroke-miterlimit:4;stroke-dasharray:none;stroke-opacity:1;paint-order:stroke markers fill" />
    <rect
       y="178.12866"
       x="62.277401"
       height="16.443483"
       width="6.6718898"
       id="rect2655"
       style="opacity:1;fill:#83cffd;fill-opacity:1;stroke:none;stroke-width:1.26499999;stroke-linecap:round;stroke-miterlimit:4;stroke-dasharray:none;stroke-opacity:1;paint-order:stroke markers fill" />
    <rect
       style="opacity:1;fill:#83cffd;fill-opacity:1;stroke:none;stroke-width:1.26499999;stroke-linecap:round;stroke-miterlimit:4;stroke-dasharray:none;stroke-opacity:1;paint-order:stroke markers fill"
       id="rect2653"
       width="6.6718898"
       height="16.443483"
       x="46.497807"
       y="178.48772" />
    <g
       id="g2469"
       transform="matrix(0.1119702,0,0,0.11308586,32.308285,162.29244)"
       style="stroke-width:2.35129476">
      <path
         id="path2461"
         data-old_color="#000000"
         class="active-path"
         data-original="#000000"
         d="m 188,297.38281 h -63.96875 c -5.51953,0 -10,-4.47656 -10,-10 V 157.16016 c 0,-18.08594 14.71484,-32.80078 32.80469,-32.80078 H 188 c 5.52344,0 10,4.47656 10,9.99999 v 153.02344 c 0,5.52344 -4.47656,10 -10,10 z m -53.96875,-20 H 178 V 144.35937 h -31.16406 c -7.0586,0 -12.80469,5.74219 -12.80469,12.80079 z m 0,0"
         inkscape:connector-curvature="0"
         style="fill:#032659;stroke-width:2.35129476" />
      <path
         id="path2463"
         data-old_color="#000000"
         class="active-path"
         data-original="#000000"
         d="M 331.96484,297.38281 H 268 c -5.52344,0 -10,-4.47656 -10,-10 V 134.35937 c 0,-5.52343 4.47656,-9.99999 10,-9.99999 h 41.16016 c 18.08984,0 32.80468,14.71484 32.80468,32.80078 v 130.22265 c 0,5.52344 -4.47656,10 -10,10 z m -53.96484,-20 h 43.96484 V 157.16016 c 0,-7.0586 -5.74218,-12.80079 -12.80468,-12.80079 H 278 Z m 0,0"
         inkscape:connector-curvature="0"
         style="fill:#032659;stroke-width:2.35129476" />
      <path
         id="path2465"
         data-old_color="#000000"
         class="active-path"
         data-original="#000000"
         d="m 228,145.25 c -0.65234,0 -1.3125,-0.0586 -1.94922,-0.19141 -0.64062,-0.1289 -1.27344,-0.32031 -1.87109,-0.57031 -0.60938,-0.25 -1.19141,-0.55859 -1.73047,-0.91797 -0.55078,-0.37109 -1.0625,-0.78906 -1.51953,-1.25 -0.46094,-0.46094 -0.87891,-0.96875 -1.24219,-1.51953 -0.36719,-0.53906 -0.66797,-1.12109 -0.91797,-1.72266 -0.25,-0.60937 -0.44922,-1.23828 -0.57031,-1.86718 C 218.07031,136.55859 218,135.89844 218,135.25 c 0,-0.64844 0.0703,-1.30859 0.19922,-1.94922 0.12109,-0.64062 0.32031,-1.26953 0.57031,-1.87109 0.25,-0.60938 0.55078,-1.19141 0.91797,-1.73047 0.36328,-0.55078 0.78125,-1.0586 1.24219,-1.51953 0.46093,-0.46094 0.96875,-0.87891 1.51953,-1.23828 0.53906,-0.36328 1.11719,-0.67188 1.73047,-0.92188 0.60156,-0.25 1.23047,-0.4414 1.87109,-0.57031 1.28906,-0.25781 2.60938,-0.25781 3.89844,0 0.64062,0.12891 1.26953,0.32031 1.8789,0.57031 0.60157,0.25 1.17969,0.5586 1.72266,0.92188 0.54688,0.35937 1.05859,0.77734 1.51953,1.23828 0.46094,0.46093 0.87891,0.96875 1.23828,1.51953 0.35938,0.53906 0.67188,1.12109 0.92188,1.73047 0.25,0.60156 0.44922,1.23047 0.57812,1.87109 0.12891,0.64063 0.19141,1.30078 0.19141,1.94922 0,0.64844 -0.0625,1.30859 -0.19141,1.96094 -0.1289,0.6289 -0.32812,1.25781 -0.57812,1.86718 -0.25,0.60157 -0.5625,1.1836 -0.92188,1.72266 -0.35937,0.55078 -0.77734,1.05859 -1.23828,1.51953 -0.46094,0.46094 -0.97265,0.87891 -1.51953,1.25 -0.54297,0.35938 -1.12109,0.66797 -1.72266,0.91797 -0.60937,0.25 -1.23828,0.44141 -1.8789,0.57031 C 229.30859,145.19141 228.64844,145.25 228,145.25 Z m 0,0"
         inkscape:connector-curvature="0"
         style="fill:#032659;stroke-width:2.35129476" />
      <path
         style="fill:#032659;stroke-width:2.35129476"
         d="M 225.5332,2.015625 C 166.91671,2.2873055 109.22409,31.781902 74.226562,79.175781 47.2727,114.71899 34.159699,159.67597 36.035156,203.97656 c 0,80.00782 0,160.01563 0,240.02344 -9.764766,0.62482 -19.913317,-1.18887 -29.4765622,0.77539 C -1.1542317,448.87697 3.0735186,459.20131 2,466.05273 c 0.3803207,12.87157 -0.7254049,25.92081 0.484375,38.69532 3.301686,8.23847 13.890864,4.42015 20.568359,5.25195 141.515886,-0.10951 283.060906,0.21893 424.558596,-0.16406 8.24853,-1.72536 6.40014,-11.76324 6.38476,-17.88867 -0.3745,-14.2058 0.71704,-28.5862 -0.48437,-42.69532 -3.33611,-8.26031 -13.86236,-4.4018 -20.56836,-5.25195 -5.56746,-0.75871 -15.74707,3.09473 -12.97852,-6 -0.17061,-84.62032 0.33874,-169.37923 -0.25,-253.91406 C 417.14044,123.78534 383.43971,65.666317 332.48033,32.993445 300.89401,12.309417 263.14745,1.4385554 225.5332,2.015625 Z M 228,18 c 56.47588,-0.490173 111.92127,28.617632 144.03785,74.992008 22.84089,32.018612 33.64676,71.804522 31.92699,110.972832 0,80.01172 0,160.02344 0,240.03516 -8,0 -16,0 -24,0 -0.13514,-85.93522 0.26879,-172.00631 -0.19922,-257.85742 C 377.65769,133.45346 345.00443,82.971197 297.87635,59.042754 248.1489,32.681788 184.69191,37.290435 139.26645,70.664183 98.86615,99.296338 74.369613,148.71577 76.03125,197.97656 c 0,82.00782 0,164.01563 0,246.02344 -7.998698,0 -15.997396,0 -23.996094,0 C 52.195849,357.63823 51.718289,271.26506 52.265625,184.91016 54.721413,127.24671 88.06841,72.314217 137.68936,42.99109 164.78863,26.646697 196.35699,17.936605 228,18 Z m 0,40 c 48.17237,-0.517014 95.09917,27.147246 118.42205,69.21694 13.76201,23.71619 18.88956,51.55255 17.54279,78.7479 0,79.34506 0,158.69011 0,238.03516 -8,0 -16,0 -24,0 -0.17101,-40.66985 0.34003,-81.39623 -0.25195,-122.03125 -2.25501,-8.32787 -12.50302,-5.69227 -18.80078,-6 -18.42003,0.266 -36.94619,-0.51684 -55.30469,0.36328 -8.28872,2.77656 -5.02812,13.22359 -5.60742,19.68945 0,35.99284 0,71.98568 0,107.97852 -8,0 -16,0 -24,0 -0.10975,-89.11678 0.21926,-178.26275 -0.16406,-267.36133 -1.18621,-8.0966 -13.99959,-8.42715 -15.58399,-0.38476 -0.58926,71.9758 -0.083,144.04219 -0.25195,216.05273 0,17.23112 0,34.46224 0,51.69336 -8,0 -16,0 -24,0 -0.17101,-40.66985 0.34003,-81.39623 -0.25195,-122.03125 -2.22985,-8.2989 -12.52292,-5.71559 -18.80078,-6 -18.42069,0.26597 -36.94749,-0.5168 -55.30665,0.36328 -8.28378,2.77126 -5.03278,13.22568 -5.60937,19.68945 0,35.99284 0,71.98568 0,107.97852 -8,0 -16,0 -24,0 C 92.154055,358.32407 91.788433,272.63934 92.208984,186.96875 94.203726,137.8608 125.47775,91.60526 170.01665,70.994967 188.0626,62.42178 208.02515,57.97814 228,58 Z m -93.96875,273.96875 c 15.32292,0 30.64583,0 45.96875,0 0,37.34375 0,74.6875 0,112.03125 -15.98958,0 -31.97917,0 -47.96875,0 0,-37.34375 0,-74.6875 0,-112.03125 h 1 z m 143.96875,0 c 15.32161,0 30.64323,0 45.96484,0 0,37.34375 0,74.6875 0,112.03125 -15.98828,0 -31.97656,0 -47.96484,0 0,-37.34375 0,-74.6875 0,-112.03125 h 1 z M 20,460 c 139.33203,0 278.66406,0 417.99609,0 0,11.33333 0,22.66667 0,34 C 297.9974,494 157.9987,494 18,494 c 0,-11.33333 0,-22.66667 0,-34 h 1 z"
         id="path2467"
         inkscape:connector-curvature="0" />
    </g>
    <rect
       y="200.8558"
       x="4.459928"
       height="1.7372519"
       width="28.263752"
       id="rect3759"
       style="opacity:1;fill:#186dbd;fill-opacity:1;stroke:none;stroke-width:1.56500006;stroke-linecap:round;stroke-miterlimit:4;stroke-dasharray:none;stroke-opacity:1;paint-order:stroke markers fill" />
    <rect
       y="171.65662"
       x="5.7962756"
       height="30.735994"
       width="25.657875"
       id="rect3757"
       style="opacity:1;fill:#186dbd;fill-opacity:1;stroke:none;stroke-width:1.56500006;stroke-linecap:round;stroke-miterlimit:4;stroke-dasharray:none;stroke-opacity:1;paint-order:stroke markers fill" />
    <rect
       y="174.46294"
       x="8.3353357"
       height="25.657875"
       width="20.713388"
       id="rect3755"
       style="opacity:1;fill:#83cffd;fill-opacity:1;stroke:none;stroke-width:1.56500018;stroke-linecap:round;stroke-miterlimit:4;stroke-dasharray:none;stroke-opacity:1;paint-order:stroke markers fill" />
    <rect
       y="169.7189"
       x="4.7271976"
       height="1.8040693"
       width="28.130117"
       id="rect3761"
       style="opacity:1;fill:#186dbd;fill-opacity:1;stroke:none;stroke-width:1.56500006;stroke-linecap:round;stroke-miterlimit:4;stroke-dasharray:none;stroke-opacity:1;paint-order:stroke markers fill" />
    <path
       style="opacity:1;fill:#72c9fd;fill-opacity:1;stroke:none;stroke-width:1.46499991;stroke-linecap:round;stroke-miterlimit:4;stroke-dasharray:none;stroke-opacity:1;paint-order:stroke markers fill"
       inkscape:transform-center-x="-3.421436"
       inkscape:transform-center-y="0.57802663"
       d="m 27.071702,200.0321 -18.7363659,0.0887 0.322267,-26.51073 c 3.7369959,20.99962 18.4140989,26.42197 18.4140989,26.42197 z"
       id="path5715"
       inkscape:connector-curvature="0"
       sodipodi:nodetypes="cccc" />
    <g
       transform="matrix(0.06743101,0,0,0.06743101,10.027381,169.00908)"
       style="stroke-width:3.92376375"
       id="g3708">
		<g
   style="stroke-width:3.92376375"
   id="g3706">
			<path
   style="fill:#032659;stroke-width:3.92376375"
   inkscape:connector-curvature="0"
   d="m 359.83952,459.8 h -17.067 -8.533 V 48.824 c 10.103,-3.391 17.067,-12.734 17.067,-24.224 0,-14.507 -11.093,-25.6 -25.6,-25.6 H -66.827432 c -14.507,0 -25.6,11.093 -25.6,25.6 0,11.362 7.329,20.629 17.067,24.113 V 459.8 h -8.533 -17.066998 c -5.12,0 -8.533,3.413 -8.533,8.533 0,5.12 3.413,8.533 8.533,8.533 h 8.532998 v 8.533 c 0,14.507 11.093,25.6 25.6,25.6 H 325.70552 c 14.507,0 25.6,-11.093 25.6,-25.6 v -8.533 h 8.533 c 5.12,0 8.533,-3.413 8.533,-8.533 0,-5.12 -3.412,-8.533 -8.532,-8.533 z M -66.827432,16.067 H 325.70552 c 5.12,0 8.533,3.413 8.533,8.533 0,5.12 -3.413,8.533 -8.533,8.533 H -66.827432 c -5.12,0 -8.533,-4.267 -8.533,-8.533 0,-4.266 4.267,-8.533 8.533,-8.533 z m 8.534,34.133 H 317.17352 v 409.6 h -17.067 V 323.267 75.8 c 0,-5.12 -3.413,-8.533 -8.533,-8.533 H -32.693432 c -5.12,0 -8.533,3.413 -8.533,8.533 V 323.267 459.8 h -17.067 z M 283.03952,314.733 H -24.160432 V 84.333 H 283.03952 Z M -24.160432,331.8 H 283.03952 v 128 H -24.160432 Z M 334.23952,485.4 c 0,5.12 -3.413,8.533 -8.533,8.533 H -66.827432 c -5.12,0 -8.533,-3.413 -8.533,-8.533 v -8.533 h 8.533 34.133 324.266952 34.133 8.533 v 8.533 z"
   data-original="#000000"
   class="active-path"
   data-old_color="#000000"
   id="path3692" />

			<path
   style="fill:#032659;stroke-width:3.92376375"
   inkscape:connector-curvature="0"
   d="m 127,144.067 c 2.56,0 4.267,-0.853 5.973,-2.56 l 25.6,-25.6 c 3.413,-3.413 3.413,-8.533 0,-11.947 -3.413,-3.414 -8.533,-3.413 -11.947,0 l -25.6,25.6 c -3.413,3.413 -3.413,8.533 0,11.947 1.707,1.706 3.414,2.56 5.974,2.56 z"
   data-original="#000000"
   class="active-path"
   data-old_color="#000000"
   id="path3694" />

			<path
   style="fill:#032659;stroke-width:3.92376375"
   inkscape:connector-curvature="0"
   d="m 189.293,158.573 c 1.707,1.707 3.413,2.56 5.973,2.56 2.56,0 4.267,-0.853 5.973,-2.56 l 42.667,-42.667 c 3.413,-3.413 3.413,-8.533 0,-11.947 -3.413,-3.414 -8.533,-3.413 -11.947,0 l -42.667,42.667 c -3.412,3.414 -3.412,8.534 0.001,11.947 z"
   data-original="#000000"
   class="active-path"
   data-old_color="#000000"
   id="path3696" />

			<path
   style="fill:#032659;stroke-width:3.92376375"
   inkscape:connector-curvature="0"
   d="m 127,229.4 c 2.56,0 4.267,-0.853 5.973,-2.56 l 17.067,-17.067 c 3.413,-3.413 3.413,-8.533 0,-11.947 -3.413,-3.414 -8.533,-3.413 -11.947,0 l -17.067,17.067 c -3.413,3.413 -3.413,8.533 0,11.947 1.707,1.707 3.414,2.56 5.974,2.56 z"
   data-original="#000000"
   class="active-path"
   data-old_color="#000000"
   id="path3698" />

			<path
   style="fill:#032659;stroke-width:3.92376375"
   inkscape:connector-curvature="0"
   d="m 127,186.733 c 2.56,0 4.267,-0.853 5.973,-2.56 l 17.067,-17.067 c 3.413,-3.413 3.413,-8.533 0,-11.947 -3.413,-3.414 -8.533,-3.413 -11.947,0 l -17.067,17.067 c -3.413,3.413 -3.413,8.533 0,11.947 1.707,1.707 3.414,2.56 5.974,2.56 z"
   data-original="#000000"
   class="active-path"
   data-old_color="#000000"
   id="path3700" />

			<path
   style="fill:#032659;stroke-width:3.92376375"
   inkscape:connector-curvature="0"
   d="m 163.693,141.507 c 1.707,1.707 3.413,2.56 5.973,2.56 2.56,0 4.267,-0.853 5.973,-2.56 l 25.6,-25.6 c 3.413,-3.413 3.413,-8.533 0,-11.947 -3.413,-3.414 -8.533,-3.413 -11.947,0 l -25.6,25.6 c -3.412,3.413 -3.412,8.533 0.001,11.947 z"
   data-original="#000000"
   class="active-path"
   data-old_color="#000000"
   id="path3702" />

			<path
   style="fill:#032659;stroke-width:3.92376375"
   inkscape:connector-curvature="0"
   d="m 169.667,169.667 c -5.12,0 -8.533,3.413 -8.533,8.533 0,5.12 3.413,8.533 8.533,8.533 5.12,0 8.533,-3.413 8.533,-8.533 0,-5.12 -3.413,-8.533 -8.533,-8.533 z"
   data-original="#000000"
   class="active-path"
   data-old_color="#000000"
   id="path3704" />

		</g>

	</g>
    <rect
       style="opacity:1;fill:#186dbd;fill-opacity:1;stroke:none;stroke-width:1.56500006;stroke-linecap:round;stroke-miterlimit:4;stroke-dasharray:none;stroke-opacity:1;paint-order:stroke markers fill"
       id="rect3814"
       width="28.263752"
       height="1.7372519"
       x="82.776642"
       y="200.8558" />
    <rect
       style="opacity:1;fill:#186dbd;fill-opacity:1;stroke:none;stroke-width:1.56500006;stroke-linecap:round;stroke-miterlimit:4;stroke-dasharray:none;stroke-opacity:1;paint-order:stroke markers fill"
       id="rect3816"
       width="25.657875"
       height="30.735994"
       x="84.112984"
       y="171.65662" />
    <rect
       style="opacity:1;fill:#83cffd;fill-opacity:1;stroke:none;stroke-width:1.56500018;stroke-linecap:round;stroke-miterlimit:4;stroke-dasharray:none;stroke-opacity:1;paint-order:stroke markers fill"
       id="rect3818"
       width="20.713388"
       height="25.657875"
       x="86.652046"
       y="174.46294" />
    <rect
       style="opacity:1;fill:#186dbd;fill-opacity:1;stroke:none;stroke-width:1.56500006;stroke-linecap:round;stroke-miterlimit:4;stroke-dasharray:none;stroke-opacity:1;paint-order:stroke markers fill"
       id="rect3820"
       width="28.130117"
       height="1.8040693"
       x="83.043907"
       y="169.7189" />
    <path
       sodipodi:nodetypes="cccc"
       inkscape:connector-curvature="0"
       id="path5731"
       d="m 105.38841,200.03212 -18.736364,0.0887 0.322267,-26.51073 c 3.736996,20.99962 18.414097,26.42197 18.414097,26.42197 z"
       inkscape:transform-center-y="0.57802663"
       inkscape:transform-center-x="-3.421436"
       style="opacity:1;fill:#72c9fd;fill-opacity:1;stroke:none;stroke-width:1.46499991;stroke-linecap:round;stroke-miterlimit:4;stroke-dasharray:none;stroke-opacity:1;paint-order:stroke markers fill" />
    <g
       id="g3838"
       style="stroke-width:3.92376375"
       transform="matrix(0.06743101,0,0,0.06743101,88.344091,169.00908)">
		<g
   id="g3836"
   style="stroke-width:3.92376375">
			<path
   id="path3822"
   data-old_color="#000000"
   class="active-path"
   data-original="#000000"
   d="m 359.83952,459.8 h -17.067 -8.533 V 48.824 c 10.103,-3.391 17.067,-12.734 17.067,-24.224 0,-14.507 -11.093,-25.6 -25.6,-25.6 H -66.827432 c -14.507,0 -25.6,11.093 -25.6,25.6 0,11.362 7.329,20.629 17.067,24.113 V 459.8 h -8.533 -17.066998 c -5.12,0 -8.533,3.413 -8.533,8.533 0,5.12 3.413,8.533 8.533,8.533 h 8.532998 v 8.533 c 0,14.507 11.093,25.6 25.6,25.6 H 325.70552 c 14.507,0 25.6,-11.093 25.6,-25.6 v -8.533 h 8.533 c 5.12,0 8.533,-3.413 8.533,-8.533 0,-5.12 -3.412,-8.533 -8.532,-8.533 z M -66.827432,16.067 H 325.70552 c 5.12,0 8.533,3.413 8.533,8.533 0,5.12 -3.413,8.533 -8.533,8.533 H -66.827432 c -5.12,0 -8.533,-4.267 -8.533,-8.533 0,-4.266 4.267,-8.533 8.533,-8.533 z m 8.534,34.133 H 317.17352 v 409.6 h -17.067 V 323.267 75.8 c 0,-5.12 -3.413,-8.533 -8.533,-8.533 H -32.693432 c -5.12,0 -8.533,3.413 -8.533,8.533 V 323.267 459.8 h -17.067 z M 283.03952,314.733 H -24.160432 V 84.333 H 283.03952 Z M -24.160432,331.8 H 283.03952 v 128 H -24.160432 Z M 334.23952,485.4 c 0,5.12 -3.413,8.533 -8.533,8.533 H -66.827432 c -5.12,0 -8.533,-3.413 -8.533,-8.533 v -8.533 h 8.533 34.133 324.266952 34.133 8.533 v 8.533 z"
   inkscape:connector-curvature="0"
   style="fill:#032659;stroke-width:3.92376375" />

			<path
   id="path3824"
   data-old_color="#000000"
   class="active-path"
   data-original="#000000"
   d="m 127,144.067 c 2.56,0 4.267,-0.853 5.973,-2.56 l 25.6,-25.6 c 3.413,-3.413 3.413,-8.533 0,-11.947 -3.413,-3.414 -8.533,-3.413 -11.947,0 l -25.6,25.6 c -3.413,3.413 -3.413,8.533 0,11.947 1.707,1.706 3.414,2.56 5.974,2.56 z"
   inkscape:connector-curvature="0"
   style="fill:#032659;stroke-width:3.92376375" />

			<path
   id="path3826"
   data-old_color="#000000"
   class="active-path"
   data-original="#000000"
   d="m 189.293,158.573 c 1.707,1.707 3.413,2.56 5.973,2.56 2.56,0 4.267,-0.853 5.973,-2.56 l 42.667,-42.667 c 3.413,-3.413 3.413,-8.533 0,-11.947 -3.413,-3.414 -8.533,-3.413 -11.947,0 l -42.667,42.667 c -3.412,3.414 -3.412,8.534 0.001,11.947 z"
   inkscape:connector-curvature="0"
   style="fill:#032659;stroke-width:3.92376375" />

			<path
   id="path3828"
   data-old_color="#000000"
   class="active-path"
   data-original="#000000"
   d="m 127,229.4 c 2.56,0 4.267,-0.853 5.973,-2.56 l 17.067,-17.067 c 3.413,-3.413 3.413,-8.533 0,-11.947 -3.413,-3.414 -8.533,-3.413 -11.947,0 l -17.067,17.067 c -3.413,3.413 -3.413,8.533 0,11.947 1.707,1.707 3.414,2.56 5.974,2.56 z"
   inkscape:connector-curvature="0"
   style="fill:#032659;stroke-width:3.92376375" />

			<path
   id="path3830"
   data-old_color="#000000"
   class="active-path"
   data-original="#000000"
   d="m 127,186.733 c 2.56,0 4.267,-0.853 5.973,-2.56 l 17.067,-17.067 c 3.413,-3.413 3.413,-8.533 0,-11.947 -3.413,-3.414 -8.533,-3.413 -11.947,0 l -17.067,17.067 c -3.413,3.413 -3.413,8.533 0,11.947 1.707,1.707 3.414,2.56 5.974,2.56 z"
   inkscape:connector-curvature="0"
   style="fill:#032659;stroke-width:3.92376375" />

			<path
   id="path3832"
   data-old_color="#000000"
   class="active-path"
   data-original="#000000"
   d="m 163.693,141.507 c 1.707,1.707 3.413,2.56 5.973,2.56 2.56,0 4.267,-0.853 5.973,-2.56 l 25.6,-25.6 c 3.413,-3.413 3.413,-8.533 0,-11.947 -3.413,-3.414 -8.533,-3.413 -11.947,0 l -25.6,25.6 c -3.412,3.413 -3.412,8.533 0.001,11.947 z"
   inkscape:connector-curvature="0"
   style="fill:#032659;stroke-width:3.92376375" />

			<path
   id="path3834"
   data-old_color="#000000"
   class="active-path"
   data-original="#000000"
   d="m 169.667,169.667 c -5.12,0 -8.533,3.413 -8.533,8.533 0,5.12 3.413,8.533 8.533,8.533 5.12,0 8.533,-3.413 8.533,-8.533 0,-5.12 -3.413,-8.533 -8.533,-8.533 z"
   inkscape:connector-curvature="0"
   style="fill:#032659;stroke-width:3.92376375" />

		</g>

	</g>
    <path
       inkscape:connector-curvature="0"
       id="path3842"
       d="M 113.46896,217.21289 H 83.156946"
       style="fill:none;stroke:#032659;stroke-width:1.36500001;stroke-linecap:round;stroke-linejoin:miter;stroke-miterlimit:4;stroke-dasharray:none;stroke-opacity:1" />
    <g
       style="stroke-width:1.13430536"
       transform="matrix(0.88158369,0,0,0.88160989,6.0000358,17.894361)"
       id="g2674">
      <g
         style="stroke-width:1.13430536"
         id="g2685"
         transform="translate(1.7953869,-0.66145833)">
        <g
           style="stroke-width:1.13430536"
           transform="translate(-3.7041668)"
           id="g2679">
          <path
             transform="translate(0,1.2291667e-6)"
             style="opacity:1;fill:#83cffd;fill-opacity:1;stroke:none;stroke-width:1.43489647;stroke-linecap:round;stroke-miterlimit:4;stroke-dasharray:none;stroke-opacity:1;paint-order:stroke markers fill"
             d="m 96.111068,227.45153 h 17.773112 l -0.97687,1.4522 -15.976913,0.15001 z"
             id="rect2661"
             inkscape:connector-curvature="0"
             sodipodi:nodetypes="ccccc" />
          <path
             sodipodi:nodetypes="csscccccccc"
             inkscape:connector-curvature="0"
             id="path2651"
             d="m 98.437194,227.30568 c 0,0 -2.402604,-2.94266 -2.452204,-4.60176 -0.06264,-2.09536 0.66642,-5.72974 2.828617,-6.12935 4.707463,-0.87002 11.253063,0.003 11.253063,0.003 l 0.86275,-0.003 1.59105,1.57061 0.80181,2.54577 -0.26727,4.6099 -1.74896,2.00484 -1.59191,0.33451 z"
             style="fill:#83cffd;fill-opacity:1;stroke:none;stroke-width:0.3001183px;stroke-linecap:butt;stroke-linejoin:miter;stroke-opacity:1" />
        </g>
        <path
           style="fill:#032659;stroke:#032659;stroke-width:0.52745199;stroke-miterlimit:4;stroke-dasharray:none;stroke-opacity:1"
           inkscape:connector-curvature="0"
           d="m 115.05756,209.42165 c -0.12036,0.004 -0.23786,0.01 -0.34945,0.0167 -0.48822,0.0303 -0.96394,0.096 -1.42366,0.19621 0.20827,-0.40294 0.45818,-0.80895 0.75896,-1.23184 0.13527,-0.19007 0.0908,-0.45401 -0.0993,-0.58928 -0.19028,-0.13504 -0.45401,-0.0908 -0.58906,0.0995 -0.42135,0.59213 -0.75282,1.1573 -1.01349,1.72795 -0.046,0.10063 -0.0881,0.20059 -0.12956,0.30056 -0.0903,0.0325 -0.1802,0.066 -0.26877,0.1015 -0.16968,0.0675 -0.33695,0.14184 -0.50247,0.21989 0.11575,-0.43911 0.27557,-0.89182 0.48625,-1.37521 0.0934,-0.21397 -0.005,-0.46301 -0.21836,-0.55618 -0.21374,-0.0932 -0.46278,0.004 -0.55618,0.21835 -0.28061,0.64387 -0.4801,1.24192 -0.60945,1.82813 -0.032,0.14513 -0.0577,0.28741 -0.0798,0.42004 -0.23062,0.14513 -0.45577,0.30078 -0.67478,0.46696 0.0186,-0.46784 0.0754,-0.95101 0.17078,-1.44099 0.0447,-0.22909 -0.10479,-0.45095 -0.33388,-0.49545 -0.22888,-0.0449 -0.45073,0.10479 -0.49546,0.33388 -0.12846,0.65944 -0.19379,1.30967 -0.19379,1.93293 0,0.11751 0.001,0.25409 0.006,0.39702 -0.18788,0.18196 -0.37532,0.37795 -0.56408,0.58928 -0.0311,-0.19401 -0.0559,-0.38277 -0.0726,-0.56275 -0.0265,-0.28302 -0.0522,-0.5838 -0.0509,-0.87362 0.001,-0.23348 -0.18722,-0.42333 -0.4207,-0.42443 -6.5e-4,0 -0.001,0 -0.002,0 -0.2326,0 -0.42157,0.18788 -0.42245,0.4207 -0.002,0.32796 0.0261,0.65198 0.0544,0.95583 0.0278,0.29815 0.0737,0.61515 0.13614,0.94268 0.0228,0.1186 0.0498,0.24685 0.0833,0.39636 -0.15411,0.21177 -0.30472,0.43582 -0.45182,0.67062 -0.1493,-0.45424 -0.27316,-0.91966 -0.3694,-1.39188 -0.0467,-0.22843 -0.26987,-0.37597 -0.49852,-0.3295 -0.22866,0.0467 -0.3762,0.26987 -0.3295,0.49853 0.1528,0.74954 0.37093,1.48373 0.6476,2.18591 -0.0134,0.0256 -0.0272,0.0504 -0.0403,0.0761 -0.0954,0.18591 -0.18788,0.37554 -0.27469,0.56408 -10e-4,0.003 -0.002,0.005 -0.003,0.008 h -2.7592 c 0.046,-0.61121 0.10808,-1.22066 0.18678,-1.81433 0.0105,-0.0796 0.0213,-0.1585 0.0324,-0.2372 0.67171,-0.58293 1.3397,-1.10425 1.9873,-1.54906 0.19248,-0.1322 0.24114,-0.39527 0.10917,-0.58753 -0.13219,-0.19226 -0.39505,-0.24115 -0.58753,-0.10918 -0.42705,0.29355 -0.862,0.61823 -1.30045,0.9703 0.0831,-0.4413 0.17538,-0.86814 0.27754,-1.28313 0.73638,-0.51409 1.45172,-0.94093 2.12782,-1.26779 0.21002,-0.10172 0.29815,-0.35427 0.19642,-0.56429 -0.1015,-0.21002 -0.35405,-0.29815 -0.56429,-0.19643 -0.45752,0.2212 -0.9304,0.48471 -1.41379,0.78637 0.13482,-0.43079 0.27929,-0.83811 0.43429,-1.22526 0.80083,-0.39834 1.55629,-0.6772 2.24729,-0.82912 0.228,-0.0502 0.37203,-0.27535 0.32205,-0.50335 -0.0502,-0.22799 -0.27557,-0.37203 -0.50335,-0.32182 -0.48778,0.1072 -1.00165,0.27074 -1.53546,0.48778 0.0763,-0.14842 0.15455,-0.29377 0.23545,-0.43583 0.13197,-0.23216 0.26965,-0.4538 0.41192,-0.66535 0.81399,-0.20191 1.57449,-0.25606 2.26287,-0.16135 0.23084,0.032 0.44437,-0.12957 0.47616,-0.36063 0.0318,-0.23129 -0.12978,-0.44438 -0.36085,-0.47638 -0.5051,-0.0695 -1.03979,-0.0697 -1.59817,-0.003 0.27864,-0.30692 0.57153,-0.58074 0.87735,-0.81904 0.01,-0.007 0.0195,-0.0145 0.0292,-0.0219 0.58731,0.0579 1.13472,0.20147 1.62864,0.42969 0.15784,0.0728 0.31086,0.15499 0.45511,0.24422 0.0693,0.043 0.14601,0.0634 0.22186,0.0634 0.1414,0 0.27974,-0.071 0.35975,-0.20015 0.12277,-0.1984 0.0614,-0.45884 -0.13701,-0.58161 -0.17319,-0.1072 -0.35669,-0.20564 -0.54544,-0.29289 -0.29004,-0.13395 -0.59498,-0.2429 -0.91242,-0.32709 0.58204,-0.28521 1.2064,-0.48142 1.85049,-0.57656 0.13899,-0.0206 0.28039,-0.037 0.42004,-0.0485 0.2326,-0.0191 0.40557,-0.22318 0.3865,-0.45578 -0.0191,-0.23238 -0.22405,-0.40579 -0.45577,-0.38627 -0.15785,0.0129 -0.31744,0.0314 -0.47463,0.0546 -0.75085,0.11115 -1.47869,0.34266 -2.15457,0.68114 0.22668,-0.5143 0.52198,-1.00274 0.88349,-1.45589 0.14535,-0.18261 0.11553,-0.44832 -0.0669,-0.59388 -0.1824,-0.14535 -0.44832,-0.11553 -0.59367,0.0671 -0.51606,0.64716 -0.91528,1.35877 -1.18624,2.11532 -0.0686,0.19117 -0.12847,0.3865 -0.17977,0.58249 -0.016,0.0121 -0.0322,0.0239 -0.048,0.0362 -0.35427,0.27601 -0.69144,0.59301 -1.01107,0.94794 0.0234,-0.56648 0.10764,-1.12507 0.25298,-1.66656 0.0603,-0.22537 -0.0732,-0.45709 -0.2988,-0.5176 -0.22537,-0.0605 -0.45687,0.0732 -0.51738,0.29859 -0.2087,0.77738 -0.30516,1.58611 -0.28697,2.40339 0.004,0.17757 0.0136,0.35843 0.0285,0.53973 -0.15631,0.23217 -0.30735,0.47485 -0.45182,0.72894 -0.0906,0.15937 -0.17824,0.32226 -0.26352,0.48843 -0.12868,-0.56122 -0.21177,-1.106 -0.25057,-1.64552 -0.0169,-0.23282 -0.21967,-0.40776 -0.45183,-0.3911 -0.23282,0.0169 -0.40776,0.21901 -0.3911,0.45183 0.0653,0.90497 0.24509,1.8198 0.54588,2.79054 -0.16662,0.41522 -0.32139,0.85148 -0.46542,1.31252 -0.22011,-0.52461 -0.40689,-1.03914 -0.56386,-1.55411 -0.0682,-0.22317 -0.30428,-0.34879 -0.52746,-0.28082 -0.22317,0.068 -0.34879,0.30406 -0.28083,0.52724 0.25869,0.84841 0.59323,1.69331 1.01853,2.57745 -0.10764,0.43604 -0.20454,0.88393 -0.29157,1.34715 -0.27623,-0.48756 -0.52834,-0.97117 -0.76094,-1.46049 -0.10018,-0.21068 -0.35252,-0.30034 -0.56297,-0.20015 -0.21068,0.10018 -0.30034,0.35229 -0.20016,0.56297 0.38102,0.80106 0.81136,1.58633 1.31186,2.39594 -0.0116,0.0829 -0.023,0.16617 -0.0342,0.25013 -0.0835,0.63006 -0.14908,1.27722 -0.19643,1.92548 h -2.09515 c -0.0268,-0.91133 -0.11378,-1.83384 -0.26066,-2.74473 -0.0114,-0.0721 -0.025,-0.14293 -0.0373,-0.2144 0.35251,-0.63423 0.66557,-1.2884 0.9304,-1.94718 0.0833,-0.20695 0.16376,-0.41916 0.23895,-0.6305 0.0783,-0.21988 -0.0364,-0.46147 -0.25627,-0.53973 -0.21945,-0.0783 -0.46126,0.0364 -0.53974,0.25605 -0.0715,0.20082 -0.14776,0.40229 -0.2269,0.59893 -0.12781,0.31788 -0.26855,0.63445 -0.41894,0.94838 -0.116847,-0.47507 -0.250577,-0.93654 -0.400967,-1.38201 0.25803,-0.71271 0.454677,-1.42826 0.583137,-2.12913 0.0331,-0.18065 0.0752,-0.42004 0.10611,-0.66711 0.0289,-0.23151 -0.13504,-0.44262 -0.36677,-0.47178 -0.230837,-0.0287 -0.442617,0.13526 -0.471547,0.36677 -0.0285,0.22602 -0.0677,0.45007 -0.0989,0.61975 -0.0623,0.33937 -0.1414,0.68268 -0.23698,1.02796 -0.19994,-0.4527 -0.420477,-0.88612 -0.660747,-1.29804 0.10457,-0.76335 0.13329,-1.51991 0.0831,-2.25147 -0.0149,-0.2155 -0.0364,-0.4356 -0.0658,-0.67346 -0.0285,-0.23151 -0.240057,-0.39571 -0.471117,-0.36743 -0.231507,0.0287 -0.395927,0.23962 -0.367427,0.47112 0.0276,0.2223 0.0476,0.42771 0.0614,0.62765 0.0239,0.34945 0.0285,0.70547 0.014,1.06588 -0.0877,-0.11707 -0.17692,-0.23172 -0.26834,-0.34397 -0.217027,-0.26702 -0.448537,-0.52242 -0.692527,-0.76663 -0.0954,-0.7513 -0.271627,-1.49009 -0.526587,-2.19776 -0.08089,-0.22449 -0.168585,-0.44306 -0.26066,-0.64979 -0.09493,-0.21309 -0.344845,-0.30867 -0.557933,-0.21374 -0.213089,0.0951 -0.308672,0.34484 -0.213747,0.55793 0.08375,0.18788 0.163544,0.38694 0.237423,0.59191 0.119917,0.33279 0.221201,0.67325 0.303192,1.01897 -0.333007,-0.2554 -0.683551,-0.4937 -1.051195,-0.71293 -0.06029,-0.0359 -0.121452,-0.0712 -0.183055,-0.1061 -0.277103,-0.65176 -0.64102,-1.30462 -1.085394,-1.94301 -0.130001,-0.18635 -0.268773,-0.37444 -0.412366,-0.55859 -0.143594,-0.18415 -0.409078,-0.21682 -0.59301,-0.0732 -0.183932,0.1436 -0.216816,0.40908 -0.07322,0.59301 0.134387,0.17232 0.26395,0.3477 0.385183,0.52177 0.202565,0.29091 0.386716,0.58446 0.552013,0.87888 -0.665356,-0.26198 -1.386175,-0.46871 -2.156759,-0.61779 -0.158063,-0.0307 -0.319414,-0.0588 -0.479231,-0.0837 -0.230846,-0.036 -0.446566,0.12211 -0.4823,0.35252 -0.03595,0.23062 0.121891,0.44656 0.352518,0.48252 0.149513,0.0232 0.30056,0.0495 0.448539,0.078 0.712927,0.1379 1.378062,0.32797 1.990144,0.56758 -0.508826,0.17209 -1.008006,0.38759 -1.49206,0.64694 -0.205635,0.11027 -0.283023,0.36611 -0.17297,0.57196 0.07629,0.14206 0.222077,0.22296 0.372905,0.22296 0.06708,0 0.135483,-0.016 0.199058,-0.0502 0.723231,-0.38716 1.481538,-0.66843 2.256068,-0.83965 0.04735,0.027 0.09471,0.0541 0.141182,0.0818 0.32906,0.1962 0.642774,0.40864 0.941362,0.63597 -0.559907,0.0276 -1.094382,0.10589 -1.596851,0.23655 -0.225805,0.0585 -0.361287,0.28916 -0.302753,0.51497 0.04955,0.19028 0.220981,0.31634 0.408639,0.31634 0.0353,0 0.07103,-0.004 0.106545,-0.0136 0.714462,-0.18569 1.506748,-0.25343 2.356035,-0.20476 0.220758,0.2212 0.430118,0.45249 0.626325,0.69385 0.0798,0.098 0.15763,0.19819 0.23436,0.30013 -0.543247,-0.12299 -1.080132,-0.19731 -1.6054,-0.22055 -0.233477,-0.01 -0.430343,0.17056 -0.440647,0.4036 -0.0103,0.23304 0.17034,0.43034 0.403598,0.44065 0.760718,0.0335 1.552119,0.18634 2.354496,0.45139 0.217467,0.374 0.417837,0.76707 0.600234,1.1779 -0.514087,-0.25254 -1.012164,-0.45182 -1.510681,-0.6044 -0.222737,-0.0682 -0.459067,0.0572 -0.527467,0.28039 -0.0684,0.22317 0.0572,0.45928 0.28018,0.52768 0.604187,0.18481 1.211884,0.44656 1.857498,0.79996 0.12211,0.0669 0.24685,0.13855 0.37159,0.21199 0.139867,0.415 0.264167,0.8449 0.373557,1.28774 -0.451167,-0.32972 -0.908464,-0.62787 -1.364464,-0.88897 -0.202557,-0.11597 -0.460587,-0.0458 -0.576564,0.15675 -0.11597,0.20235 -0.0458,0.4606 0.156527,0.57657 0.569987,0.32621 1.143044,0.71468 1.703831,1.15423 0.11597,0.0908 0.23172,0.18503 0.346807,0.28039 0.0114,0.0667 0.0239,0.13263 0.0346,0.19972 0.13965,0.86638 0.22296,1.74373 0.24948,2.61034 h -2.213738 c -0.1265,-0.44964 -0.288727,-0.90168 -0.482957,-1.34825 0.307567,-0.76225 0.526357,-1.56221 0.648467,-2.3819 0.0344,-0.23085 -0.12474,-0.44569 -0.35558,-0.48011 -0.230847,-0.0344 -0.445687,0.12474 -0.480107,0.35558 -0.0741,0.49765 -0.186997,0.98718 -0.336077,1.46422 -0.16529,-0.28894 -0.34177,-0.56758 -0.530963,-0.83306 0.02083,-0.11992 0.041,-0.24466 0.05722,-0.36984 0.04341,-0.33607 0.06818,-0.67237 0.073,-0.99989 0.0055,-0.35493 -0.01009,-0.72323 -0.04735,-1.12595 -0.02148,-0.23238 -0.226681,-0.40338 -0.4595,-0.3819 -0.232381,0.0215 -0.403159,0.22712 -0.381675,0.4595 0.0342,0.37247 0.04867,0.71118 0.04363,1.03563 -0.0022,0.15609 -0.0099,0.31459 -0.02214,0.47419 -0.22975,-0.24904 -0.469803,-0.48076 -0.719065,-0.69517 -0.06599,-0.83175 -0.264169,-1.65933 -0.590159,-2.46302 -0.08769,-0.21615 -0.333884,-0.32029 -0.550261,-0.2326 -0.216377,0.0877 -0.32051,0.33411 -0.232819,0.55026 0.192481,0.47485 0.33476,0.95825 0.427273,1.44515 -0.285214,-0.17977 -0.579855,-0.33958 -0.883485,-0.47857 -0.28653,-0.75919 -0.705692,-1.49842 -1.248061,-2.19995 -0.142717,-0.18459 -0.407982,-0.21857 -0.592571,-0.0759 -0.184589,0.14272 -0.218569,0.40798 -0.07585,0.59257 0.319194,0.41302 0.590159,0.8392 0.811798,1.27393 -0.229093,-0.066 -0.4595,-0.12167 -0.690785,-0.16552 -0.09734,-0.0184 -0.194235,-0.0346 -0.289599,-0.0487 -0.06708,-0.0914 -0.135921,-0.18261 -0.20717,-0.27206 -0.203662,-0.2554 -0.426616,-0.50663 -0.662943,-0.74625 -0.267896,-0.27184 -0.555522,-0.53206 -0.855205,-0.77343 -0.18174,-0.14622 -0.447662,-0.11772 -0.594106,0.0642 -0.146444,0.18152 -0.117725,0.44767 0.06401,0.59389 0.274692,0.2212 0.538203,0.4595 0.783518,0.70854 0.103037,0.10457 0.203005,0.21134 0.299903,0.31986 -0.456869,-0.0105 -0.958681,0.0221 -1.574709,0.1015 -0.179766,0.0232 -0.325114,0.0469 -0.457747,0.075 -0.228215,0.0482 -0.37422,0.2725 -0.325771,0.50072 0.04823,0.22843 0.272499,0.37422 0.500715,0.32599 0.111367,-0.0235 0.231942,-0.0432 0.390663,-0.0636 0.560344,-0.0721 1.013487,-0.10303 1.420154,-0.0954 -0.34046,0.36107 -0.648475,0.75195 -0.918782,1.16717 -0.127371,0.19533 -0.07212,0.45708 0.123425,0.58445 0.07125,0.0465 0.151267,0.0686 0.230189,0.0686 0.138113,0 0.273376,-0.0677 0.35449,-0.19204 0.324895,-0.49896 0.710516,-0.95934 1.145901,-1.36885 0.05152,-0.0482 0.103475,-0.096 0.15609,-0.14272 0.0066,-0.006 0.01315,-0.0114 0.01951,-0.0171 0.07958,0.0121 0.159817,0.0252 0.240054,0.0406 0.192481,0.0364 0.384524,0.0818 0.575471,0.1357 -0.419381,0.26219 -0.80851,0.56517 -1.161904,0.9076 -0.167709,0.16223 -0.171874,0.42968 -0.0096,0.59717 0.08287,0.0857 0.193139,0.12869 0.30363,0.12869 0.105886,0 0.211773,-0.0397 0.293983,-0.11904 0.471997,-0.45753 1.016996,-0.83548 1.62009,-1.12792 0.247507,0.11465 0.49085,0.24706 0.728272,0.39548 -0.486246,0.13658 -0.94443,0.32117 -1.368854,0.55289 -0.204759,0.11203 -0.279953,0.36874 -0.168148,0.5735 0.07673,0.14031 0.221639,0.21989 0.371152,0.21989 0.0684,0 0.137894,-0.0167 0.202128,-0.0517 0.556179,-0.30385 1.182292,-0.51497 1.862554,-0.63116 0.21002,0.18086 0.411928,0.37488 0.603752,0.58074 -0.486466,0.007 -0.977096,0.0594 -1.464876,0.15894 -0.228435,0.0467 -0.375975,0.26986 -0.32928,0.49852 0.04078,0.20015 0.216816,0.33805 0.413463,0.33805 0.02806,0 0.05656,-0.003 0.08506,-0.009 0.60134,-0.12299 1.206626,-0.16705 1.79854,-0.13154 0.06818,0.004 0.13614,0.009 0.204101,0.0151 6.56e-4,0 0.0013,2.2e-4 0.0018,2.2e-4 0.162447,0.22866 0.314152,0.46849 0.457527,0.71644 -0.494796,-0.1083 -0.984769,-0.17451 -1.464657,-0.19577 -0.234135,-0.0108 -0.430563,0.1699 -0.440866,0.40315 -0.01052,0.23304 0.17012,0.43057 0.403159,0.44087 0.651543,0.0292 1.326324,0.14995 2.008116,0.35734 0.14294,0.3306 0.2668,0.66382 0.36962,0.99573 h -1.798099 c -0.116629,0 -0.228216,0.0482 -0.308015,0.13351 -1.569006,1.67138 -2.432981,3.85467 -2.432981,6.14735 0,1.80139 0.51935,3.51026 1.508283,4.98522 h -1.536563 c -0.233477,0 -0.422451,0.1892 -0.422451,0.42245 0,1.22702 0.998142,2.22516 2.224937,2.22516 H 108.3771 c 1.22701,0 2.22515,-0.99814 2.22515,-2.22516 0,-0.23325 -0.18919,-0.42245 -0.42245,-0.42245 h -1.53722 c 0.98893,-1.47562 1.50894,-3.18581 1.50894,-4.98522 0,-2.29268 -0.86419,-4.47597 -2.43298,-6.14735 -0.0798,-0.0853 -0.19139,-0.13351 -0.30802,-0.13351 h -0.11049 c 0.0307,-0.062 0.0614,-0.12453 0.0932,-0.18613 0.0103,-0.0202 0.021,-0.0395 0.0313,-0.0594 0.66843,-0.12101 1.33093,-0.18261 1.97173,-0.17823 h 0.002 c 0.23239,0 0.42136,-0.18788 0.42224,-0.42048 0.001,-0.23348 -0.18722,-0.42333 -0.42048,-0.42442 -0.47024,-0.001 -0.9532,0.0281 -1.44076,0.0877 0.12846,-0.20454 0.25978,-0.39987 0.39373,-0.58468 0.039,-8.8e-4 0.0778,-0.002 0.11663,-0.003 0.29069,-0.004 0.58095,0.003 0.86156,0.023 0.35361,0.025 0.66842,0.068 0.96241,0.13131 0.03,0.007 0.0598,0.01 0.0894,0.01 0.19468,0 0.36984,-0.13548 0.41259,-0.33344 0.0491,-0.22822 -0.096,-0.45293 -0.32402,-0.50225 -0.33344,-0.0717 -0.68684,-0.12014 -1.08079,-0.14798 -0.11663,-0.008 -0.23479,-0.014 -0.35339,-0.0184 0.16179,-0.17998 0.32226,-0.34725 0.48252,-0.5029 0.008,0.001 0.0149,0.002 0.0226,0.004 l 0.0452,0.008 c 0.32423,0.0572 0.60331,0.1197 0.85323,0.19117 0.31262,0.0897 0.62282,0.20015 0.92163,0.32862 0.0544,0.0235 0.11093,0.0344 0.16661,0.0344 0.16377,0 0.31964,-0.0958 0.38847,-0.25584 0.0921,-0.2144 -0.007,-0.46279 -0.22142,-0.55486 -0.33169,-0.14272 -0.67587,-0.26527 -1.02291,-0.36458 -0.10852,-0.0311 -0.22164,-0.0605 -0.34002,-0.0886 0.18415,-0.13833 0.37334,-0.26811 0.56648,-0.39022 0.0158,0.006 0.0318,0.0116 0.0473,0.0178 0.26045,0.10194 0.53097,0.22777 0.80413,0.37378 0.26439,0.1414 0.5325,0.31108 0.81969,0.51891 0.0748,0.0541 0.16135,0.0802 0.24729,0.0802 0.13088,0 0.26,-0.0607 0.34265,-0.17495 0.1368,-0.18897 0.0943,-0.45314 -0.0947,-0.58994 -0.31832,-0.23018 -0.61801,-0.41982 -0.91637,-0.57919 -0.10414,-0.0557 -0.20805,-0.10786 -0.31153,-0.15829 0.13768,-0.064 0.27645,-0.12561 0.41741,-0.18174 0.0704,-0.0281 0.14206,-0.0539 0.21397,-0.08 0.0143,0.01 0.0283,0.0191 0.043,0.0289 l 0.0386,0.0261 c 0.228,0.15368 0.4549,0.32862 0.67434,0.52001 0.23348,0.20388 0.46783,0.43429 0.69671,0.68508 0.0833,0.0912 0.19752,0.13746 0.31218,0.13746 0.10172,0 0.20366,-0.0364 0.28477,-0.11027 0.17232,-0.15741 0.18437,-0.42464 0.027,-0.59696 -0.25014,-0.27425 -0.50773,-0.52724 -0.7651,-0.75195 -0.0923,-0.0807 -0.18635,-0.15784 -0.28105,-0.23325 0.40666,-0.0866 0.82758,-0.14426 1.26011,-0.17122 0.10392,-0.007 0.21353,-0.0118 0.32599,-0.0156 0.23326,-0.008 0.41566,-0.20344 0.40777,-0.4367 -0.008,-0.23347 -0.2052,-0.41587 -0.4367,-0.40798 z m -5.75055,12.57773 c 0,1.82462 -0.58972,3.54797 -1.70515,4.98522 h -1.45106 c -0.23326,0 -0.42245,0.1892 -0.42245,0.42245 0,0.23326 0.18919,0.42246 0.42245,0.42246 h 3.54073 c -0.17888,0.55508 -0.70043,0.95758 -1.31404,0.95758 H 93.95696 c -0.613617,0 -1.135158,-0.4025 -1.313828,-0.95758 h 11.449998 c 0.23348,0 0.42245,-0.1892 0.42245,-0.42246 0,-0.23325 -0.18897,-0.42245 -0.42245,-0.42245 h -9.360105 c -1.115867,-1.43681 -1.705369,-3.1584 -1.705369,-4.98522 0,-2.01667 0.737919,-3.93974 2.081782,-5.43596 h 12.115792 c 1.34386,1.49601 2.08178,3.41929 2.08178,5.43596 z m 0,0"
           data-original="#000000"
           class="active-path"
           data-old_color="#000000"
           id="path2626" />
      </g>
    </g>
    <g
       id="g4000"
       transform="translate(2.1166667,-14.816672)">
      <g
         id="g2904"
         transform="matrix(0.84622044,0,0,0.84622044,-121.20256,95.658114)"
         style="stroke-width:1.18172514">
        <path
           inkscape:connector-curvature="0"
           id="path2896"
           d="m 148.26116,235.20088 -1.79539,-2.17336 -0.28348,-2.83483 -0.0945,-2.07886 1.22842,-3.2128 -0.28348,-4.25223 -0.28349,-3.49628 1.22843,-4.15774 1.41741,-1.98438 6.04762,-1.98437 7.18154,-0.0945 5.10268,1.98438 1.98438,0.94494 1.6064,3.1183 0.75595,3.49628 -0.56696,3.3073 -0.28349,2.64583 0.75595,2.55134 0.47247,2.55134 v 2.26785 l -0.94493,2.17336 -1.7009,1.32292 -7.27604,0.18899 h -12.56771 z"
           style="fill:#e8f0f7;fill-opacity:1;stroke:none;stroke-width:0.31266478px;stroke-linecap:butt;stroke-linejoin:miter;stroke-opacity:1" />
        <path
           inkscape:connector-curvature="0"
           id="path2898"
           d="m 155.72619,208.45906 v -1.13392 l -2.64583,-4.63021 -0.18899,-1.13393 0.47247,-0.66146 1.13393,-0.47247 1.22842,-0.18899 -0.56697,-1.03943 0.28349,-0.94494 9.63839,-0.0945 0.82646,1.48785 -3.27406,7.684 0.0668,1.73725 h -6.61492 z"
           style="fill:#e8f0f7;fill-opacity:1;stroke:none;stroke-width:0.31266478px;stroke-linecap:butt;stroke-linejoin:miter;stroke-opacity:1" />
        <g
           style="stroke-width:1.33090603"
           transform="matrix(0.24250454,0,0,0.24250454,-70.100557,204.65333)"
           id="g2902">
          <path
             sodipodi:nodetypes="cccscccccssssccsscccccscccscsscscsscsscsscsscsscccsscccsccccccsscscccsscccsccccccscccsscccsc"
             style="fill:#032659;stroke:#032659;stroke-width:1.81762981;stroke-miterlimit:4;stroke-dasharray:none;stroke-opacity:1"
             inkscape:connector-curvature="0"
             d="m 1001.3225,92.826402 -3.73809,-11.215765 2.14949,-15.03558 c 0.3825,-2.670877 0.5745,-5.39484 0.5745,-8.099747 0,-8.840296 -2.09099,-17.694204 -6.04421,-25.60473 -1.97661,-3.946415 -5.28593,-7.10872 -9.31675,-8.901554 l -22.4586,-8.039848 v -4.526484 l 12.45236,-31.104417 c 0.25728,-0.778665 0.38525,-1.581833 0.38525,-2.386362 0,-4.18192 -3.40462,-7.586536 -7.58654,-7.586536 h -35.2972 c -4.024,0 -7.2993,3.27257 -7.2993,7.299301 0,1.125797 0.26818,2.254316 0.76914,3.264402 l 1.68938,-0.98815 h -1.13397 c -5.34175,0 -9.68839,4.346637 -9.68839,9.688386 0,1.3653858 0.2818,2.6899328 0.83312,3.9368848 l 11.42079,18.0207882 v 4.382187 l -22.4586,8.042573 c -4.03082,1.792835 -7.34014,4.955139 -9.31676,8.902913 -3.95322,7.909164 -6.04418,16.76035 -6.04418,25.600646 0,2.704907 0.19195,5.426148 0.57447,8.097022 l 2.1495,15.03558 -3.73814,11.215769 c -1.17752,3.525773 -1.77377,7.201289 -1.77377,10.917639 0,6.25518 1.70026,12.39738 4.9211,17.76091 2.86826,4.78498 8.11745,7.7567 13.69742,7.7567 h 77.43736 c 5.57861,0 10.82779,-2.97172 13.69606,-7.7567 3.21806,-5.36353 4.91836,-11.50573 4.91836,-17.76091 0,-3.71635 -0.5962,-7.391866 -1.7738,-10.914918 z M 922.35547,-10.410682 c 0,-2.266568 1.8432,-4.112493 4.11249,-4.112493 h 3.92191 c 0,0 2.67803,3.082377 6.20073,12.3973773 0.65759,1.73886258 5.7766,-0.811851 4.98781,-2.495267 -5.68377,-12.1302733 -10.67533,-16.9851193 -10.67533,-16.9851193 -0.12252,-0.236867 -0.18377,-0.505043 -0.18377,-0.769136 0,-0.95155 0.77185,-1.723408 1.7234,-1.723408 h 25.21948 c 0,0 -1.77949,0.298772 -4.52497,11.019894 -0.46088,1.79978 4.82279,3.3546098 5.3472,1.572304 4.44871,-15.119677 4.98781,-12.592198 4.98781,-12.592198 h 4.26768 c 1.10946,0 2.01065,0.901182 2.01065,2.010643 0,0.213724 -0.0368,0.434255 -0.10074,0.635728 L 957.69297,8.1655185 h -5.41934 c 0,0 0.93406,-0.5820974 3.58756,-10.7500752 0.46916,-1.797774 -4.82898,-3.3579165 -5.34719,-1.573665 -1.96679,6.7717938 -4.05041,12.3237402 -4.05041,12.3237402 H 933.63332 L 922.70941,-8.7403642 c -0.23415,-0.528185 -0.35394,-1.090403 -0.35394,-1.6703178 z m 34.55747,24.152093 v 1.211714 h -22.30357 v -1.211714 z m 36.4841,104.889829 c -1.8677,3.11738 -5.28593,5.05179 -8.91925,5.05179 h -77.43327 c -3.63331,0 -7.04882,-1.93441 -8.91652,-5.05179 -2.6981,-4.49366 -4.12611,-9.64346 -4.12611,-14.88992 0,-3.11738 0.50232,-6.195283 1.48382,-9.15067 l 1.82006,-5.45882 2.89685,5.793701 c 0,0 2.31702,3.073983 8.97915,5.985649 1.70304,0.7443 4.61074,-3.566743 3.09288,-4.639322 -5.67278,-4.008586 -7.74854,-5.166141 -7.74854,-5.166141 l -5.0409,-10.083163 -2.17672,-15.239775 c -0.34577,-2.408145 -0.51865,-4.868016 -0.51865,-7.307469 0,-7.978591 1.88676,-15.972156 5.45609,-23.109462 1.3967,-2.793394 3.74086,-5.031372 6.59279,-6.300107 l 23.57351,-8.536724 h 26.69786 l 23.57351,8.536724 c 2.85192,1.271457 5.19609,3.506713 6.59278,6.300107 3.56934,7.140028 5.4561,15.130871 5.4561,23.109462 0,2.439453 -0.17288,4.899324 -0.52138,7.307469 l -0.97878,6.847349 -4.07573,-8.151477 c 0,0 0.0621,-1.509841 0,-10.494277 -0.0128,-1.858588 -5.4905,-1.856668 -5.5759,0 -0.37202,8.088666 0,11.809295 0,11.809295 l 8.57076,17.142873 3.88243,11.654108 c 0.98422,2.955387 1.48655,6.03329 1.48655,9.15067 0,5.24646 -1.42801,10.39626 -4.12339,14.88992 z"
             data-original="#000000"
             class="active-path"
             data-old_color="#000000"
             id="path2900" />
        </g>
      </g>
      <g
         style="stroke-width:1.18172514"
         transform="matrix(0.84622044,0,0,0.84622044,-111.14833,96.716448)"
         id="g2894">
        <path
           style="fill:#e8f0f7;fill-opacity:1;stroke:none;stroke-width:0.31266478px;stroke-linecap:butt;stroke-linejoin:miter;stroke-opacity:1"
           d="m 148.26116,235.20088 -1.79539,-2.17336 -0.28348,-2.83483 -0.0945,-2.07886 1.22842,-3.2128 -0.28348,-4.25223 -0.28349,-3.49628 1.22843,-4.15774 1.41741,-1.98438 6.04762,-1.98437 7.18154,-0.0945 5.10268,1.98438 1.98438,0.94494 1.6064,3.1183 0.75595,3.49628 -0.56696,3.3073 -0.28349,2.64583 0.75595,2.55134 0.47247,2.55134 v 2.26785 l -0.94493,2.17336 -1.7009,1.32292 -7.27604,0.18899 h -12.56771 z"
           id="path2886"
           inkscape:connector-curvature="0" />
        <path
           style="fill:#e8f0f7;fill-opacity:1;stroke:none;stroke-width:0.31266478px;stroke-linecap:butt;stroke-linejoin:miter;stroke-opacity:1"
           d="m 155.72619,208.45906 v -1.13392 l -2.64583,-4.63021 -0.18899,-1.13393 0.47247,-0.66146 1.13393,-0.47247 1.22842,-0.18899 -0.56697,-1.03943 0.28349,-0.94494 9.63839,-0.0945 0.82646,1.48785 -3.27406,7.684 0.0668,1.73725 h -6.61492 z"
           id="path2888"
           inkscape:connector-curvature="0" />
        <g
           id="g2853"
           transform="matrix(0.24250454,0,0,0.24250454,-70.100557,204.65333)"
           style="stroke-width:1.33090603">
          <path
             id="path2849"
             data-old_color="#000000"
             class="active-path"
             data-original="#000000"
             d="m 1001.3225,92.826402 -3.73809,-11.215765 2.14949,-15.03558 c 0.3825,-2.670877 0.5745,-5.39484 0.5745,-8.099747 0,-8.840296 -2.09099,-17.694204 -6.04421,-25.60473 -1.97661,-3.946415 -5.28593,-7.10872 -9.31675,-8.901554 l -22.4586,-8.039848 v -4.526484 l 12.45236,-31.104417 c 0.25728,-0.778665 0.38525,-1.581833 0.38525,-2.386362 0,-4.18192 -3.40462,-7.586536 -7.58654,-7.586536 h -35.2972 c -4.024,0 -7.2993,3.27257 -7.2993,7.299301 0,1.125797 0.26818,2.254316 0.76914,3.264402 l 1.68938,-0.98815 h -1.13397 c -5.34175,0 -9.68839,4.346637 -9.68839,9.688386 0,1.3653858 0.2818,2.6899328 0.83312,3.9368848 l 11.42079,18.0207882 v 4.382187 l -22.4586,8.042573 c -4.03082,1.792835 -7.34014,4.955139 -9.31676,8.902913 -3.95322,7.909164 -6.04418,16.76035 -6.04418,25.600646 0,2.704907 0.19195,5.426148 0.57447,8.097022 l 2.1495,15.03558 -3.73814,11.215769 c -1.17752,3.525773 -1.77377,7.201289 -1.77377,10.917639 0,6.25518 1.70026,12.39738 4.9211,17.76091 2.86826,4.78498 8.11745,7.7567 13.69742,7.7567 h 77.43736 c 5.57861,0 10.82779,-2.97172 13.69606,-7.7567 3.21806,-5.36353 4.91836,-11.50573 4.91836,-17.76091 0,-3.71635 -0.5962,-7.391866 -1.7738,-10.914918 z M 922.35547,-10.410682 c 0,-2.266568 1.8432,-4.112493 4.11249,-4.112493 h 3.92191 c 0,0 2.67803,3.082377 6.20073,12.3973773 0.65759,1.73886258 5.7766,-0.811851 4.98781,-2.495267 -5.68377,-12.1302733 -10.67533,-16.9851193 -10.67533,-16.9851193 -0.12252,-0.236867 -0.18377,-0.505043 -0.18377,-0.769136 0,-0.95155 0.77185,-1.723408 1.7234,-1.723408 h 25.21948 c 0,0 -1.77949,0.298772 -4.52497,11.019894 -0.46088,1.79978 4.82279,3.3546098 5.3472,1.572304 4.44871,-15.119677 4.98781,-12.592198 4.98781,-12.592198 h 4.26768 c 1.10946,0 2.01065,0.901182 2.01065,2.010643 0,0.213724 -0.0368,0.434255 -0.10074,0.635728 L 957.69297,8.1655185 h -5.41934 c 0,0 0.93406,-0.5820974 3.58756,-10.7500752 0.46916,-1.797774 -4.82898,-3.3579165 -5.34719,-1.573665 -1.96679,6.7717938 -4.05041,12.3237402 -4.05041,12.3237402 H 933.63332 L 922.70941,-8.7403642 c -0.23415,-0.528185 -0.35394,-1.090403 -0.35394,-1.6703178 z m 34.55747,24.152093 v 1.211714 h -22.30357 v -1.211714 z m 36.4841,104.889829 c -1.8677,3.11738 -5.28593,5.05179 -8.91925,5.05179 h -77.43327 c -3.63331,0 -7.04882,-1.93441 -8.91652,-5.05179 -2.6981,-4.49366 -4.12611,-9.64346 -4.12611,-14.88992 0,-3.11738 0.50232,-6.195283 1.48382,-9.15067 l 1.82006,-5.45882 2.89685,5.793701 c 0,0 2.31702,3.073983 8.97915,5.985649 1.70304,0.7443 4.61074,-3.566743 3.09288,-4.639322 -5.67278,-4.008586 -7.74854,-5.166141 -7.74854,-5.166141 l -5.0409,-10.083163 -2.17672,-15.239775 c -0.34577,-2.408145 -0.51865,-4.868016 -0.51865,-7.307469 0,-7.978591 1.88676,-15.972156 5.45609,-23.109462 1.3967,-2.793394 3.74086,-5.031372 6.59279,-6.300107 l 23.57351,-8.536724 h 26.69786 l 23.57351,8.536724 c 2.85192,1.271457 5.19609,3.506713 6.59278,6.300107 3.56934,7.140028 5.4561,15.130871 5.4561,23.109462 0,2.439453 -0.17288,4.899324 -0.52138,7.307469 l -0.97878,6.847349 -4.07573,-8.151477 c 0,0 0.0621,-1.509841 0,-10.494277 -0.0128,-1.858588 -5.4905,-1.856668 -5.5759,0 -0.37202,8.088666 0,11.809295 0,11.809295 l 8.57076,17.142873 3.88243,11.654108 c 0.98422,2.955387 1.48655,6.03329 1.48655,9.15067 0,5.24646 -1.42801,10.39626 -4.12339,14.88992 z"
             inkscape:connector-curvature="0"
             style="fill:#032659;stroke:#032659;stroke-width:1.81762981;stroke-miterlimit:4;stroke-dasharray:none;stroke-opacity:1"
             sodipodi:nodetypes="cccscccccssssccsscccccscccscsscscsscsscsscsscsscccsscccsccccccsscscccsscccsccccccscccsscccsc" />
        </g>
      </g>
    </g>
    <g
       id="g3948"
       transform="matrix(0.88158369,0,0,0.88160989,-71.258337,17.894361)"
       style="stroke-width:1.13430536">
      <g
         transform="translate(1.7953869,-0.66145833)"
         id="g3946"
         style="stroke-width:1.13430536">
        <g
           id="g3942"
           transform="translate(-3.7041668)"
           style="stroke-width:1.13430536">
          <path
             sodipodi:nodetypes="ccccc"
             inkscape:connector-curvature="0"
             id="path3938"
             d="m 96.111068,227.45153 h 17.773112 l -0.97687,1.4522 -15.976913,0.15001 z"
             style="opacity:1;fill:#83cffd;fill-opacity:1;stroke:none;stroke-width:1.43489647;stroke-linecap:round;stroke-miterlimit:4;stroke-dasharray:none;stroke-opacity:1;paint-order:stroke markers fill"
             transform="translate(0,1.2291667e-6)" />
          <path
             style="fill:#83cffd;fill-opacity:1;stroke:none;stroke-width:0.3001183px;stroke-linecap:butt;stroke-linejoin:miter;stroke-opacity:1"
             d="m 98.437194,227.30568 c 0,0 -2.402604,-2.94266 -2.452204,-4.60176 -0.06264,-2.09536 0.66642,-5.72974 2.828617,-6.12935 4.707463,-0.87002 11.253063,0.003 11.253063,0.003 l 0.86275,-0.003 1.59105,1.57061 0.80181,2.54577 -0.26727,4.6099 -1.74896,2.00484 -1.59191,0.33451 z"
             id="path3940"
             inkscape:connector-curvature="0"
             sodipodi:nodetypes="csscccccccc" />
        </g>
        <path
           id="path3944"
           data-old_color="#000000"
           class="active-path"
           data-original="#000000"
           d="m 115.05756,209.42165 c -0.12036,0.004 -0.23786,0.01 -0.34945,0.0167 -0.48822,0.0303 -0.96394,0.096 -1.42366,0.19621 0.20827,-0.40294 0.45818,-0.80895 0.75896,-1.23184 0.13527,-0.19007 0.0908,-0.45401 -0.0993,-0.58928 -0.19028,-0.13504 -0.45401,-0.0908 -0.58906,0.0995 -0.42135,0.59213 -0.75282,1.1573 -1.01349,1.72795 -0.046,0.10063 -0.0881,0.20059 -0.12956,0.30056 -0.0903,0.0325 -0.1802,0.066 -0.26877,0.1015 -0.16968,0.0675 -0.33695,0.14184 -0.50247,0.21989 0.11575,-0.43911 0.27557,-0.89182 0.48625,-1.37521 0.0934,-0.21397 -0.005,-0.46301 -0.21836,-0.55618 -0.21374,-0.0932 -0.46278,0.004 -0.55618,0.21835 -0.28061,0.64387 -0.4801,1.24192 -0.60945,1.82813 -0.032,0.14513 -0.0577,0.28741 -0.0798,0.42004 -0.23062,0.14513 -0.45577,0.30078 -0.67478,0.46696 0.0186,-0.46784 0.0754,-0.95101 0.17078,-1.44099 0.0447,-0.22909 -0.10479,-0.45095 -0.33388,-0.49545 -0.22888,-0.0449 -0.45073,0.10479 -0.49546,0.33388 -0.12846,0.65944 -0.19379,1.30967 -0.19379,1.93293 0,0.11751 0.001,0.25409 0.006,0.39702 -0.18788,0.18196 -0.37532,0.37795 -0.56408,0.58928 -0.0311,-0.19401 -0.0559,-0.38277 -0.0726,-0.56275 -0.0265,-0.28302 -0.0522,-0.5838 -0.0509,-0.87362 0.001,-0.23348 -0.18722,-0.42333 -0.4207,-0.42443 -6.5e-4,0 -0.001,0 -0.002,0 -0.2326,0 -0.42157,0.18788 -0.42245,0.4207 -0.002,0.32796 0.0261,0.65198 0.0544,0.95583 0.0278,0.29815 0.0737,0.61515 0.13614,0.94268 0.0228,0.1186 0.0498,0.24685 0.0833,0.39636 -0.15411,0.21177 -0.30472,0.43582 -0.45182,0.67062 -0.1493,-0.45424 -0.27316,-0.91966 -0.3694,-1.39188 -0.0467,-0.22843 -0.26987,-0.37597 -0.49852,-0.3295 -0.22866,0.0467 -0.3762,0.26987 -0.3295,0.49853 0.1528,0.74954 0.37093,1.48373 0.6476,2.18591 -0.0134,0.0256 -0.0272,0.0504 -0.0403,0.0761 -0.0954,0.18591 -0.18788,0.37554 -0.27469,0.56408 -10e-4,0.003 -0.002,0.005 -0.003,0.008 h -2.7592 c 0.046,-0.61121 0.10808,-1.22066 0.18678,-1.81433 0.0105,-0.0796 0.0213,-0.1585 0.0324,-0.2372 0.67171,-0.58293 1.3397,-1.10425 1.9873,-1.54906 0.19248,-0.1322 0.24114,-0.39527 0.10917,-0.58753 -0.13219,-0.19226 -0.39505,-0.24115 -0.58753,-0.10918 -0.42705,0.29355 -0.862,0.61823 -1.30045,0.9703 0.0831,-0.4413 0.17538,-0.86814 0.27754,-1.28313 0.73638,-0.51409 1.45172,-0.94093 2.12782,-1.26779 0.21002,-0.10172 0.29815,-0.35427 0.19642,-0.56429 -0.1015,-0.21002 -0.35405,-0.29815 -0.56429,-0.19643 -0.45752,0.2212 -0.9304,0.48471 -1.41379,0.78637 0.13482,-0.43079 0.27929,-0.83811 0.43429,-1.22526 0.80083,-0.39834 1.55629,-0.6772 2.24729,-0.82912 0.228,-0.0502 0.37203,-0.27535 0.32205,-0.50335 -0.0502,-0.22799 -0.27557,-0.37203 -0.50335,-0.32182 -0.48778,0.1072 -1.00165,0.27074 -1.53546,0.48778 0.0763,-0.14842 0.15455,-0.29377 0.23545,-0.43583 0.13197,-0.23216 0.26965,-0.4538 0.41192,-0.66535 0.81399,-0.20191 1.57449,-0.25606 2.26287,-0.16135 0.23084,0.032 0.44437,-0.12957 0.47616,-0.36063 0.0318,-0.23129 -0.12978,-0.44438 -0.36085,-0.47638 -0.5051,-0.0695 -1.03979,-0.0697 -1.59817,-0.003 0.27864,-0.30692 0.57153,-0.58074 0.87735,-0.81904 0.01,-0.007 0.0195,-0.0145 0.0292,-0.0219 0.58731,0.0579 1.13472,0.20147 1.62864,0.42969 0.15784,0.0728 0.31086,0.15499 0.45511,0.24422 0.0693,0.043 0.14601,0.0634 0.22186,0.0634 0.1414,0 0.27974,-0.071 0.35975,-0.20015 0.12277,-0.1984 0.0614,-0.45884 -0.13701,-0.58161 -0.17319,-0.1072 -0.35669,-0.20564 -0.54544,-0.29289 -0.29004,-0.13395 -0.59498,-0.2429 -0.91242,-0.32709 0.58204,-0.28521 1.2064,-0.48142 1.85049,-0.57656 0.13899,-0.0206 0.28039,-0.037 0.42004,-0.0485 0.2326,-0.0191 0.40557,-0.22318 0.3865,-0.45578 -0.0191,-0.23238 -0.22405,-0.40579 -0.45577,-0.38627 -0.15785,0.0129 -0.31744,0.0314 -0.47463,0.0546 -0.75085,0.11115 -1.47869,0.34266 -2.15457,0.68114 0.22668,-0.5143 0.52198,-1.00274 0.88349,-1.45589 0.14535,-0.18261 0.11553,-0.44832 -0.0669,-0.59388 -0.1824,-0.14535 -0.44832,-0.11553 -0.59367,0.0671 -0.51606,0.64716 -0.91528,1.35877 -1.18624,2.11532 -0.0686,0.19117 -0.12847,0.3865 -0.17977,0.58249 -0.016,0.0121 -0.0322,0.0239 -0.048,0.0362 -0.35427,0.27601 -0.69144,0.59301 -1.01107,0.94794 0.0234,-0.56648 0.10764,-1.12507 0.25298,-1.66656 0.0603,-0.22537 -0.0732,-0.45709 -0.2988,-0.5176 -0.22537,-0.0605 -0.45687,0.0732 -0.51738,0.29859 -0.2087,0.77738 -0.30516,1.58611 -0.28697,2.40339 0.004,0.17757 0.0136,0.35843 0.0285,0.53973 -0.15631,0.23217 -0.30735,0.47485 -0.45182,0.72894 -0.0906,0.15937 -0.17824,0.32226 -0.26352,0.48843 -0.12868,-0.56122 -0.21177,-1.106 -0.25057,-1.64552 -0.0169,-0.23282 -0.21967,-0.40776 -0.45183,-0.3911 -0.23282,0.0169 -0.40776,0.21901 -0.3911,0.45183 0.0653,0.90497 0.24509,1.8198 0.54588,2.79054 -0.16662,0.41522 -0.32139,0.85148 -0.46542,1.31252 -0.22011,-0.52461 -0.40689,-1.03914 -0.56386,-1.55411 -0.0682,-0.22317 -0.30428,-0.34879 -0.52746,-0.28082 -0.22317,0.068 -0.34879,0.30406 -0.28083,0.52724 0.25869,0.84841 0.59323,1.69331 1.01853,2.57745 -0.10764,0.43604 -0.20454,0.88393 -0.29157,1.34715 -0.27623,-0.48756 -0.52834,-0.97117 -0.76094,-1.46049 -0.10018,-0.21068 -0.35252,-0.30034 -0.56297,-0.20015 -0.21068,0.10018 -0.30034,0.35229 -0.20016,0.56297 0.38102,0.80106 0.81136,1.58633 1.31186,2.39594 -0.0116,0.0829 -0.023,0.16617 -0.0342,0.25013 -0.0835,0.63006 -0.14908,1.27722 -0.19643,1.92548 h -2.09515 c -0.0268,-0.91133 -0.11378,-1.83384 -0.26066,-2.74473 -0.0114,-0.0721 -0.025,-0.14293 -0.0373,-0.2144 0.35251,-0.63423 0.66557,-1.2884 0.9304,-1.94718 0.0833,-0.20695 0.16376,-0.41916 0.23895,-0.6305 0.0783,-0.21988 -0.0364,-0.46147 -0.25627,-0.53973 -0.21945,-0.0783 -0.46126,0.0364 -0.53974,0.25605 -0.0715,0.20082 -0.14776,0.40229 -0.2269,0.59893 -0.12781,0.31788 -0.26855,0.63445 -0.41894,0.94838 -0.116847,-0.47507 -0.250577,-0.93654 -0.400967,-1.38201 0.25803,-0.71271 0.454677,-1.42826 0.583137,-2.12913 0.0331,-0.18065 0.0752,-0.42004 0.10611,-0.66711 0.0289,-0.23151 -0.13504,-0.44262 -0.36677,-0.47178 -0.230837,-0.0287 -0.442617,0.13526 -0.471547,0.36677 -0.0285,0.22602 -0.0677,0.45007 -0.0989,0.61975 -0.0623,0.33937 -0.1414,0.68268 -0.23698,1.02796 -0.19994,-0.4527 -0.420477,-0.88612 -0.660747,-1.29804 0.10457,-0.76335 0.13329,-1.51991 0.0831,-2.25147 -0.0149,-0.2155 -0.0364,-0.4356 -0.0658,-0.67346 -0.0285,-0.23151 -0.240057,-0.39571 -0.471117,-0.36743 -0.231507,0.0287 -0.395927,0.23962 -0.367427,0.47112 0.0276,0.2223 0.0476,0.42771 0.0614,0.62765 0.0239,0.34945 0.0285,0.70547 0.014,1.06588 -0.0877,-0.11707 -0.17692,-0.23172 -0.26834,-0.34397 -0.217027,-0.26702 -0.448537,-0.52242 -0.692527,-0.76663 -0.0954,-0.7513 -0.271627,-1.49009 -0.526587,-2.19776 -0.08089,-0.22449 -0.168585,-0.44306 -0.26066,-0.64979 -0.09493,-0.21309 -0.344845,-0.30867 -0.557933,-0.21374 -0.213089,0.0951 -0.308672,0.34484 -0.213747,0.55793 0.08375,0.18788 0.163544,0.38694 0.237423,0.59191 0.119917,0.33279 0.221201,0.67325 0.303192,1.01897 -0.333007,-0.2554 -0.683551,-0.4937 -1.051195,-0.71293 -0.06029,-0.0359 -0.121452,-0.0712 -0.183055,-0.1061 -0.277103,-0.65176 -0.64102,-1.30462 -1.085394,-1.94301 -0.130001,-0.18635 -0.268773,-0.37444 -0.412366,-0.55859 -0.143594,-0.18415 -0.409078,-0.21682 -0.59301,-0.0732 -0.183932,0.1436 -0.216816,0.40908 -0.07322,0.59301 0.134387,0.17232 0.26395,0.3477 0.385183,0.52177 0.202565,0.29091 0.386716,0.58446 0.552013,0.87888 -0.665356,-0.26198 -1.386175,-0.46871 -2.156759,-0.61779 -0.158063,-0.0307 -0.319414,-0.0588 -0.479231,-0.0837 -0.230846,-0.036 -0.446566,0.12211 -0.4823,0.35252 -0.03595,0.23062 0.121891,0.44656 0.352518,0.48252 0.149513,0.0232 0.30056,0.0495 0.448539,0.078 0.712927,0.1379 1.378062,0.32797 1.990144,0.56758 -0.508826,0.17209 -1.008006,0.38759 -1.49206,0.64694 -0.205635,0.11027 -0.283023,0.36611 -0.17297,0.57196 0.07629,0.14206 0.222077,0.22296 0.372905,0.22296 0.06708,0 0.135483,-0.016 0.199058,-0.0502 0.723231,-0.38716 1.481538,-0.66843 2.256068,-0.83965 0.04735,0.027 0.09471,0.0541 0.141182,0.0818 0.32906,0.1962 0.642774,0.40864 0.941362,0.63597 -0.559907,0.0276 -1.094382,0.10589 -1.596851,0.23655 -0.225805,0.0585 -0.361287,0.28916 -0.302753,0.51497 0.04955,0.19028 0.220981,0.31634 0.408639,0.31634 0.0353,0 0.07103,-0.004 0.106545,-0.0136 0.714462,-0.18569 1.506748,-0.25343 2.356035,-0.20476 0.220758,0.2212 0.430118,0.45249 0.626325,0.69385 0.0798,0.098 0.15763,0.19819 0.23436,0.30013 -0.543247,-0.12299 -1.080132,-0.19731 -1.6054,-0.22055 -0.233477,-0.01 -0.430343,0.17056 -0.440647,0.4036 -0.0103,0.23304 0.17034,0.43034 0.403598,0.44065 0.760718,0.0335 1.552119,0.18634 2.354496,0.45139 0.217467,0.374 0.417837,0.76707 0.600234,1.1779 -0.514087,-0.25254 -1.012164,-0.45182 -1.510681,-0.6044 -0.222737,-0.0682 -0.459067,0.0572 -0.527467,0.28039 -0.0684,0.22317 0.0572,0.45928 0.28018,0.52768 0.604187,0.18481 1.211884,0.44656 1.857498,0.79996 0.12211,0.0669 0.24685,0.13855 0.37159,0.21199 0.139867,0.415 0.264167,0.8449 0.373557,1.28774 -0.451167,-0.32972 -0.908464,-0.62787 -1.364464,-0.88897 -0.202557,-0.11597 -0.460587,-0.0458 -0.576564,0.15675 -0.11597,0.20235 -0.0458,0.4606 0.156527,0.57657 0.569987,0.32621 1.143044,0.71468 1.703831,1.15423 0.11597,0.0908 0.23172,0.18503 0.346807,0.28039 0.0114,0.0667 0.0239,0.13263 0.0346,0.19972 0.13965,0.86638 0.22296,1.74373 0.24948,2.61034 h -2.213738 c -0.1265,-0.44964 -0.288727,-0.90168 -0.482957,-1.34825 0.307567,-0.76225 0.526357,-1.56221 0.648467,-2.3819 0.0344,-0.23085 -0.12474,-0.44569 -0.35558,-0.48011 -0.230847,-0.0344 -0.445687,0.12474 -0.480107,0.35558 -0.0741,0.49765 -0.186997,0.98718 -0.336077,1.46422 -0.16529,-0.28894 -0.34177,-0.56758 -0.530963,-0.83306 0.02083,-0.11992 0.041,-0.24466 0.05722,-0.36984 0.04341,-0.33607 0.06818,-0.67237 0.073,-0.99989 0.0055,-0.35493 -0.01009,-0.72323 -0.04735,-1.12595 -0.02148,-0.23238 -0.226681,-0.40338 -0.4595,-0.3819 -0.232381,0.0215 -0.403159,0.22712 -0.381675,0.4595 0.0342,0.37247 0.04867,0.71118 0.04363,1.03563 -0.0022,0.15609 -0.0099,0.31459 -0.02214,0.47419 -0.22975,-0.24904 -0.469803,-0.48076 -0.719065,-0.69517 -0.06599,-0.83175 -0.264169,-1.65933 -0.590159,-2.46302 -0.08769,-0.21615 -0.333884,-0.32029 -0.550261,-0.2326 -0.216377,0.0877 -0.32051,0.33411 -0.232819,0.55026 0.192481,0.47485 0.33476,0.95825 0.427273,1.44515 -0.285214,-0.17977 -0.579855,-0.33958 -0.883485,-0.47857 -0.28653,-0.75919 -0.705692,-1.49842 -1.248061,-2.19995 -0.142717,-0.18459 -0.407982,-0.21857 -0.592571,-0.0759 -0.184589,0.14272 -0.218569,0.40798 -0.07585,0.59257 0.319194,0.41302 0.590159,0.8392 0.811798,1.27393 -0.229093,-0.066 -0.4595,-0.12167 -0.690785,-0.16552 -0.09734,-0.0184 -0.194235,-0.0346 -0.289599,-0.0487 -0.06708,-0.0914 -0.135921,-0.18261 -0.20717,-0.27206 -0.203662,-0.2554 -0.426616,-0.50663 -0.662943,-0.74625 -0.267896,-0.27184 -0.555522,-0.53206 -0.855205,-0.77343 -0.18174,-0.14622 -0.447662,-0.11772 -0.594106,0.0642 -0.146444,0.18152 -0.117725,0.44767 0.06401,0.59389 0.274692,0.2212 0.538203,0.4595 0.783518,0.70854 0.103037,0.10457 0.203005,0.21134 0.299903,0.31986 -0.456869,-0.0105 -0.958681,0.0221 -1.574709,0.1015 -0.179766,0.0232 -0.325114,0.0469 -0.457747,0.075 -0.228215,0.0482 -0.37422,0.2725 -0.325771,0.50072 0.04823,0.22843 0.272499,0.37422 0.500715,0.32599 0.111367,-0.0235 0.231942,-0.0432 0.390663,-0.0636 0.560344,-0.0721 1.013487,-0.10303 1.420154,-0.0954 -0.34046,0.36107 -0.648475,0.75195 -0.918782,1.16717 -0.127371,0.19533 -0.07212,0.45708 0.123425,0.58445 0.07125,0.0465 0.151267,0.0686 0.230189,0.0686 0.138113,0 0.273376,-0.0677 0.35449,-0.19204 0.324895,-0.49896 0.710516,-0.95934 1.145901,-1.36885 0.05152,-0.0482 0.103475,-0.096 0.15609,-0.14272 0.0066,-0.006 0.01315,-0.0114 0.01951,-0.0171 0.07958,0.0121 0.159817,0.0252 0.240054,0.0406 0.192481,0.0364 0.384524,0.0818 0.575471,0.1357 -0.419381,0.26219 -0.80851,0.56517 -1.161904,0.9076 -0.167709,0.16223 -0.171874,0.42968 -0.0096,0.59717 0.08287,0.0857 0.193139,0.12869 0.30363,0.12869 0.105886,0 0.211773,-0.0397 0.293983,-0.11904 0.471997,-0.45753 1.016996,-0.83548 1.62009,-1.12792 0.247507,0.11465 0.49085,0.24706 0.728272,0.39548 -0.486246,0.13658 -0.94443,0.32117 -1.368854,0.55289 -0.204759,0.11203 -0.279953,0.36874 -0.168148,0.5735 0.07673,0.14031 0.221639,0.21989 0.371152,0.21989 0.0684,0 0.137894,-0.0167 0.202128,-0.0517 0.556179,-0.30385 1.182292,-0.51497 1.862554,-0.63116 0.21002,0.18086 0.411928,0.37488 0.603752,0.58074 -0.486466,0.007 -0.977096,0.0594 -1.464876,0.15894 -0.228435,0.0467 -0.375975,0.26986 -0.32928,0.49852 0.04078,0.20015 0.216816,0.33805 0.413463,0.33805 0.02806,0 0.05656,-0.003 0.08506,-0.009 0.60134,-0.12299 1.206626,-0.16705 1.79854,-0.13154 0.06818,0.004 0.13614,0.009 0.204101,0.0151 6.56e-4,0 0.0013,2.2e-4 0.0018,2.2e-4 0.162447,0.22866 0.314152,0.46849 0.457527,0.71644 -0.494796,-0.1083 -0.984769,-0.17451 -1.464657,-0.19577 -0.234135,-0.0108 -0.430563,0.1699 -0.440866,0.40315 -0.01052,0.23304 0.17012,0.43057 0.403159,0.44087 0.651543,0.0292 1.326324,0.14995 2.008116,0.35734 0.14294,0.3306 0.2668,0.66382 0.36962,0.99573 h -1.798099 c -0.116629,0 -0.228216,0.0482 -0.308015,0.13351 -1.569006,1.67138 -2.432981,3.85467 -2.432981,6.14735 0,1.80139 0.51935,3.51026 1.508283,4.98522 h -1.536563 c -0.233477,0 -0.422451,0.1892 -0.422451,0.42245 0,1.22702 0.998142,2.22516 2.224937,2.22516 H 108.3771 c 1.22701,0 2.22515,-0.99814 2.22515,-2.22516 0,-0.23325 -0.18919,-0.42245 -0.42245,-0.42245 h -1.53722 c 0.98893,-1.47562 1.50894,-3.18581 1.50894,-4.98522 0,-2.29268 -0.86419,-4.47597 -2.43298,-6.14735 -0.0798,-0.0853 -0.19139,-0.13351 -0.30802,-0.13351 h -0.11049 c 0.0307,-0.062 0.0614,-0.12453 0.0932,-0.18613 0.0103,-0.0202 0.021,-0.0395 0.0313,-0.0594 0.66843,-0.12101 1.33093,-0.18261 1.97173,-0.17823 h 0.002 c 0.23239,0 0.42136,-0.18788 0.42224,-0.42048 0.001,-0.23348 -0.18722,-0.42333 -0.42048,-0.42442 -0.47024,-0.001 -0.9532,0.0281 -1.44076,0.0877 0.12846,-0.20454 0.25978,-0.39987 0.39373,-0.58468 0.039,-8.8e-4 0.0778,-0.002 0.11663,-0.003 0.29069,-0.004 0.58095,0.003 0.86156,0.023 0.35361,0.025 0.66842,0.068 0.96241,0.13131 0.03,0.007 0.0598,0.01 0.0894,0.01 0.19468,0 0.36984,-0.13548 0.41259,-0.33344 0.0491,-0.22822 -0.096,-0.45293 -0.32402,-0.50225 -0.33344,-0.0717 -0.68684,-0.12014 -1.08079,-0.14798 -0.11663,-0.008 -0.23479,-0.014 -0.35339,-0.0184 0.16179,-0.17998 0.32226,-0.34725 0.48252,-0.5029 0.008,0.001 0.0149,0.002 0.0226,0.004 l 0.0452,0.008 c 0.32423,0.0572 0.60331,0.1197 0.85323,0.19117 0.31262,0.0897 0.62282,0.20015 0.92163,0.32862 0.0544,0.0235 0.11093,0.0344 0.16661,0.0344 0.16377,0 0.31964,-0.0958 0.38847,-0.25584 0.0921,-0.2144 -0.007,-0.46279 -0.22142,-0.55486 -0.33169,-0.14272 -0.67587,-0.26527 -1.02291,-0.36458 -0.10852,-0.0311 -0.22164,-0.0605 -0.34002,-0.0886 0.18415,-0.13833 0.37334,-0.26811 0.56648,-0.39022 0.0158,0.006 0.0318,0.0116 0.0473,0.0178 0.26045,0.10194 0.53097,0.22777 0.80413,0.37378 0.26439,0.1414 0.5325,0.31108 0.81969,0.51891 0.0748,0.0541 0.16135,0.0802 0.24729,0.0802 0.13088,0 0.26,-0.0607 0.34265,-0.17495 0.1368,-0.18897 0.0943,-0.45314 -0.0947,-0.58994 -0.31832,-0.23018 -0.61801,-0.41982 -0.91637,-0.57919 -0.10414,-0.0557 -0.20805,-0.10786 -0.31153,-0.15829 0.13768,-0.064 0.27645,-0.12561 0.41741,-0.18174 0.0704,-0.0281 0.14206,-0.0539 0.21397,-0.08 0.0143,0.01 0.0283,0.0191 0.043,0.0289 l 0.0386,0.0261 c 0.228,0.15368 0.4549,0.32862 0.67434,0.52001 0.23348,0.20388 0.46783,0.43429 0.69671,0.68508 0.0833,0.0912 0.19752,0.13746 0.31218,0.13746 0.10172,0 0.20366,-0.0364 0.28477,-0.11027 0.17232,-0.15741 0.18437,-0.42464 0.027,-0.59696 -0.25014,-0.27425 -0.50773,-0.52724 -0.7651,-0.75195 -0.0923,-0.0807 -0.18635,-0.15784 -0.28105,-0.23325 0.40666,-0.0866 0.82758,-0.14426 1.26011,-0.17122 0.10392,-0.007 0.21353,-0.0118 0.32599,-0.0156 0.23326,-0.008 0.41566,-0.20344 0.40777,-0.4367 -0.008,-0.23347 -0.2052,-0.41587 -0.4367,-0.40798 z m -5.75055,12.57773 c 0,1.82462 -0.58972,3.54797 -1.70515,4.98522 h -1.45106 c -0.23326,0 -0.42245,0.1892 -0.42245,0.42245 0,0.23326 0.18919,0.42246 0.42245,0.42246 h 3.54073 c -0.17888,0.55508 -0.70043,0.95758 -1.31404,0.95758 H 93.95696 c -0.613617,0 -1.135158,-0.4025 -1.313828,-0.95758 h 11.449998 c 0.23348,0 0.42245,-0.1892 0.42245,-0.42246 0,-0.23325 -0.18897,-0.42245 -0.42245,-0.42245 h -9.360105 c -1.115867,-1.43681 -1.705369,-3.1584 -1.705369,-4.98522 0,-2.01667 0.737919,-3.93974 2.081782,-5.43596 h 12.115792 c 1.34386,1.49601 2.08178,3.41929 2.08178,5.43596 z m 0,0"
           inkscape:connector-curvature="0"
           style="fill:#032659;stroke:#032659;stroke-width:0.52745199;stroke-miterlimit:4;stroke-dasharray:none;stroke-opacity:1" />
      </g>
    </g>
    <path
       style="fill:none;stroke:#032659;stroke-width:1.16499996;stroke-linecap:round;stroke-linejoin:miter;stroke-miterlimit:4;stroke-dasharray:none;stroke-opacity:1"
       d="m 96.535117,233.91575 3.590773,8.12649"
       id="path4002"
       inkscape:connector-curvature="0" />
    <path
       inkscape:connector-curvature="0"
       id="path4004"
       d="m 96.535117,233.91575 3.590773,8.12649"
       style="fill:none;stroke:#032659;stroke-width:1.46500003;stroke-linecap:round;stroke-linejoin:miter;stroke-miterlimit:4;stroke-dasharray:none;stroke-opacity:1" />
    <path
       style="fill:none;stroke:#032659;stroke-width:1.46500003;stroke-linecap:round;stroke-linejoin:miter;stroke-miterlimit:4;stroke-dasharray:none;stroke-opacity:1"
       d="m 95.526013,238.02205 1.422844,4.02182"
       id="path4006"
       inkscape:connector-curvature="0" />
    <ellipse
       style="opacity:1;fill:#032659;fill-opacity:1;stroke:none;stroke-width:1.46499991;stroke-linecap:round;stroke-miterlimit:4;stroke-dasharray:none;stroke-opacity:1;paint-order:stroke markers fill"
       id="path4019"
       cx="94.617569"
       cy="235.41957"
       rx="0.70158249"
       ry="0.8018086" />
    <ellipse
       ry="9.1713066"
       rx="9.3157368"
       cy="273.33664"
       cx="113.38182"
       id="ellipse2808"
       style="opacity:1;fill:#186dbd;fill-opacity:1;stroke:#032659;stroke-width:0.465;stroke-linecap:round;stroke-miterlimit:4;stroke-dasharray:none;stroke-opacity:1;paint-order:stroke markers fill" />
    <ellipse
       style="opacity:1;fill:#186dbd;fill-opacity:1;stroke:#032659;stroke-width:0.465;stroke-linecap:round;stroke-miterlimit:4;stroke-dasharray:none;stroke-opacity:1;paint-order:stroke markers fill"
       id="path2806"
       cx="58.209545"
       cy="273.62549"
       rx="9.3157368"
       ry="9.1713066" />
    <path
       style="opacity:1;fill:#83cffd;fill-opacity:1;stroke:#032659;stroke-width:0.46499997;stroke-linecap:round;stroke-miterlimit:4;stroke-dasharray:none;stroke-opacity:1;paint-order:stroke markers fill"
       d="m 87.889918,230.94642 12.276552,-0.14443 5.92163,14.58743 -18.342613,-0.57773 z"
       id="rect2810"
       inkscape:connector-curvature="0"
       sodipodi:nodetypes="ccccc" />
    <path
       style="opacity:1;fill:#83cffd;fill-opacity:1;stroke:#032659;stroke-width:0.46499997;stroke-linecap:round;stroke-miterlimit:4;stroke-dasharray:none;stroke-opacity:1;paint-order:stroke markers fill"
       d="m 107.9657,230.51312 4.47733,-0.14443 5.48834,15.16515 -4.47733,0.28887 z"
       id="rect2813"
       inkscape:connector-curvature="0"
       sodipodi:nodetypes="ccccc" />
    <path
       style="opacity:1;fill:#9fdafd;fill-opacity:1;stroke:none;stroke-width:1.46499991;stroke-linecap:round;stroke-miterlimit:4;stroke-dasharray:none;stroke-opacity:1;paint-order:stroke markers fill"
       d="m 94.271511,230.62811 6.281869,-0.0823 c 0.20054,4.16291 5.47693,10.63626 5.47693,14.88131 -2.7035,0.15917 -3.78326,-0.56064 -6.565044,-0.56064 -2.317479,-7.12589 -2.71537,-7.75511 -5.193755,-14.23842 z"
       id="rect5746"
       inkscape:connector-curvature="0"
       sodipodi:nodetypes="cccccc" />
    <path
       sodipodi:nodetypes="cccccc"
       inkscape:connector-curvature="0"
       id="path5749"
       d="m 110.24087,230.9622 3.45545,-0.14912 c 0.15723,4.16291 5.63065,10.16854 5.63065,14.41359 -2.11974,0.15917 -1.36274,0.0407 -3.54385,0.0407 0,0 -5.54225,-14.30519 -5.54225,-14.30524 z"
       style="opacity:1;fill:#9fdafd;fill-opacity:1;stroke:none;stroke-width:1.46499991;stroke-linecap:round;stroke-miterlimit:4;stroke-dasharray:none;stroke-opacity:1;paint-order:stroke markers fill" />
    <rect
       style="opacity:1;fill:#e8f0f7;fill-opacity:1;stroke:none;stroke-width:1.46499991;stroke-linecap:round;stroke-miterlimit:4;stroke-dasharray:none;stroke-opacity:1;paint-order:stroke markers fill"
       id="rect5760"
       width="6.4255953"
       height="5.1026788"
       x="122.0863"
       y="252.02081"
       rx="0.10000006"
       ry="0.10000006" />
    <g
       style="stroke-width:1.30850971"
       id="g2802"
       transform="matrix(0.76422819,0,0,0.76422819,-4.97859,42.677905)">
      <g
         style="stroke-width:1.38380015"
         transform="matrix(0.25018824,0,0,0.25018824,52.652087,211.81804)"
         id="g2736">
        <g
           style="stroke-width:1.38380015"
           id="g2704">
	<g
   style="stroke-width:1.38380015"
   id="g2702">
		<path
   style="fill:#032659;stroke-width:1.38380015"
   inkscape:connector-curvature="0"
   d="m 135.759,352.709 c -4.142,0 -7.5,3.357 -7.5,7.5 0,4.705 -3.828,8.532 -8.533,8.532 -4.705,0 -8.532,-3.827 -8.532,-8.532 0,-3.036 1.635,-5.869 4.268,-7.394 3.585,-2.075 4.808,-6.663 2.733,-10.248 -2.075,-3.584 -6.664,-4.81 -10.249,-2.732 -7.249,4.196 -11.752,12.004 -11.752,20.374 -0.001,12.976 10.556,23.532 23.532,23.532 12.976,0 23.533,-10.557 23.533,-23.532 0,-4.143 -3.358,-7.5 -7.5,-7.5 z"
   data-original="#000000"
   class="active-path"
   data-old_color="#000000"
   id="path2700" />

	</g>

</g>
        <g
           style="stroke-width:1.38380015"
           id="g2710">
	<g
   style="stroke-width:1.38380015"
   id="g2708">
		<path
   sodipodi:nodetypes="ccccccccccccccccccccccccccccccccccccccccccccccccccccccccccccccccccccccccccccccccccccccccccccccccccc"
   inkscape:connector-curvature="0"
   id="path2706"
   d="M 38.986328,98.199219 C 25.94513,98.14623 16.132073,111.22191 18.03125,123.75 V 306.61133 C 8.1557417,304.94247 -0.04395001,314.66337 2,324.17773 c -0.1525449,8.5718 -1.70811909,20.55346 8.251953,24.42969 11.482195,2.44733 23.595689,0.39495 35.318359,1.07031 h 21.521485 c -5.277416,24.68789 9.367699,51.57932 33.025393,60.41407 24.1868,10.14683 54.4605,-0.95388 66.59545,-24.12283 6.10922,-10.93732 7.96079,-24.0173 5.64088,-36.29124 5.32337,-0.91245 14.49374,2.8294 16.83203,-4.14257 1.49603,-5.93743 -5.83748,-8.19766 -10.38086,-6.85743 -4.3485,-0.59624 -10.74738,2.19839 -11.8125,-3.69531 -11.55685,-22.73997 -40.73409,-34.23004 -64.5,-25.52734 -14.090801,4.7309 -25.875705,15.63941 -31.865237,29.22265 H 44.927734 c -0.763407,-9.0855 2.895662,-19.90817 -3.363281,-27.61328 -3.077022,-3.56291 -7.967659,-4.86123 -12.533203,-4.45312 v -21.06445 c 116.18284,-0.11353 232.40284,0.22688 348.5625,-0.16993 6.1553,-1.21068 4.86218,-11.23887 -1.4082,-10.83007 -115.7181,-10e-6 -231.4362,0 -347.1543,0 0.156551,-52.32505 -0.309478,-104.69363 0.226562,-156.99219 1.227401,-6.8967 9.093857,-9.621 15.306641,-8.36133 111.318117,0.0799 222.648517,-0.15953 333.958987,0.11914 9.30291,0.74087 15.38434,9.20772 17.69927,17.55688 2.73811,5.81706 -4.15326,2.77506 -11.58013,3.38843 -12.04385,1.16254 -14.94513,-2.63178 -16.16797,5.02735 2.34227,9.83749 8.00516,18.87066 11.47473,28.43151 7.84203,17.39857 14.46116,35.45222 22.97839,52.49036 6.61711,8.50636 18.63702,4.16648 27.69922,5.21094 12.41394,-1.26461 23.48962,5.78701 35.20117,8.80859 6.12707,2.17252 10.83257,6.97687 14.4043,12.25586 -8.74336,0.59393 -17.89889,-1.12167 -26.4414,0.66016 -5.74839,3.85791 -1.65452,12.2701 -2.88672,17.89062 -1.68724,12.83005 9.4355,25.49761 22.55664,24.51563 7.75277,-1.5835 11.42194,0.9166 9.50781,9 -0.93408,4.72103 2.97082,13.87503 -4.58594,12.22265 -9.20467,1.12256 -12.94368,11.25902 -11.44726,19.41211 -1.34135,4.28889 3.43804,14.38931 -3.97266,12.49414 -4.81049,1.48396 -6.69992,-1.43747 -8.28906,-5.30664 -12.45887,-22.39968 -41.77145,-32.8075 -65.41797,-23.25781 -13.30136,5.01397 -24.30843,15.57978 -30.04688,28.56445 -48.30636,0.17056 -96.6813,-0.33941 -144.94531,0.25196 -5.92359,1.50616 -4.39738,11.15431 1.70703,10.74804 h 139.70703 c -5.18292,24.24808 8.82245,50.6586 31.81055,59.91993 23.61469,10.57377 53.69966,0.66866 66.65625,-21.63868 6.98516,-11.32248 9.26643,-25.25339 6.78906,-38.28125 13.3636,-0.56325 27.00113,1.12526 40.20118,-0.82617 9.17626,-2.99195 9.6125,-13.73022 8.86328,-21.74023 1.34594,-8.15357 -1.44501,-18.63582 -10.81055,-20.22656 -7.99441,1.66114 -4.52522,-7.05829 -5.21875,-12.27344 -0.55202,-15.65144 1.0747,-31.53176 -0.74023,-47 -2.685,-15.12829 -15.81474,-26.87055 -30.65685,-30.09102 -5.95538,-2.50792 -13.36342,-3.43909 -18.47206,-6.86601 -14.30061,-32.77186 -27.76498,-65.95179 -42.56445,-98.48047 -6.43835,-11.06019 -19.94797,-15.442119 -32.15625,-13.982424 -110.13085,0.0052 -220.26183,-0.01042 -330.392582,0.0078 z M 402.89258,142.42969 c 9.71311,22.66266 19.42438,45.32612 29.13867,67.98828 -6.60207,-0.62443 -13.88729,1.1835 -20.15234,-0.67969 -10.23912,-22.58539 -19.65694,-45.69771 -29.58594,-68.48242 6.67663,-0.0935 13.36756,0.19379 20.03515,-0.14258 l 0.39409,0.91908 z m 80.07617,113.02734 v 19.0918 c -6.58072,0.0161 -16.13551,1.77039 -19.8125,-5.55469 -2.44562,-4.77863 -0.74857,-10.40091 -1.25195,-15.51172 7.02062,-0.0773 14.04884,0.15904 21.06445,-0.125 z m -467.453125,62.1543 c 5.77116,0.80469 12.39362,-1.42001 17.806641,0.7207 2.157905,5.47938 -0.04321,12.2021 0.730468,18.05274 -1.391856,4.66838 -8.08941,1.29001 -11.521484,2.29296 -2.970671,-0.26729 -10.154418,1.78033 -9.53125,-3.51757 0.806986,-5.4398 -1.428486,-11.74306 0.728516,-16.81836 0.482877,-0.45386 1.118659,-0.73873 1.787109,-0.73047 z m 104.210935,0 c 21.95155,-0.51098 41.94325,18.47673 42.54102,40.43359 1.62625,21.89671 -16.31786,42.82615 -38.21875,44.54297 -21.79406,2.73294 -43.607131,-14.12974 -46.431642,-35.92578 -3.828092,-21.64082 11.925547,-44.27053 33.562502,-48.18945 2.81073,-0.5718 5.67858,-0.86185 8.54687,-0.86133 z m 288.58008,0 c 21.95379,-0.51148 41.94602,18.47921 42.54297,40.4375 1.62275,21.89561 -16.32025,42.82267 -38.2207,44.53906 -21.79558,2.73313 -43.60748,-14.1321 -46.43164,-35.92969 -3.82397,-21.63925 11.92766,-44.26874 33.56445,-48.18554 2.81019,-0.57137 5.6772,-0.86212 8.54492,-0.86133 z m 72.14453,0 c 5.77045,0.82907 12.43541,-1.46343 17.83008,0.74219 2.06256,5.59486 0.0111,12.36719 0.67969,18.31445 -2.06329,4.47101 -8.75822,0.84181 -12.47656,2.00976 -2.79551,0.0326 -9.26471,1.33498 -8.54883,-3.51757 0.82195,-5.43752 -1.45527,-11.76608 0.74218,-16.82813 0.4798,-0.44862 1.11115,-0.72916 1.77344,-0.7207 z"
   style="fill:#032659;stroke:#032659;stroke-width:0;stroke-miterlimit:4;stroke-dasharray:none;stroke-opacity:1" />

	</g>

</g>
        <g
           style="stroke-width:1.38380015"
           id="g2716">
	<g
   style="stroke-width:1.38380015"
   id="g2714">
		<path
   inkscape:connector-curvature="0"
   id="path2712"
   d="m 271.71289,130.26758 c -7.12681,0.69052 -5.03167,9.75052 -5.17969,14.54101 0.4005,17.41951 -0.74812,34.93613 0.4668,52.30664 2.38463,15.29869 17.93724,26.14654 33.10352,24.30274 25.92382,-0.18245 51.92053,0.35801 77.80078,-0.25781 6.42993,-2.21906 2.95666,-9.91348 0.61174,-13.89888 -10.45117,-23.75114 -20.02599,-47.9586 -30.98674,-71.44487 -6.15995,-8.65564 -18.12951,-4.70953 -26.96094,-5.5586 -16.28511,0.007 -32.57057,-0.0131 -48.85547,0.01 z m 7.82031,10.99023 c 19.38013,0.1945 38.89406,-0.37933 58.19532,0.26953 4.67433,6.90028 6.81942,15.75897 10.63912,23.31555 6.51116,15.19224 13.02031,30.38534 19.53275,45.57703 -25.18875,-0.29796 -50.45771,0.57213 -75.60156,-0.38867 -10.47016,-1.87717 -16.47227,-13.12262 -14.76563,-23.16211 0,-15.20378 0,-30.40755 0,-45.61133 h 1 z"
   style="fill:#032659;stroke:#000000;stroke-width:0.33995655;stroke-miterlimit:4;stroke-dasharray:none;stroke-opacity:1" />

	</g>

</g>
        <g
           style="stroke-width:1.38380015"
           id="g2722">
	<g
   style="stroke-width:1.38380015"
   id="g2720">
		<path
   style="fill:#032659;stroke-width:1.38380015"
   inkscape:connector-curvature="0"
   d="m 424.339,272.548 h -16.03 c -4.142,0 -7.5,3.357 -7.5,7.5 0,4.143 3.358,7.5 7.5,7.5 h 16.03 c 4.142,0 7.5,-3.357 7.5,-7.5 0,-4.143 -3.358,-7.5 -7.5,-7.5 z"
   data-original="#000000"
   class="active-path"
   data-old_color="#000000"
   id="path2718" />

	</g>

</g>
        <g
           style="stroke-width:1.38380015"
           id="g2728">
	<g
   style="stroke-width:1.38380015"
   id="g2726">
		<path
   inkscape:connector-curvature="0"
   id="path2724"
   d="m 151.21289,138.28125 c -14.97913,-0.23626 -25.78448,17.49879 -18.90234,30.71094 2.05614,5.88628 8.04809,8.229 12.0664,12.28711 2.14935,3.13401 3.37881,8.53192 -1.89228,9.09551 -18.11244,9.35927 -36.76559,17.80533 -54.57842,27.67207 -9.723802,7.11531 -6.253379,24.48539 5.802734,26.92968 3.987146,2.16172 13.233806,-2.61104 12.529296,3.57813 0.30808,6.37375 10.63261,6.37931 10.94141,0 -0.44181,-6.20791 9.6652,-1.73415 14.02929,-3.08789 18.38737,0 36.77474,0 55.16211,0 -1.99003,5.66619 5.55206,10.91767 9.60352,6.17773 2.68979,-2.09463 -0.4384,-7.7069 4.39648,-6.17773 9.53764,1.85147 20.80982,-4.01297 21.02539,-14.59766 0.84047,-8.94607 -7.13504,-15.18759 -14.78837,-17.73978 -16.43057,-8.215 -32.86115,-16.42996 -49.2917,-24.64498 0.53275,-8.69599 -4.68904,-16.81265 -12.3418,-20.64844 -6.97565,-5.29472 -3.36592,-17.60265 5.26367,-18.44727 6.97031,-1.27725 12.82243,5.38265 12.33594,12.07031 1.50276,5.90014 11.15341,4.419 10.74805,-1.70312 0.19911,-11.78179 -10.32936,-22.0166 -22.10938,-21.47461 z m 1.47266,60.1875 c 18.8224,9.71895 38.26137,18.53542 56.72851,28.77539 3.07788,3.56113 -1.24439,8.59341 -5.40234,7.22266 -35.93991,-0.16099 -71.95028,0.31713 -107.847658,-0.23047 -4.614714,-1.42937 -3.388634,-8.40323 1.222487,-9.01545 18.134811,-9.06648 36.269681,-18.13285 54.404471,-27.1994 l 0.89442,0.44722 z"
   style="fill:#032659;stroke:#000000;stroke-width:0;stroke-miterlimit:4;stroke-dasharray:none;stroke-opacity:1" />

	</g>

</g>
        <g
           style="stroke-width:1.38380015"
           id="g2734">
	<g
   style="stroke-width:1.38380015"
   id="g2732">
		<path
   style="fill:#032659;stroke-width:1.38380015"
   inkscape:connector-curvature="0"
   d="m 424.339,352.709 c -4.142,0 -7.5,3.357 -7.5,7.5 0,4.705 -3.828,8.532 -8.532,8.532 -4.704,0 -8.532,-3.827 -8.532,-8.532 0,-3.036 1.635,-5.869 4.268,-7.394 3.585,-2.075 4.808,-6.663 2.733,-10.248 -2.076,-3.584 -6.664,-4.81 -10.249,-2.732 -7.249,4.196 -11.752,12.004 -11.752,20.374 0,12.976 10.557,23.532 23.532,23.532 12.975,0 23.532,-10.557 23.532,-23.532 0,-4.143 -3.358,-7.5 -7.5,-7.5 z"
   data-original="#000000"
   class="active-path"
   data-old_color="#000000"
   id="path2730" />

	</g>

</g>
      </g>
    </g>
  </g>
</svg>
